<svg width="320" height="141" viewBox="0 0 320 141" fill="none" xmlns="http://www.w3.org/2000/svg">
<line x1="302" y1="18" x2="20" y2="18" stroke="#101010" stroke-width="2"/>
<line y1="-1" x2="282" y2="-1" transform="matrix(-1 0 0 1 302 121)" stroke="#101010" stroke-width="2"/>
<line x1="6" y1="116" x2="6" y2="22" stroke="#101010" stroke-width="2"/>
<line x1="314" y1="116" x2="314" y2="22" stroke="#101010" stroke-width="2"/>
<path d="M23 16.5C23 18.6668 22.5344 20.8124 21.6298 22.8143C20.7252 24.8161 19.3994 26.6351 17.7279 28.1673C16.0565 29.6994 14.0722 30.9148 11.8883 31.744C9.70444 32.5732 7.36379 33 5 33L5 16.5L23 16.5Z" fill="#101010"/>
<path d="M23 121.5C23 118.939 22.5344 116.404 21.6298 114.038C20.7252 111.672 19.3994 109.522 17.7279 107.711C16.0565 105.901 14.0722 104.464 11.8883 103.484C9.70444 102.504 7.36379 102 5 102L5 121.5H23Z" fill="#101010"/>
<path d="M297 16.5C297 18.6668 297.466 20.8124 298.37 22.8143C299.275 24.8161 300.601 26.6351 302.272 28.1673C303.944 29.6994 305.928 30.9148 308.112 31.744C310.296 32.5732 312.636 33 315 33L315 16.5L297 16.5Z" fill="#101010"/>
<path d="M297 121.5C297 118.939 297.466 116.404 298.37 114.038C299.275 111.672 300.601 109.522 302.272 107.711C303.944 105.901 305.928 104.464 308.112 103.484C310.296 102.504 312.636 102 315 102L315 121.5H297Z" fill="#101010"/>
<path d="M38.2416 77.64C38.3216 75.7 37.4816 74.26 37.7816 72.58C37.9416 71.58 38.4616 71 39.4816 71C40.6216 71 42.2816 71.46 43.2416 71.46C44.4216 71.46 44.8016 70.98 45.7616 70.98C47.3016 70.98 47.8016 71.94 47.8616 73.36C47.9216 74.84 47.2016 75.96 47.5216 77.96C48.2616 82.54 48.7216 85 46.6416 85H45.5016C43.5816 85 44.1416 81.06 44.5816 79.2C44.9016 77.82 45.9416 74.24 43.0416 74.3C40.5416 74.36 40.8616 76.22 41.3416 78.94C41.9216 82.18 42.5216 85 40.0416 85H38.9416C36.4616 85 38.1216 80.06 38.2416 77.64ZM53.9284 75.04C53.6684 74.88 53.3884 74.82 53.0884 74.82C52.2684 74.82 51.4284 75.38 51.0684 76.26C50.8284 76.82 50.7284 78.24 51.6684 78.78C52.0484 79 52.3684 79.08 52.6684 79.08C53.3284 79.08 53.7884 78.7 54.1484 78.7C54.2884 78.7 54.4084 78.76 54.5284 78.92C54.7884 79.3 54.4484 79.6 53.3084 80.78C52.1484 82 53.6484 83.16 54.8684 83.16C55.1084 83.16 55.3284 83.12 55.5284 83.02C57.2484 82.16 55.9284 79.64 56.5884 79.2C56.6884 79.12 56.7684 79.1 56.8484 79.1C57.1484 79.1 57.3884 79.58 58.1484 80.22C58.4884 80.52 58.8084 80.64 59.0884 80.64C60.3084 80.64 60.8884 78.46 59.4284 78.2C57.9484 77.94 57.4284 78.12 57.3684 77.58C57.3284 76.98 59.5284 76.14 59.3484 74.78C59.2684 74.22 58.7084 73.46 57.8484 73.46C57.6084 73.46 57.3484 73.52 57.0684 73.66C55.2284 74.62 57.1884 77.18 55.7284 77.18C55.0084 77.18 55.2084 75.84 53.9284 75.04ZM55.8684 85.2C53.4684 85.2 51.2484 84.18 49.9284 82.12C48.2284 79.52 48.7484 75.76 50.8884 73.04C52.0084 71.64 53.9084 70.8 55.8284 70.8C58.8884 70.8 61.9884 72.9 62.0084 78.1C62.0284 84.06 58.7684 85.2 55.8684 85.2ZM72.2155 78.5C72.6555 75.66 72.5755 74.2 70.5355 74.2C68.2155 74.2 67.7555 76.3 68.0155 78.62C68.2955 81.22 69.7155 81.9 71.0955 81.9C71.5155 81.9 71.9555 81.84 72.3355 81.74C72.3355 81.32 71.9555 80.16 72.2155 78.5ZM66.2555 85.18C65.8555 85.8 67.4755 86.04 67.5755 87.08C67.6555 87.84 67.2355 88.34 66.7355 88.56C66.4755 88.68 66.1355 88.74 65.7955 88.74C65.2955 88.74 64.7355 88.6 64.3355 88.26C62.8555 87 62.4955 83.44 63.2155 82.5C63.4755 82.16 63.8155 82.08 64.1955 82.08C64.6955 82.08 65.2155 82.24 65.6355 82.24C65.8555 82.24 66.0555 82.18 66.1755 82.02C67.2755 80.48 64.7155 78.66 65.0155 75.72C65.3155 72.74 67.9755 70.84 70.8355 70.84C73.0555 70.84 75.5355 71.84 75.7155 73.64C75.8755 75.2 74.9355 77.3 74.8355 78.6C74.7555 79.56 74.5555 82.16 75.6155 82.16C75.8555 82.16 76.1355 82.04 76.5155 81.74C76.7755 81.54 77.0355 81.46 77.2555 81.46C77.4355 81.46 77.5755 81.5 77.6755 81.56C79.3755 82.48 77.9755 86.76 76.2955 88.18C75.8555 88.54 75.2355 88.76 74.6755 88.76C74.1955 88.76 73.7755 88.62 73.5355 88.3C72.8155 87.36 73.5555 86.68 74.1955 85.88C74.6155 85.34 74.6555 84.66 73.6755 84.66C73.2955 84.66 72.7955 84.76 72.0955 85C71.6755 85.14 71.2355 85.28 70.6555 85.28C70.2755 85.28 69.8555 85.22 69.3355 85.1C68.5955 84.92 67.9555 84.86 67.4755 84.86C66.7955 84.86 66.3755 85 66.2555 85.18ZM79.9213 77.64C80.0013 75.7 79.1613 74.26 79.4613 72.58C79.6213 71.58 80.1413 71 81.1613 71C82.3013 71 83.9613 71.46 84.9213 71.46C86.1013 71.46 86.4813 70.98 87.4413 70.98C88.9813 70.98 89.4813 71.94 89.5413 73.36C89.6013 74.84 88.8813 75.96 89.2013 77.96C89.9413 82.54 90.4013 85 88.3213 85H87.1813C85.2613 85 85.8213 81.06 86.2613 79.2C86.5813 77.82 87.6213 74.24 84.7213 74.3C82.2213 74.36 82.5413 76.22 83.0213 78.94C83.6013 82.18 84.2013 85 81.7213 85H80.6213C78.1413 85 79.8013 80.06 79.9213 77.64ZM90.648 73.08C90.648 71.86 91.508 71 92.768 71C94.508 71 95.448 72.78 95.448 75.54C95.448 76.74 95.048 77.92 94.548 79.42C94.508 79.54 94.468 79.64 94.468 79.72C94.468 79.82 94.528 79.88 94.668 79.88C94.868 79.88 95.148 79.76 95.488 79.54C96.808 78.66 97.668 77.14 97.668 75.7C97.668 75.06 97.508 74.3 97.508 73.46C97.508 71.72 98.208 70.84 99.608 70.84C100.948 70.84 101.948 71.6 101.948 72.7C101.948 74.06 100.748 74.9 100.748 76.64C100.748 78.72 102.388 81.44 102.388 83.68C102.388 84.58 102.068 85 101.408 85H98.948C98.488 85 98.288 84.74 98.288 84.2C98.288 83.18 99.028 82.14 99.028 81.12C99.028 80.62 98.848 80.34 98.548 80.34C97.388 80.34 94.848 85 92.688 85C91.568 85 90.668 85.1 90.668 83.78C90.668 81.86 92.288 79.4 92.288 77.32C92.288 75.22 90.648 75.04 90.648 73.08ZM111.967 75C111.067 74.48 110.807 73.54 109.187 73.54C107.167 73.54 106.547 75.92 106.447 77.54C106.287 79.94 107.187 82.06 108.927 82.06C109.307 82.06 109.707 81.96 110.167 81.74C111.207 81.24 111.167 80.58 111.747 80C112.007 79.72 112.407 79.58 112.847 79.58C113.247 79.58 113.667 79.72 113.987 79.98C115.087 80.9 114.727 83.2 112.387 84.46C111.487 84.98 110.367 85.22 109.327 85.22C109.107 85.22 108.887 85.2 108.687 85.18C105.027 84.78 102.807 81.14 103.147 77.54C103.507 73.94 105.647 70.74 109.567 70.74C111.007 70.74 112.287 71.16 112.987 71.7C113.847 72.38 114.547 73.84 113.727 74.74C113.427 75.08 113.107 75.24 112.747 75.24C112.487 75.24 112.227 75.16 111.967 75ZM118.272 79.76C117.872 81.34 117.992 82.66 120.332 82.94C121.992 83.14 123.372 82.28 123.092 80.86C122.852 79.72 121.872 79.36 120.732 79.36C119.912 79.36 119.012 79.54 118.272 79.76ZM115.952 80.16C116.032 78.26 115.712 76.58 115.532 74.68C115.352 72.86 115.772 70.8 117.872 70.8C118.812 70.8 119.752 71.5 119.752 72.5C119.752 74.4 118.272 74.88 118.452 76.6C118.512 77.04 118.812 77.16 119.272 77.16C119.872 77.16 120.712 76.94 121.492 76.94C124.192 76.94 125.792 78.92 125.792 81.08C125.792 83.1 124.132 85 122.372 85H117.032C114.692 85 115.912 81.16 115.952 80.16ZM129.386 75.58C129.546 76.36 129.086 77.3 128.066 77.3C127.906 77.3 127.746 77.28 127.566 77.24C126.606 77 126.346 75.74 126.826 75.04C127.086 74.66 127.546 74.48 128.006 74.48C128.606 74.48 129.246 74.84 129.386 75.58ZM129.386 83.28C129.546 84.06 129.086 85 128.066 85C127.906 85 127.746 84.98 127.566 84.94C126.606 84.68 126.346 83.44 126.826 82.74C127.086 82.36 127.546 82.18 128.006 82.18C128.606 82.18 129.246 82.54 129.386 83.28Z" fill="#101010"/>
</svg>
