<svg width="325" height="248" viewBox="0 0 325 248" fill="none" xmlns="http://www.w3.org/2000/svg">
<rect width="325" height="248" fill="#FFAB4C"/>
<path d="M325 0H0V51.0151C2.16667 58.1839 -1 83.0246 13 83.0246C30.5 83.0246 25.8094 20.5445 44.5 28.0083C63.1906 35.4721 44.5 82.5244 66.5 83.0246C84.1 83.4247 83 51.0151 86 30.5C86 15.5 112.7 21.0062 109.5 51.0151C105.5 88.5262 138.491 84.3145 144 83.0246C174 76 136 57.517 151 37.011C163 20.6061 175 39.5117 179.5 51.0151C187.333 64.8525 198.5 79.5 217.5 83.0246C232.819 85.8664 259.993 66.5 238.5 37.011C221 13 261.6 20.206 278 51.0151C294.4 81.8242 315.833 72.336 325 63.5V0Z" fill="#E900FF"/>
</svg>
