<svg width="842" height="367" viewBox="0 0 842 367" fill="none" xmlns="http://www.w3.org/2000/svg">
<rect width="842" height="367" fill="#FFAB4C"/>
<path d="M842 0H0V214C0 181.025 9.65158 110.23 48.2579 90.8491C86.8642 71.4679 93.8348 111.038 92.4943 133.245C93.1646 154.107 111.797 193.811 180.967 185.736C267.429 175.642 132.709 133.245 239.279 90.8491C324.534 56.9321 365.956 104.981 376.01 133.245C385.896 150.742 416.124 187.755 457.947 195.83C499.771 203.906 535.696 165.547 548.431 145.358C575.911 102.962 643.74 37.5509 695.216 115.075C746.691 192.6 814.52 159.491 842 133.245V0Z" fill="#E900FF"/>
</svg>
