<svg width="842" height="860" viewBox="0 0 842 860" fill="none" xmlns="http://www.w3.org/2000/svg">
<rect y="493" width="842" height="367" fill="#FFAB4C"/>
<path d="M842 493H0V707C0 674.025 9.65158 603.23 48.2579 583.849C86.8642 564.468 93.8348 604.038 92.4943 626.245C93.1646 647.107 111.797 686.811 180.967 678.736C267.429 668.642 132.709 626.245 239.279 583.849C324.534 549.932 365.956 597.981 376.01 626.245C385.896 643.742 416.124 680.755 457.947 688.83C499.771 696.906 535.696 658.547 548.431 638.358C575.911 595.962 643.74 530.551 695.216 608.075C746.691 685.6 814.52 652.491 842 626.245V493Z" fill="#E900FF"/>
<rect x="140" y="248" width="562" height="245" fill="#FFAB4C"/>
<path d="M702 248H140V358.5C155 364 166.4 260.9 178 310.5C189.6 360.1 217.5 354.833 230 346C251.5 331.5 268.5 264 282 319C295.654 374.629 349.038 357.165 366 319C394 256 388 336 415.5 358C443 380 462.5 343 473 310.5C480.72 286.606 514 258.5 513 297C512.2 327.8 556.333 345.833 574 346C611.5 346.354 611.4 265 629 297C646.6 329 685 336.333 702 336V248Z" fill="#E900FF"/>
<rect x="258" width="325" height="248" fill="#FFAB4C"/>
<path d="M583 0H258V51.0151C260.167 58.1839 257 83.0246 271 83.0246C288.5 83.0246 283.809 20.5445 302.5 28.0083C321.191 35.4721 302.5 82.5244 324.5 83.0246C342.1 83.4247 341 51.0151 344 30.5C344 15.5 370.7 21.0062 367.5 51.0151C363.5 88.5262 396.491 84.3145 402 83.0246C432 76 394 57.517 409 37.011C421 20.6061 433 39.5117 437.5 51.0151C445.333 64.8525 456.5 79.5 475.5 83.0246C490.819 85.8664 517.993 66.5 496.5 37.011C479 13 519.6 20.206 536 51.0151C552.4 81.8242 573.833 72.336 583 63.5V0Z" fill="#E900FF"/>
</svg>
