<svg width="562" height="245" viewBox="0 0 562 245" fill="none" xmlns="http://www.w3.org/2000/svg">
<rect width="562" height="245" fill="#FFAB4C"/>
<path d="M562 -0.000244141H0V110.5C15 116 26.4 12.8999 38 62.4999C49.6 112.1 77.5 106.833 90 97.9999C111.5 83.4998 128.5 15.9999 142 70.9999C155.654 126.629 209.038 109.165 226 70.9999C254 7.99994 248 87.9999 275.5 110C303 132 322.5 94.9998 333 62.4999C340.72 38.6062 374 10.4999 373 48.9999C372.2 79.7999 416.333 97.8333 434 97.9999C471.5 98.3537 471.4 16.9999 489 48.9999C506.6 80.9999 545 88.3333 562 87.9999V-0.000244141Z" fill="#E900FF"/>
</svg>
