<svg width="511" height="640" viewBox="0 0 511 640" fill="none" xmlns="http://www.w3.org/2000/svg">
<path d="M130.344 574.5C130.344 566.686 128.658 558.949 125.383 551.73C122.108 544.511 117.307 537.952 111.255 532.427C105.204 526.902 98.0191 522.519 90.1121 519.529C82.2051 516.539 73.7304 515 65.1719 515L65.1719 574.5H130.344Z" fill="#101010"/>
<path d="M130.344 65.1719C130.344 72.9855 128.658 80.7227 125.383 87.9415C122.108 95.1604 117.307 101.72 111.255 107.245C105.204 112.77 98.0191 117.153 90.1121 120.143C82.2051 123.133 73.7304 124.672 65.1719 124.672L65.1719 65.1719L130.344 65.1719Z" fill="#101010"/>
<path d="M451.5 509.328C443.686 509.328 435.949 511.014 428.73 514.289C421.511 517.564 414.952 522.365 409.427 528.416C403.902 534.468 399.519 541.653 396.529 549.56C393.539 557.467 392 565.941 392 574.5L451.5 574.5L451.5 509.328Z" fill="#101010"/>
<path d="M451.5 130.344C443.686 130.344 435.949 128.658 428.73 125.383C421.511 122.108 414.952 117.307 409.427 111.255C403.902 105.204 399.519 98.0191 396.529 90.1121C393.539 82.2051 392 73.7304 392 65.1719L451.5 65.1719L451.5 130.344Z" fill="#101010"/>
<line x1="449" y1="104" x2="449" y2="525" stroke="#101010" stroke-width="4"/>
<line x1="67" y1="104" x2="67" y2="525" stroke="#101010" stroke-width="4"/>
<line x1="402" y1="572" x2="118" y2="572" stroke="#101010" stroke-width="4"/>
<line x1="402" y1="67" x2="118" y2="67" stroke="#101010" stroke-width="4"/>
<line x1="402" y1="239" x2="118" y2="239" stroke="#101010" stroke-width="4"/>
<line x1="402" y1="292" x2="118" y2="292" stroke="#101010" stroke-width="4"/>
<line x1="402" y1="348" x2="118" y2="348" stroke="#101010" stroke-width="4"/>
<line x1="402" y1="445" x2="257" y2="445" stroke="#101010" stroke-width="4"/>
<path d="M175.492 324.696C175.492 323.232 176.524 322.2 178.036 322.2C180.124 322.2 181.252 324.336 181.252 327.648C181.252 329.088 180.772 330.504 180.172 332.304C180.124 332.448 180.076 332.568 180.076 332.664C180.076 332.784 180.148 332.856 180.316 332.856C180.556 332.856 180.892 332.712 181.3 332.448C182.884 331.392 183.916 329.568 183.916 327.84C183.916 327.072 183.724 326.16 183.724 325.152C183.724 323.064 184.564 322.008 186.244 322.008C187.852 322.008 189.052 322.92 189.052 324.24C189.052 325.872 187.612 326.88 187.612 328.968C187.612 331.464 189.58 334.728 189.58 337.416C189.58 338.496 189.196 339 188.404 339H185.452C184.9 339 184.66 338.688 184.66 338.04C184.66 336.816 185.548 335.568 185.548 334.344C185.548 333.744 185.332 333.408 184.972 333.408C183.58 333.408 180.532 339 177.94 339C176.596 339 175.516 339.12 175.516 337.536C175.516 335.232 177.46 332.28 177.46 329.784C177.46 327.264 175.492 327.048 175.492 324.696ZM200.325 332.616C199.845 334.512 199.989 336.096 202.797 336.432C204.789 336.672 206.445 335.64 206.109 333.936C205.821 332.568 204.645 332.136 203.277 332.136C202.293 332.136 201.213 332.352 200.325 332.616ZM200.253 329.568C203.613 329.136 204.189 328.152 204.141 326.712C204.117 325.584 203.037 324.672 201.885 324.672C201.381 324.672 200.853 324.864 200.421 325.296C199.197 326.52 199.845 328.008 200.253 329.568ZM197.037 327.552C196.773 325.056 196.869 323.688 198.453 322.704C199.245 322.2 200.397 321.96 201.597 321.96C203.637 321.96 205.821 322.656 206.685 323.928C207.765 325.536 207.501 327.528 206.157 329.328C205.917 329.664 205.605 329.976 205.269 330.24C207.285 330.48 209.301 331.536 209.709 334.296C210.069 336.768 208.125 339 205.989 339H198.429C196.029 339 197.661 333.696 197.037 327.552ZM222.574 325.656C222.526 326.304 222.262 326.736 221.926 326.952C221.686 327.072 221.374 327.168 221.038 327.168C220.75 327.168 220.462 327.12 220.174 327C219.142 326.568 218.686 325.272 217.078 325.272C215.734 325.272 215.134 325.968 215.158 327C215.23 328.584 217.294 328.944 218.542 328.944C219.862 328.944 220.078 329.808 220.054 330.432C220.006 331.272 219.55 332.04 218.326 332.04C218.158 332.04 217.966 332.016 217.774 331.992C217.414 331.944 217.054 331.896 216.742 331.896C215.326 331.896 214.438 332.496 214.51 333.744C214.582 334.92 215.374 335.88 216.982 335.88C219.142 335.88 218.47 334.344 220.438 333.912C220.606 333.864 220.774 333.864 220.918 333.864C222.238 333.864 222.982 335.16 222.934 336.12C222.838 337.68 220.39 339.192 217.318 339.24C217.27 339.24 217.198 339.24 217.15 339.24C213.574 339.24 211.03 337.752 210.718 334.848C210.478 332.76 211.462 330.528 214.006 329.736C212.374 328.944 211.486 327.744 211.366 326.232C211.174 323.76 212.902 321.912 216.19 321.912C219.118 321.912 222.718 323.448 222.574 325.656ZM234.426 327C233.346 326.376 233.034 325.248 231.09 325.248C228.666 325.248 227.922 328.104 227.802 330.048C227.61 332.928 228.69 335.472 230.778 335.472C231.234 335.472 231.714 335.352 232.266 335.088C233.514 334.488 233.466 333.696 234.162 333C234.474 332.664 234.954 332.496 235.482 332.496C235.962 332.496 236.466 332.664 236.85 332.976C238.17 334.08 237.738 336.84 234.93 338.352C233.85 338.976 232.506 339.264 231.258 339.264C230.994 339.264 230.73 339.24 230.49 339.216C226.098 338.736 223.434 334.368 223.842 330.048C224.274 325.728 226.842 321.888 231.546 321.888C233.274 321.888 234.81 322.392 235.65 323.04C236.682 323.856 237.522 325.608 236.538 326.688C236.178 327.096 235.794 327.288 235.362 327.288C235.05 327.288 234.738 327.192 234.426 327ZM250.512 325.656C250.464 326.304 250.2 326.736 249.864 326.952C249.624 327.072 249.312 327.168 248.976 327.168C248.688 327.168 248.4 327.12 248.112 327C247.08 326.568 246.624 325.272 245.016 325.272C243.672 325.272 243.072 325.968 243.096 327C243.168 328.584 245.232 328.944 246.48 328.944C247.8 328.944 248.016 329.808 247.992 330.432C247.944 331.272 247.488 332.04 246.264 332.04C246.096 332.04 245.904 332.016 245.712 331.992C245.352 331.944 244.992 331.896 244.68 331.896C243.264 331.896 242.376 332.496 242.448 333.744C242.52 334.92 243.312 335.88 244.92 335.88C247.08 335.88 246.408 334.344 248.376 333.912C248.544 333.864 248.712 333.864 248.856 333.864C250.176 333.864 250.92 335.16 250.872 336.12C250.776 337.68 248.328 339.192 245.256 339.24C245.208 339.24 245.136 339.24 245.088 339.24C241.512 339.24 238.968 337.752 238.656 334.848C238.416 332.76 239.4 330.528 241.944 329.736C240.312 328.944 239.424 327.744 239.304 326.232C239.112 323.76 240.84 321.912 244.128 321.912C247.056 321.912 250.656 323.448 250.512 325.656ZM253.964 324.744C254.9 322.992 257.108 321.96 259.244 321.96C260.972 321.96 262.676 322.656 263.636 324.24C264.428 325.584 264.164 328.44 264.14 331.992C264.116 335.664 265.388 339 262.892 339H261.068C257.3 339 259.748 332.208 260.516 330.408C261.308 328.536 261.548 326.184 259.508 326.112C259.484 326.112 259.436 326.112 259.412 326.112C258.044 326.112 257.132 327.072 257.132 330.072C257.132 332.04 257.876 339 255.068 339H252.764C251.588 339 251.372 337.512 252.092 335.544C252.692 333.888 253.052 333.024 253.268 332.424C254.348 329.448 252.572 327.432 253.964 324.744ZM265.421 324.696C265.421 323.232 266.453 322.2 267.965 322.2C270.053 322.2 271.181 324.336 271.181 327.648C271.181 329.088 270.701 330.504 270.101 332.304C270.053 332.448 270.005 332.568 270.005 332.664C270.005 332.784 270.077 332.856 270.245 332.856C270.485 332.856 270.821 332.712 271.229 332.448C272.813 331.392 273.845 329.568 273.845 327.84C273.845 327.072 273.653 326.16 273.653 325.152C273.653 323.064 274.493 322.008 276.173 322.008C277.781 322.008 278.981 322.92 278.981 324.24C278.981 325.872 277.541 326.88 277.541 328.968C277.541 331.464 279.509 334.728 279.509 337.416C279.509 338.496 279.125 339 278.333 339H275.381C274.829 339 274.589 338.688 274.589 338.04C274.589 336.816 275.477 335.568 275.477 334.344C275.477 333.744 275.261 333.408 274.901 333.408C273.509 333.408 270.461 339 267.869 339C266.525 339 265.445 339.12 265.445 337.536C265.445 335.232 267.389 332.28 267.389 329.784C267.389 327.264 265.421 327.048 265.421 324.696ZM284.332 339H281.812C279.7 339 281.476 334.104 281.476 331.584C281.476 329.16 280.468 327.36 280.612 325.416C280.732 323.472 281.908 322.2 283.636 322.2C284.692 322.2 287.116 322.704 288.412 322.704C289.66 322.704 291.7 322.2 293.02 322.2C294.052 322.2 295.492 322.392 296.188 322.824C298.852 324.456 297.028 330.12 297.028 332.856C297.028 334.2 297.436 335.808 297.436 337.176C297.436 338.016 297.292 339 296.332 339H294.124C292.996 339 292.828 337.968 292.828 336.96C292.828 335.736 293.404 332.616 293.788 330.528C294.364 327.504 293.956 325.872 292.54 325.8C292.516 325.8 292.468 325.8 292.444 325.8C291.22 325.8 290.596 327.048 290.692 329.16C290.86 332.76 292.708 338.976 289.612 338.976H288.076C286.54 338.976 287.716 336.648 287.596 334.584C287.5 333.288 287.068 331.656 287.62 328.632C287.908 326.88 287.548 325.992 286.66 325.704C286.468 325.632 286.252 325.608 286.06 325.608C285.148 325.608 284.356 326.304 284.332 327.888C284.308 329.448 286.996 339 284.332 339ZM301.992 332.712C301.512 334.608 301.656 336.192 304.464 336.528C306.456 336.768 308.112 335.736 307.776 334.032C307.488 332.664 306.312 332.232 304.944 332.232C303.96 332.232 302.88 332.448 301.992 332.712ZM299.208 333.192C299.304 330.912 298.92 328.896 298.704 326.616C298.488 324.432 298.992 321.96 301.512 321.96C302.64 321.96 303.768 322.8 303.768 324C303.768 326.28 301.992 326.856 302.208 328.92C302.28 329.448 302.64 329.592 303.192 329.592C303.912 329.592 304.92 329.328 305.856 329.328C309.096 329.328 311.016 331.704 311.016 334.296C311.016 336.72 309.024 339 306.912 339H300.504C297.696 339 299.16 334.392 299.208 333.192ZM322.504 327C321.424 326.376 321.112 325.248 319.168 325.248C316.744 325.248 316 328.104 315.88 330.048C315.688 332.928 316.768 335.472 318.856 335.472C319.312 335.472 319.792 335.352 320.344 335.088C321.592 334.488 321.544 333.696 322.24 333C322.552 332.664 323.032 332.496 323.56 332.496C324.04 332.496 324.544 332.664 324.928 332.976C326.248 334.08 325.816 336.84 323.008 338.352C321.928 338.976 320.584 339.264 319.336 339.264C319.072 339.264 318.808 339.24 318.568 339.216C314.176 338.736 311.512 334.368 311.92 330.048C312.352 325.728 314.92 321.888 319.624 321.888C321.352 321.888 322.888 322.392 323.728 323.04C324.76 323.856 325.6 325.608 324.616 326.688C324.256 327.096 323.872 327.288 323.44 327.288C323.128 327.288 322.816 327.192 322.504 327ZM336.19 327.12C336.238 325.512 335.518 324.792 333.934 324.792C332.326 324.792 330.982 325.464 331.078 327.144C331.198 328.872 332.638 329.28 334.126 329.28C334.774 329.28 335.398 329.208 335.95 329.136C336.022 328.872 336.166 327.912 336.19 327.12ZM338.494 339.144H335.566C333.766 339.144 334.582 337.008 335.182 335.016C335.566 333.768 335.086 333.216 334.342 333.216C333.67 333.216 332.782 333.696 332.158 334.56C330.622 336.696 332.422 339.144 330.478 339.144H328.102C326.47 339.144 326.302 335.376 327.67 333.528C328.942 331.8 330.598 331.272 332.494 331.08C328.942 331.032 326.518 327.792 328.03 324.648C329.134 322.344 332.23 321.864 334.582 321.984C336.694 322.104 339.238 322.008 339.118 323.808C338.854 327.72 338.902 329.064 338.902 330.24C338.926 335.184 340.702 339.144 338.494 339.144Z" fill="#101010"/>
<path d="M119.69 437.168C119.786 434.84 118.778 433.112 119.138 431.096C119.33 429.896 119.954 429.2 121.178 429.2C122.546 429.2 124.538 429.752 125.69 429.752C127.106 429.752 127.562 429.176 128.714 429.176C130.562 429.176 131.162 430.328 131.234 432.032C131.306 433.808 130.442 435.152 130.826 437.552C131.714 443.048 132.266 446 129.77 446H128.402C126.098 446 126.77 441.272 127.298 439.04C127.682 437.384 128.93 433.088 125.45 433.16C122.45 433.232 122.834 435.464 123.41 438.728C124.106 442.616 124.826 446 121.85 446H120.53C117.554 446 119.546 440.072 119.69 437.168ZM138.514 434.048C138.202 433.856 137.866 433.784 137.506 433.784C136.522 433.784 135.514 434.456 135.082 435.512C134.794 436.184 134.674 437.888 135.802 438.536C136.258 438.8 136.642 438.896 137.002 438.896C137.794 438.896 138.346 438.44 138.778 438.44C138.946 438.44 139.09 438.512 139.234 438.704C139.546 439.16 139.138 439.52 137.77 440.936C136.378 442.4 138.178 443.792 139.642 443.792C139.93 443.792 140.194 443.744 140.434 443.624C142.498 442.592 140.914 439.568 141.706 439.04C141.826 438.944 141.922 438.92 142.018 438.92C142.378 438.92 142.666 439.496 143.578 440.264C143.986 440.624 144.37 440.768 144.706 440.768C146.17 440.768 146.866 438.152 145.114 437.84C143.338 437.528 142.714 437.744 142.642 437.096C142.594 436.376 145.234 435.368 145.018 433.736C144.922 433.064 144.25 432.152 143.218 432.152C142.93 432.152 142.618 432.224 142.282 432.392C140.074 433.544 142.426 436.616 140.674 436.616C139.81 436.616 140.05 435.008 138.514 434.048ZM140.842 446.24C137.962 446.24 135.298 445.016 133.714 442.544C131.674 439.424 132.298 434.912 134.866 431.648C136.21 429.968 138.49 428.96 140.794 428.96C144.466 428.96 148.186 431.48 148.21 437.72C148.234 444.872 144.322 446.24 140.842 446.24ZM160.459 438.2C160.987 434.792 160.891 433.04 158.443 433.04C155.659 433.04 155.107 435.56 155.419 438.344C155.755 441.464 157.459 442.28 159.115 442.28C159.619 442.28 160.147 442.208 160.603 442.088C160.603 441.584 160.147 440.192 160.459 438.2ZM153.307 446.216C152.827 446.96 154.771 447.248 154.891 448.496C154.987 449.408 154.483 450.008 153.883 450.272C153.571 450.416 153.163 450.488 152.755 450.488C152.155 450.488 151.483 450.32 151.003 449.912C149.227 448.4 148.795 444.128 149.659 443C149.971 442.592 150.379 442.496 150.835 442.496C151.435 442.496 152.059 442.688 152.563 442.688C152.827 442.688 153.067 442.616 153.211 442.424C154.531 440.576 151.459 438.392 151.819 434.864C152.179 431.288 155.371 429.008 158.803 429.008C161.467 429.008 164.443 430.208 164.659 432.368C164.851 434.24 163.723 436.76 163.603 438.32C163.507 439.472 163.267 442.592 164.539 442.592C164.827 442.592 165.163 442.448 165.619 442.088C165.931 441.848 166.243 441.752 166.507 441.752C166.723 441.752 166.891 441.8 167.011 441.872C169.051 442.976 167.371 448.112 165.355 449.816C164.827 450.248 164.083 450.512 163.411 450.512C162.835 450.512 162.331 450.344 162.043 449.96C161.179 448.832 162.067 448.016 162.835 447.056C163.339 446.408 163.387 445.592 162.211 445.592C161.755 445.592 161.155 445.712 160.315 446C159.811 446.168 159.283 446.336 158.587 446.336C158.131 446.336 157.627 446.264 157.003 446.12C156.115 445.904 155.347 445.832 154.771 445.832C153.955 445.832 153.451 446 153.307 446.216ZM169.706 437.168C169.802 434.84 168.794 433.112 169.154 431.096C169.346 429.896 169.97 429.2 171.194 429.2C172.562 429.2 174.554 429.752 175.706 429.752C177.122 429.752 177.578 429.176 178.73 429.176C180.578 429.176 181.178 430.328 181.25 432.032C181.322 433.808 180.458 435.152 180.842 437.552C181.73 443.048 182.282 446 179.786 446H178.418C176.114 446 176.786 441.272 177.314 439.04C177.698 437.384 178.946 433.088 175.466 433.16C172.466 433.232 172.85 435.464 173.426 438.728C174.122 442.616 174.842 446 171.866 446H170.546C167.57 446 169.562 440.072 169.706 437.168ZM182.578 431.696C182.578 430.232 183.61 429.2 185.122 429.2C187.21 429.2 188.338 431.336 188.338 434.648C188.338 436.088 187.858 437.504 187.258 439.304C187.21 439.448 187.162 439.568 187.162 439.664C187.162 439.784 187.234 439.856 187.402 439.856C187.642 439.856 187.978 439.712 188.386 439.448C189.97 438.392 191.002 436.568 191.002 434.84C191.002 434.072 190.81 433.16 190.81 432.152C190.81 430.064 191.65 429.008 193.33 429.008C194.938 429.008 196.138 429.92 196.138 431.24C196.138 432.872 194.698 433.88 194.698 435.968C194.698 438.464 196.666 441.728 196.666 444.416C196.666 445.496 196.282 446 195.49 446H192.538C191.986 446 191.746 445.688 191.746 445.04C191.746 443.816 192.634 442.568 192.634 441.344C192.634 440.744 192.418 440.408 192.058 440.408C190.666 440.408 187.618 446 185.026 446C183.682 446 182.602 446.12 182.602 444.536C182.602 442.232 184.546 439.28 184.546 436.784C184.546 434.264 182.578 434.048 182.578 431.696ZM208.161 434C207.081 433.376 206.769 432.248 204.825 432.248C202.401 432.248 201.657 435.104 201.537 437.048C201.345 439.928 202.425 442.472 204.513 442.472C204.969 442.472 205.449 442.352 206.001 442.088C207.249 441.488 207.201 440.696 207.897 440C208.209 439.664 208.689 439.496 209.217 439.496C209.697 439.496 210.201 439.664 210.585 439.976C211.905 441.08 211.473 443.84 208.665 445.352C207.585 445.976 206.241 446.264 204.993 446.264C204.729 446.264 204.465 446.24 204.225 446.216C199.833 445.736 197.169 441.368 197.577 437.048C198.009 432.728 200.577 428.888 205.281 428.888C207.009 428.888 208.545 429.392 209.385 430.04C210.417 430.856 211.257 432.608 210.273 433.688C209.913 434.096 209.529 434.288 209.097 434.288C208.785 434.288 208.473 434.192 208.161 434ZM215.726 439.712C215.246 441.608 215.39 443.192 218.198 443.528C220.19 443.768 221.846 442.736 221.51 441.032C221.222 439.664 220.046 439.232 218.678 439.232C217.694 439.232 216.614 439.448 215.726 439.712ZM212.942 440.192C213.038 437.912 212.654 435.896 212.438 433.616C212.222 431.432 212.726 428.96 215.246 428.96C216.374 428.96 217.502 429.8 217.502 431C217.502 433.28 215.726 433.856 215.942 435.92C216.014 436.448 216.374 436.592 216.926 436.592C217.646 436.592 218.654 436.328 219.59 436.328C222.83 436.328 224.75 438.704 224.75 441.296C224.75 443.72 222.758 446 220.646 446H214.238C211.43 446 212.894 441.392 212.942 440.192ZM229.063 434.696C229.255 435.632 228.703 436.76 227.479 436.76C227.287 436.76 227.095 436.736 226.879 436.688C225.727 436.4 225.415 434.888 225.991 434.048C226.303 433.592 226.855 433.376 227.407 433.376C228.127 433.376 228.895 433.808 229.063 434.696ZM229.063 443.936C229.255 444.872 228.703 446 227.479 446C227.287 446 227.095 445.976 226.879 445.928C225.727 445.616 225.415 444.128 225.991 443.288C226.303 442.832 226.855 442.616 227.407 442.616C228.127 442.616 228.895 443.048 229.063 443.936Z" fill="#101010"/>
<path d="M172.748 272.048C172.436 271.856 172.1 271.784 171.74 271.784C170.756 271.784 169.748 272.456 169.316 273.512C169.028 274.184 168.908 275.888 170.036 276.536C170.492 276.8 170.876 276.896 171.236 276.896C172.028 276.896 172.58 276.44 173.012 276.44C173.18 276.44 173.324 276.512 173.468 276.704C173.78 277.16 173.372 277.52 172.004 278.936C170.612 280.4 172.412 281.792 173.876 281.792C174.164 281.792 174.428 281.744 174.668 281.624C176.732 280.592 175.148 277.568 175.94 277.04C176.06 276.944 176.156 276.92 176.252 276.92C176.612 276.92 176.9 277.496 177.812 278.264C178.22 278.624 178.604 278.768 178.94 278.768C180.404 278.768 181.1 276.152 179.348 275.84C177.572 275.528 176.948 275.744 176.876 275.096C176.828 274.376 179.468 273.368 179.252 271.736C179.156 271.064 178.484 270.152 177.452 270.152C177.164 270.152 176.852 270.224 176.516 270.392C174.308 271.544 176.66 274.616 174.908 274.616C174.044 274.616 174.284 273.008 172.748 272.048ZM175.076 284.24C172.196 284.24 169.532 283.016 167.948 280.544C165.908 277.424 166.532 272.912 169.1 269.648C170.444 267.968 172.724 266.96 175.028 266.96C178.7 266.96 182.42 269.48 182.444 275.72C182.468 282.872 178.556 284.24 175.076 284.24ZM186.989 277.616C186.509 279.512 186.653 281.096 189.461 281.432C191.453 281.672 193.109 280.64 192.773 278.936C192.485 277.568 191.309 277.136 189.941 277.136C188.957 277.136 187.877 277.352 186.989 277.616ZM183.917 278.12C184.685 274.952 182.141 271.736 184.397 268.76C185.501 267.296 187.805 266.936 189.725 266.936C190.949 266.936 192.029 267.08 192.557 267.176C194.069 267.44 196.157 268.064 196.013 269.888C195.893 271.304 194.813 272.048 193.613 272.048C192.965 272.048 192.293 271.832 191.717 271.424C191.093 270.968 190.445 270.176 190.037 269.96C189.797 269.84 189.557 269.792 189.341 269.792C187.637 269.792 186.101 272.72 187.373 274.616C187.589 274.928 187.853 275.048 188.189 275.048C188.813 275.048 189.677 274.64 190.781 274.64C194.021 274.64 196.205 276.608 196.205 279.2C196.205 281.624 194.117 284 192.005 284H186.149C183.341 284 183.629 279.272 183.917 278.12ZM209.027 270.656C208.979 271.304 208.715 271.736 208.379 271.952C208.139 272.072 207.827 272.168 207.491 272.168C207.203 272.168 206.915 272.12 206.627 272C205.595 271.568 205.139 270.272 203.531 270.272C202.187 270.272 201.587 270.968 201.611 272C201.683 273.584 203.747 273.944 204.995 273.944C206.315 273.944 206.531 274.808 206.507 275.432C206.459 276.272 206.003 277.04 204.779 277.04C204.611 277.04 204.419 277.016 204.227 276.992C203.867 276.944 203.507 276.896 203.195 276.896C201.779 276.896 200.891 277.496 200.963 278.744C201.035 279.92 201.827 280.88 203.435 280.88C205.595 280.88 204.923 279.344 206.891 278.912C207.059 278.864 207.227 278.864 207.371 278.864C208.691 278.864 209.435 280.16 209.387 281.12C209.291 282.68 206.843 284.192 203.771 284.24C203.723 284.24 203.651 284.24 203.603 284.24C200.027 284.24 197.483 282.752 197.171 279.848C196.931 277.76 197.915 275.528 200.459 274.736C198.827 273.944 197.939 272.744 197.819 271.232C197.627 268.76 199.355 266.912 202.643 266.912C205.571 266.912 209.171 268.448 209.027 270.656ZM230.095 279.872C232.063 281.072 230.359 285.992 228.415 287.792C227.887 288.272 227.167 288.512 226.519 288.512C225.943 288.512 225.391 288.32 225.103 287.936C224.479 287.12 224.599 285.968 225.847 285.008C226.687 284.36 227.503 283.112 227.023 283.112C226.927 283.112 226.783 283.16 226.567 283.28C225.583 283.832 225.079 283.976 223.951 283.976C222.655 283.976 220.255 283.496 219.151 283.496C217.831 283.496 215.647 284.024 214.255 284.024C213.535 284.024 212.527 283.832 211.903 283.472C209.215 281.936 211.591 276.248 211.591 273.8C211.591 272.168 210.967 271.424 210.655 269.624C210.487 268.592 210.631 267.2 212.599 267.2C215.623 267.2 215.503 271.976 214.735 274.928C214.447 276.008 213.439 280.04 215.287 280.448C215.431 280.472 215.575 280.496 215.695 280.496C217.255 280.496 217.543 278.408 217.279 276.056C217.111 274.52 216.391 271.304 216.871 269.072C217.039 268.232 217.615 267.2 218.935 267.2C220.351 267.2 220.975 268.208 220.807 269.336C220.519 271.112 220.231 272.456 220.495 273.68C220.855 275.432 220.879 276.032 220.735 278.792C220.687 279.92 221.407 280.616 222.151 280.616C222.775 280.616 223.423 280.064 223.519 278.816C223.687 276.248 222.583 274.208 222.655 270.368C222.679 268.64 223.183 267.2 225.199 267.2C226.735 267.2 227.407 268.448 226.879 270.032C225.751 273.296 227.575 276.008 227.215 278.744C227.191 278.984 227.095 279.512 227.167 279.848C227.215 280.088 227.311 280.208 227.407 280.28C227.839 280.52 228.559 279.68 229.423 279.68C229.639 279.68 229.855 279.728 230.095 279.872ZM238.408 270.92C239.976 270.92 241.136 271.264 241.888 271.952C242.64 272.64 243.016 273.736 243.016 275.24V284H241.48L241.072 282.176H240.976C240.608 282.64 240.224 283.032 239.824 283.352C239.44 283.656 238.992 283.88 238.48 284.024C237.984 284.168 237.376 284.24 236.656 284.24C235.888 284.24 235.192 284.104 234.568 283.832C233.96 283.56 233.48 283.144 233.128 282.584C232.776 282.008 232.6 281.288 232.6 280.424C232.6 279.144 233.104 278.16 234.112 277.472C235.12 276.768 236.672 276.384 238.768 276.32L240.952 276.248V275.48C240.952 274.408 240.72 273.664 240.256 273.248C239.792 272.832 239.136 272.624 238.288 272.624C237.616 272.624 236.976 272.728 236.368 272.936C235.76 273.128 235.192 273.352 234.664 273.608L234.016 272.024C234.576 271.72 235.24 271.464 236.008 271.256C236.776 271.032 237.576 270.92 238.408 270.92ZM239.032 277.784C237.432 277.848 236.32 278.104 235.696 278.552C235.088 279 234.784 279.632 234.784 280.448C234.784 281.168 235 281.696 235.432 282.032C235.88 282.368 236.448 282.536 237.136 282.536C238.224 282.536 239.128 282.24 239.848 281.648C240.568 281.04 240.928 280.112 240.928 278.864V277.712L239.032 277.784ZM261.893 272.504C262.301 271.16 261.197 269.528 259.613 269.744C256.301 270.2 257.981 273.632 258.341 274.952C258.365 275.048 258.293 275.096 258.149 275.096C257.789 275.096 257.021 274.88 256.253 274.88C255.989 274.88 255.701 274.904 255.461 274.976C253.301 275.624 253.781 277.904 254.573 278.96C255.293 279.92 256.325 280.352 257.189 280.352C258.725 280.352 259.277 279.008 259.277 277.664C259.301 277.28 259.445 277.088 259.685 277.088C259.805 277.088 259.973 277.16 260.141 277.256C260.957 277.76 261.725 279.272 263.045 279.272C263.189 279.272 263.357 279.248 263.525 279.2C264.461 278.96 265.589 276.584 264.461 275.312C264.005 274.808 263.525 274.64 263.069 274.64C262.301 274.64 261.581 275.096 261.125 275.144C259.973 275.264 261.629 273.464 261.893 272.504ZM259.781 284.024C257.045 284.024 254.549 282.968 253.085 280.544C252.341 279.32 252.701 279.92 251.957 278.288C251.861 278.048 251.549 277.952 251.189 277.952C250.661 277.952 250.037 278.168 249.821 278.384C250.253 280.568 251.837 284 249.365 284H246.797C243.653 284 247.037 280.712 246.365 275.024C246.005 272 245.645 271.376 245.813 269.48C246.005 267.512 247.709 266.984 248.573 266.984C249.821 266.984 251.309 267.872 251.045 270.008C250.757 272.288 249.077 272.456 249.533 275.288C249.557 275.456 249.773 275.528 250.085 275.528C250.733 275.528 251.789 275.12 251.981 274.112C252.461 271.568 253.277 270.224 254.549 268.976C255.773 267.776 257.717 266.984 259.685 266.984C263.093 266.984 266.549 269.312 266.573 275.72C266.597 282.8 263.021 284.024 259.781 284.024ZM274.581 275.168C274.677 272.84 273.669 271.112 274.029 269.096C274.221 267.896 274.845 267.2 276.069 267.2C277.437 267.2 279.429 267.752 280.581 267.752C281.997 267.752 282.453 267.176 283.605 267.176C285.453 267.176 286.053 268.328 286.125 270.032C286.197 271.808 285.333 273.152 285.717 275.552C286.605 281.048 287.157 284 284.661 284H283.293C280.989 284 281.661 279.272 282.189 277.04C282.573 275.384 283.821 271.088 280.341 271.16C277.341 271.232 277.725 273.464 278.301 276.728C278.997 280.616 279.717 284 276.741 284H275.421C272.445 284 274.437 278.072 274.581 275.168ZM290.909 272.984C290.837 273.92 291.077 275.072 291.293 275.36C292.013 275.504 292.853 275.624 293.669 275.624C295.205 275.624 296.621 275.144 296.813 273.2C297.005 271.232 295.445 270.248 293.573 270.248C291.701 270.248 291.005 271.04 290.909 272.984ZM288.029 273.2C288.029 271.976 287.645 270.704 287.837 269.552C288.149 267.8 289.997 266.936 293.405 266.936C297.773 266.936 300.173 268.784 300.173 272.264C300.173 275.504 298.205 278.552 295.229 278.552C293.453 278.552 292.085 278.048 291.677 278.048C291.389 278.048 291.245 278.192 291.245 278.84C291.245 280.544 292.997 282.128 292.997 283.304C292.997 283.784 292.757 284 292.229 284H288.605C287.549 284 287.573 282.056 287.573 281.456C287.573 278.672 288.029 275.96 288.029 273.2ZM300.835 269.696C300.835 268.232 301.867 267.2 303.379 267.2C305.467 267.2 306.595 269.336 306.595 272.648C306.595 274.088 306.115 275.504 305.515 277.304C305.467 277.448 305.419 277.568 305.419 277.664C305.419 277.784 305.491 277.856 305.659 277.856C305.899 277.856 306.235 277.712 306.643 277.448C308.227 276.392 309.259 274.568 309.259 272.84C309.259 272.072 309.067 271.16 309.067 270.152C309.067 268.064 309.907 267.008 311.587 267.008C313.195 267.008 314.395 267.92 314.395 269.24C314.395 270.872 312.955 271.88 312.955 273.968C312.955 276.464 314.923 279.728 314.923 282.416C314.923 283.496 314.539 284 313.747 284H310.795C310.243 284 310.003 283.688 310.003 283.04C310.003 281.816 310.891 280.568 310.891 279.344C310.891 278.744 310.675 278.408 310.315 278.408C308.923 278.408 305.875 284 303.283 284C301.939 284 300.859 284.12 300.859 282.536C300.859 280.232 302.803 277.28 302.803 274.784C302.803 272.264 300.835 272.048 300.835 269.696ZM315.882 269.696C315.882 268.232 316.914 267.2 318.426 267.2C320.514 267.2 321.642 269.336 321.642 272.648C321.642 274.088 321.162 275.504 320.562 277.304C320.514 277.448 320.466 277.568 320.466 277.664C320.466 277.784 320.538 277.856 320.706 277.856C320.946 277.856 321.282 277.712 321.69 277.448C323.274 276.392 324.306 274.568 324.306 272.84C324.306 272.072 324.114 271.16 324.114 270.152C324.114 268.064 324.954 267.008 326.634 267.008C328.242 267.008 329.442 267.92 329.442 269.24C329.442 270.872 328.002 271.88 328.002 273.968C328.002 276.464 329.97 279.728 329.97 282.416C329.97 283.496 329.586 284 328.794 284H325.842C325.29 284 325.05 283.688 325.05 283.04C325.05 281.816 325.938 280.568 325.938 279.344C325.938 278.744 325.722 278.408 325.362 278.408C323.97 278.408 320.922 284 318.33 284C316.986 284 315.906 284.12 315.906 282.536C315.906 280.232 317.85 277.28 317.85 274.784C317.85 272.264 315.882 272.048 315.882 269.696ZM320.25 264.584C320.154 263.456 321.018 262.952 322.026 262.952C322.914 262.952 323.898 263.36 324.33 264.056C325.026 265.208 323.97 266.696 323.034 267.08C322.842 267.152 322.674 267.2 322.482 267.2C321.33 267.2 320.322 265.688 320.25 264.584ZM334.793 284H332.273C330.161 284 331.937 279.104 331.937 276.584C331.937 274.16 330.929 272.36 331.073 270.416C331.193 268.472 332.369 267.2 334.097 267.2C335.153 267.2 337.577 267.704 338.873 267.704C340.121 267.704 342.161 267.2 343.481 267.2C344.513 267.2 345.953 267.392 346.649 267.824C349.313 269.456 347.489 275.12 347.489 277.856C347.489 279.2 347.897 280.808 347.897 282.176C347.897 283.016 347.753 284 346.793 284H344.585C343.457 284 343.289 282.968 343.289 281.96C343.289 280.736 343.865 277.616 344.249 275.528C344.825 272.504 344.417 270.872 343.001 270.8C342.977 270.8 342.929 270.8 342.905 270.8C341.681 270.8 341.057 272.048 341.153 274.16C341.321 277.76 343.169 283.976 340.073 283.976H338.537C337.001 283.976 338.177 281.648 338.057 279.584C337.961 278.288 337.529 276.656 338.081 273.632C338.369 271.88 338.009 270.992 337.121 270.704C336.929 270.632 336.713 270.608 336.521 270.608C335.609 270.608 334.817 271.304 334.793 272.888C334.769 274.448 337.457 284 334.793 284ZM349.117 269.696C349.117 268.232 350.149 267.2 351.661 267.2C353.749 267.2 354.877 269.336 354.877 272.648C354.877 274.088 354.397 275.504 353.797 277.304C353.749 277.448 353.701 277.568 353.701 277.664C353.701 277.784 353.773 277.856 353.941 277.856C354.181 277.856 354.517 277.712 354.925 277.448C356.509 276.392 357.541 274.568 357.541 272.84C357.541 272.072 357.349 271.16 357.349 270.152C357.349 268.064 358.189 267.008 359.869 267.008C361.477 267.008 362.677 267.92 362.677 269.24C362.677 270.872 361.237 271.88 361.237 273.968C361.237 276.464 363.205 279.728 363.205 282.416C363.205 283.496 362.821 284 362.029 284H359.077C358.525 284 358.285 283.688 358.285 283.04C358.285 281.816 359.173 280.568 359.173 279.344C359.173 278.744 358.957 278.408 358.597 278.408C357.205 278.408 354.157 284 351.565 284C350.221 284 349.141 284.12 349.141 282.536C349.141 280.232 351.085 277.28 351.085 274.784C351.085 272.264 349.117 272.048 349.117 269.696Z" fill="#101010"/>
<path d="M143.987 218.12C144.035 216.512 143.315 215.792 141.731 215.792C140.123 215.792 138.779 216.464 138.875 218.144C138.995 219.872 140.435 220.28 141.923 220.28C142.571 220.28 143.195 220.208 143.747 220.136C143.819 219.872 143.963 218.912 143.987 218.12ZM146.291 230.144H143.363C141.563 230.144 142.379 228.008 142.979 226.016C143.363 224.768 142.883 224.216 142.139 224.216C141.467 224.216 140.579 224.696 139.955 225.56C138.419 227.696 140.219 230.144 138.275 230.144H135.899C134.267 230.144 134.099 226.376 135.467 224.528C136.739 222.8 138.395 222.272 140.291 222.08C136.739 222.032 134.315 218.792 135.827 215.648C136.931 213.344 140.027 212.864 142.379 212.984C144.491 213.104 147.035 213.008 146.915 214.808C146.651 218.72 146.699 220.064 146.699 221.24C146.723 226.184 148.499 230.144 146.291 230.144ZM151.961 230.192C151.745 231.608 150.425 232.328 149.369 232.328C148.817 232.328 148.337 232.136 148.121 231.776C147.593 230.888 149.321 230.24 148.937 228.632C148.745 227.792 149.105 227.432 149.633 227.432C150.617 227.432 152.201 228.632 151.961 230.192ZM162.598 223.616C162.118 225.512 162.262 227.096 165.07 227.432C167.062 227.672 168.718 226.64 168.382 224.936C168.094 223.568 166.918 223.136 165.55 223.136C164.566 223.136 163.486 223.352 162.598 223.616ZM162.526 220.568C165.886 220.136 166.462 219.152 166.414 217.712C166.39 216.584 165.31 215.672 164.158 215.672C163.654 215.672 163.126 215.864 162.694 216.296C161.47 217.52 162.118 219.008 162.526 220.568ZM159.31 218.552C159.046 216.056 159.142 214.688 160.726 213.704C161.518 213.2 162.67 212.96 163.87 212.96C165.91 212.96 168.094 213.656 168.958 214.928C170.038 216.536 169.774 218.528 168.43 220.328C168.19 220.664 167.878 220.976 167.542 221.24C169.558 221.48 171.574 222.536 171.982 225.296C172.342 227.768 170.398 230 168.262 230H160.702C158.302 230 159.934 224.696 159.31 218.552ZM172.992 216.272C172.968 214.448 174.024 212.984 175.752 212.984C177.36 212.984 178.896 214.064 178.68 216.128C178.488 217.904 175.92 221.648 177.576 222.2C177.696 222.224 177.816 222.248 177.96 222.248C178.968 222.248 180.768 221.552 181.296 220.712C182.208 219.272 180.552 217.856 180.336 216.152C180.048 214.16 181.248 213.032 183.024 212.984C184.896 212.936 185.616 214.4 185.4 216.176C185.16 218.096 184.248 219.32 184.296 221.552C184.32 223.616 185.112 225.992 185.16 228.344C185.184 229.664 184.752 230 184.032 230H181.656C179.544 230 181.848 226.544 180.984 224.816C180.768 224.408 179.52 224.12 178.56 224.12C178.152 224.12 177.816 224.168 177.624 224.288C176.304 225.2 178.992 230 177.048 230H174.432C173.664 230 173.448 229.448 173.424 228.272C173.376 225.992 174.624 223.712 174.576 221.48C174.552 219.464 173.016 218.024 172.992 216.272ZM198.184 216.656C198.136 217.304 197.872 217.736 197.536 217.952C197.296 218.072 196.984 218.168 196.648 218.168C196.36 218.168 196.072 218.12 195.784 218C194.752 217.568 194.296 216.272 192.688 216.272C191.344 216.272 190.744 216.968 190.768 218C190.84 219.584 192.904 219.944 194.152 219.944C195.472 219.944 195.688 220.808 195.664 221.432C195.616 222.272 195.16 223.04 193.936 223.04C193.768 223.04 193.576 223.016 193.384 222.992C193.024 222.944 192.664 222.896 192.352 222.896C190.936 222.896 190.048 223.496 190.12 224.744C190.192 225.92 190.984 226.88 192.592 226.88C194.752 226.88 194.08 225.344 196.048 224.912C196.216 224.864 196.384 224.864 196.528 224.864C197.848 224.864 198.592 226.16 198.544 227.12C198.448 228.68 196 230.192 192.928 230.24C192.88 230.24 192.808 230.24 192.76 230.24C189.184 230.24 186.64 228.752 186.328 225.848C186.088 223.76 187.072 221.528 189.616 220.736C187.984 219.944 187.096 218.744 186.976 217.232C186.784 214.76 188.512 212.912 191.8 212.912C194.728 212.912 198.328 214.448 198.184 216.656ZM205.476 212.84C208.476 212.84 210.804 214.664 210.852 217.592C210.876 219.512 209.46 220.832 207.804 221.48C209.868 221.792 211.476 222.704 211.5 225.296C211.572 228.68 208.068 230.216 205.428 230.264C205.38 230.264 205.332 230.264 205.284 230.264C202.116 230.264 199.548 229.448 199.5 227.024C199.476 225.704 200.796 224.792 201.9 224.792C203.964 224.792 204.012 227.24 206.052 227.24C207.06 227.24 207.852 226.64 207.924 225.416C208.02 223.592 206.652 223.256 205.236 223.256C204.732 223.256 204.228 223.28 203.772 223.328C203.028 223.4 202.284 222.992 202.164 222.152C201.996 220.952 202.668 220.328 204.06 220.232C205.284 220.136 206.292 219.56 206.868 218.864C207.828 217.736 207.636 215.912 205.884 215.912C204.204 215.912 203.46 218.192 201.516 218.192C200.556 218.192 199.908 217.544 199.884 216.44C199.836 213.992 202.62 212.84 205.476 212.84ZM224.34 216.656C224.292 217.304 224.028 217.736 223.692 217.952C223.452 218.072 223.14 218.168 222.804 218.168C222.516 218.168 222.228 218.12 221.94 218C220.908 217.568 220.452 216.272 218.844 216.272C217.5 216.272 216.9 216.968 216.924 218C216.996 219.584 219.06 219.944 220.308 219.944C221.628 219.944 221.844 220.808 221.82 221.432C221.772 222.272 221.316 223.04 220.092 223.04C219.924 223.04 219.732 223.016 219.54 222.992C219.18 222.944 218.82 222.896 218.508 222.896C217.092 222.896 216.204 223.496 216.276 224.744C216.348 225.92 217.14 226.88 218.748 226.88C220.908 226.88 220.236 225.344 222.204 224.912C222.372 224.864 222.54 224.864 222.684 224.864C224.004 224.864 224.748 226.16 224.7 227.12C224.604 228.68 222.156 230.192 219.084 230.24C219.036 230.24 218.964 230.24 218.916 230.24C215.34 230.24 212.796 228.752 212.484 225.848C212.244 223.76 213.228 221.528 215.772 220.736C214.14 219.944 213.252 218.744 213.132 217.232C212.94 214.76 214.668 212.912 217.956 212.912C220.884 212.912 224.484 214.448 224.34 216.656ZM226.592 221.288C226.592 219.584 225.944 217.952 225.944 216.248C225.944 214.904 226.448 212.936 228.488 212.96C230.432 212.984 232.64 215.912 233.624 218.288C234.632 215.864 236.144 212.96 238.976 212.984C242.456 213.008 240.488 220.184 240.488 221.648C240.488 223.568 240.968 225.608 240.968 227.648C240.968 228.536 240.848 230 239.456 230H236.72C235.952 230 235.856 229.256 235.856 228.752C235.856 225.8 236.48 225.032 237.752 222.08C238.016 221.528 238.28 220.064 237.368 219.704C237.176 219.632 237.008 219.584 236.816 219.584C236.096 219.584 235.544 220.208 235.304 220.784C234.392 222.704 234.92 226.04 233.48 226.088C230.864 226.184 233.432 219.488 230.912 218.984C229.688 218.744 229.424 219.968 229.424 220.856C229.424 221.216 229.472 221.576 229.568 221.96C230.096 224.12 232.016 230 229.808 230H226.784C225.752 230 225.656 227.912 225.656 227.336C225.656 225.968 225.944 224.552 226.352 223.208C226.544 222.56 226.592 221.936 226.592 221.288ZM242.015 216.272C241.991 214.448 243.047 212.984 244.775 212.984C246.383 212.984 247.919 214.064 247.703 216.128C247.511 217.904 244.943 221.648 246.599 222.2C246.719 222.224 246.839 222.248 246.983 222.248C247.991 222.248 249.791 221.552 250.319 220.712C251.231 219.272 249.575 217.856 249.359 216.152C249.071 214.16 250.271 213.032 252.047 212.984C253.919 212.936 254.639 214.4 254.423 216.176C254.183 218.096 253.271 219.32 253.319 221.552C253.343 223.616 254.135 225.992 254.183 228.344C254.207 229.664 253.775 230 253.055 230H250.679C248.567 230 250.871 226.544 250.007 224.816C249.791 224.408 248.543 224.12 247.583 224.12C247.175 224.12 246.839 224.168 246.647 224.288C245.327 225.2 248.015 230 246.071 230H243.455C242.687 230 242.471 229.448 242.447 228.272C242.399 225.992 243.647 223.712 243.599 221.48C243.575 219.464 242.039 218.024 242.015 216.272ZM261.303 218.048C260.991 217.856 260.655 217.784 260.295 217.784C259.311 217.784 258.303 218.456 257.871 219.512C257.583 220.184 257.463 221.888 258.591 222.536C259.047 222.8 259.431 222.896 259.791 222.896C260.583 222.896 261.135 222.44 261.567 222.44C261.735 222.44 261.879 222.512 262.023 222.704C262.335 223.16 261.927 223.52 260.559 224.936C259.167 226.4 260.967 227.792 262.431 227.792C262.719 227.792 262.983 227.744 263.223 227.624C265.287 226.592 263.703 223.568 264.495 223.04C264.615 222.944 264.711 222.92 264.807 222.92C265.167 222.92 265.455 223.496 266.367 224.264C266.775 224.624 267.159 224.768 267.495 224.768C268.959 224.768 269.655 222.152 267.903 221.84C266.127 221.528 265.503 221.744 265.431 221.096C265.383 220.376 268.023 219.368 267.807 217.736C267.711 217.064 267.039 216.152 266.007 216.152C265.719 216.152 265.407 216.224 265.071 216.392C262.863 217.544 265.215 220.616 263.463 220.616C262.599 220.616 262.839 219.008 261.303 218.048ZM263.631 230.24C260.751 230.24 258.087 229.016 256.503 226.544C254.463 223.424 255.087 218.912 257.655 215.648C258.999 213.968 261.279 212.96 263.583 212.96C267.255 212.96 270.975 215.48 270.999 221.72C271.023 228.872 267.111 230.24 263.631 230.24ZM271.992 215.696C271.992 214.232 273.024 213.2 274.536 213.2C276.624 213.2 277.752 215.336 277.752 218.648C277.752 220.088 277.272 221.504 276.672 223.304C276.624 223.448 276.576 223.568 276.576 223.664C276.576 223.784 276.648 223.856 276.816 223.856C277.056 223.856 277.392 223.712 277.8 223.448C279.384 222.392 280.416 220.568 280.416 218.84C280.416 218.072 280.224 217.16 280.224 216.152C280.224 214.064 281.064 213.008 282.744 213.008C284.352 213.008 285.552 213.92 285.552 215.24C285.552 216.872 284.112 217.88 284.112 219.968C284.112 222.464 286.08 225.728 286.08 228.416C286.08 229.496 285.696 230 284.904 230H281.952C281.4 230 281.16 229.688 281.16 229.04C281.16 227.816 282.048 226.568 282.048 225.344C282.048 224.744 281.832 224.408 281.472 224.408C280.08 224.408 277.032 230 274.44 230C273.096 230 272.016 230.12 272.016 228.536C272.016 226.232 273.96 223.28 273.96 220.784C273.96 218.264 271.992 218.048 271.992 215.696ZM276.36 210.584C276.264 209.456 277.128 208.952 278.136 208.952C279.024 208.952 280.008 209.36 280.44 210.056C281.136 211.208 280.08 212.696 279.144 213.08C278.952 213.152 278.784 213.2 278.592 213.2C277.44 213.2 276.432 211.688 276.36 210.584ZM300.353 225.656C300.353 224.768 300.065 224.24 299.585 224.24C299.033 224.24 298.337 224.888 297.929 225.728C297.737 226.136 297.593 226.64 297.473 227.384C297.377 227.96 297.449 230 296.681 230H293.897C293.561 230 293.273 229.064 293.273 227.96C293.273 224.408 295.073 222.488 298.745 222.08C295.697 221.48 293.561 219.032 293.561 216.152C293.561 214.304 294.281 213.248 295.553 213.248C297.689 213.248 298.025 215.72 298.073 217.472C298.121 219.056 299.057 221.072 300.041 221.072C300.521 221.072 300.809 220.712 300.809 220.112C300.809 218.768 300.089 217.52 300.089 216.152C300.089 214.448 300.953 213.272 302.225 213.272C303.473 213.272 304.337 214.448 304.337 216.152C304.337 217.52 303.617 218.768 303.617 220.112C303.617 220.712 303.905 221.072 304.385 221.072C305.369 221.072 306.449 218.96 306.497 217.4C306.545 215.648 306.713 213.248 308.873 213.248C310.145 213.248 310.865 214.304 310.865 216.152C310.865 219.032 308.729 221.48 305.681 222.08C309.353 222.488 311.153 224.408 311.153 227.96C311.153 229.064 310.865 230 310.529 230H307.745C306.977 230 307.049 227.96 306.953 227.384C306.833 226.64 306.689 226.136 306.497 225.728C306.113 224.888 305.393 224.24 304.841 224.24C304.361 224.24 304.073 224.768 304.073 225.656C304.073 226.784 304.409 227.888 304.409 229.04C304.409 229.64 304.289 230 304.073 230H300.353C300.137 230 300.017 229.64 300.017 229.04C300.017 227.888 300.353 226.784 300.353 225.656ZM312.117 215.696C312.117 214.232 313.149 213.2 314.661 213.2C316.749 213.2 317.877 215.336 317.877 218.648C317.877 220.088 317.397 221.504 316.797 223.304C316.749 223.448 316.701 223.568 316.701 223.664C316.701 223.784 316.773 223.856 316.941 223.856C317.181 223.856 317.517 223.712 317.925 223.448C319.509 222.392 320.541 220.568 320.541 218.84C320.541 218.072 320.349 217.16 320.349 216.152C320.349 214.064 321.189 213.008 322.869 213.008C324.477 213.008 325.677 213.92 325.677 215.24C325.677 216.872 324.237 217.88 324.237 219.968C324.237 222.464 326.205 225.728 326.205 228.416C326.205 229.496 325.821 230 325.029 230H322.077C321.525 230 321.285 229.688 321.285 229.04C321.285 227.816 322.173 226.568 322.173 225.344C322.173 224.744 321.957 224.408 321.597 224.408C320.205 224.408 317.157 230 314.565 230C313.221 230 312.141 230.12 312.141 228.536C312.141 226.232 314.085 223.28 314.085 220.784C314.085 218.264 312.117 218.048 312.117 215.696ZM331.028 230H328.508C326.396 230 328.172 225.104 328.172 222.584C328.172 220.16 327.164 218.36 327.308 216.416C327.428 214.472 328.604 213.2 330.332 213.2C331.388 213.2 333.812 213.704 335.108 213.704C336.356 213.704 338.396 213.2 339.716 213.2C340.748 213.2 342.188 213.392 342.884 213.824C345.548 215.456 343.724 221.12 343.724 223.856C343.724 225.2 344.132 226.808 344.132 228.176C344.132 229.016 343.988 230 343.028 230H340.82C339.692 230 339.524 228.968 339.524 227.96C339.524 226.736 340.1 223.616 340.484 221.528C341.06 218.504 340.652 216.872 339.236 216.8C339.212 216.8 339.164 216.8 339.14 216.8C337.916 216.8 337.292 218.048 337.388 220.16C337.556 223.76 339.404 229.976 336.308 229.976H334.772C333.236 229.976 334.412 227.648 334.292 225.584C334.196 224.288 333.764 222.656 334.316 219.632C334.604 217.88 334.244 216.992 333.356 216.704C333.164 216.632 332.948 216.608 332.756 216.608C331.844 216.608 331.052 217.304 331.028 218.888C331.004 220.448 333.692 230 331.028 230ZM357.207 216.656C357.159 217.304 356.895 217.736 356.559 217.952C356.319 218.072 356.007 218.168 355.671 218.168C355.383 218.168 355.095 218.12 354.807 218C353.775 217.568 353.319 216.272 351.711 216.272C350.367 216.272 349.767 216.968 349.791 218C349.863 219.584 351.927 219.944 353.175 219.944C354.495 219.944 354.711 220.808 354.687 221.432C354.639 222.272 354.183 223.04 352.959 223.04C352.791 223.04 352.599 223.016 352.407 222.992C352.047 222.944 351.687 222.896 351.375 222.896C349.959 222.896 349.071 223.496 349.143 224.744C349.215 225.92 350.007 226.88 351.615 226.88C353.775 226.88 353.103 225.344 355.071 224.912C355.239 224.864 355.407 224.864 355.551 224.864C356.871 224.864 357.615 226.16 357.567 227.12C357.471 228.68 355.023 230.192 351.951 230.24C351.903 230.24 351.831 230.24 351.783 230.24C348.207 230.24 345.663 228.752 345.351 225.848C345.111 223.76 346.095 221.528 348.639 220.736C347.007 219.944 346.119 218.744 345.999 217.232C345.807 214.76 347.535 212.912 350.823 212.912C353.751 212.912 357.351 214.448 357.207 216.656ZM360.659 215.744C361.595 213.992 363.803 212.96 365.939 212.96C367.667 212.96 369.371 213.656 370.331 215.24C371.123 216.584 370.859 219.44 370.835 222.992C370.811 226.664 372.083 230 369.587 230H367.763C363.995 230 366.443 223.208 367.211 221.408C368.003 219.536 368.243 217.184 366.203 217.112C366.179 217.112 366.131 217.112 366.107 217.112C364.739 217.112 363.827 218.072 363.827 221.072C363.827 223.04 364.571 230 361.763 230H359.459C358.283 230 358.067 228.512 358.787 226.544C359.387 224.888 359.747 224.024 359.963 223.424C361.043 220.448 359.267 218.432 360.659 215.744ZM375.453 223.712C374.973 225.608 375.117 227.192 377.925 227.528C379.917 227.768 381.573 226.736 381.237 225.032C380.949 223.664 379.773 223.232 378.405 223.232C377.421 223.232 376.341 223.448 375.453 223.712ZM372.669 224.192C372.765 221.912 372.381 219.896 372.165 217.616C371.949 215.432 372.453 212.96 374.973 212.96C376.101 212.96 377.229 213.8 377.229 215C377.229 217.28 375.453 217.856 375.669 219.92C375.741 220.448 376.101 220.592 376.653 220.592C377.373 220.592 378.381 220.328 379.317 220.328C382.557 220.328 384.477 222.704 384.477 225.296C384.477 227.72 382.485 230 380.373 230H373.965C371.157 230 372.621 225.392 372.669 224.192Z" fill="#101010"/>
</svg>
