<svg width="157" height="156" viewBox="0 0 157 156" fill="none" xmlns="http://www.w3.org/2000/svg">
<path d="M78.166 154.425C35.8202 154.384 1.50007 120.131 1.50007 77.9266C1.50007 35.7225 35.8202 1.53444 78.1661 1.57506C120.512 1.61567 154.832 35.8696 154.832 78.0736C154.832 120.278 120.512 154.466 78.166 154.425Z" fill="#101010" stroke="white" stroke-width="3"/>
<path d="M86.8278 135.205C55.164 139.994 25.6088 118.291 20.8063 86.7402C16.0037 55.1898 37.7699 25.7244 69.4337 20.9356C101.097 16.1468 130.653 37.8504 135.455 69.4008C140.258 100.951 118.492 130.417 86.8278 135.205Z" fill="#101010" stroke="white" stroke-width="3"/>
<ellipse cx="78.8242" cy="77.961" rx="26.374" ry="26.845" fill="#E900FF"/>
<ellipse cx="77.8026" cy="77.9106" rx="9.68732" ry="9.89344" fill="#D9FF00"/>
</svg>
