<svg width="303" height="68" viewBox="0 0 303 68" fill="none" xmlns="http://www.w3.org/2000/svg">
<path d="M9.01918 17.7413C4.17538 17.7367 0.250027 13.8185 0.250027 8.99156C0.250027 4.16457 4.17538 0.253977 9.01918 0.258623C13.863 0.263268 17.7883 4.1814 17.7883 9.00838C17.7883 13.8354 13.863 17.746 9.01918 17.7413Z" fill="#101010" stroke="white" stroke-width="0.5"/>
<path d="M10.0072 15.5246C6.3955 16.0708 3.0247 13.5952 2.47699 9.99699C1.92927 6.39878 4.41164 3.03794 8.02336 2.4917C11.6351 1.94547 15.0059 4.42109 15.5536 8.0193C16.1013 11.6175 13.619 14.9784 10.0072 15.5246Z" fill="#101010" stroke="white" stroke-width="0.5"/>
<ellipse cx="9.09565" cy="8.99551" rx="3.04316" ry="3.0975" fill="#D9FF00"/>
<ellipse cx="8.97763" cy="8.98963" rx="1.11777" ry="1.14155" fill="#2301FF"/>
<path d="M26.3743 11.0625V12H21.6086V11.1943L23.9231 8.66992C24.177 8.38346 24.3772 8.13607 24.5237 7.92773C24.6702 7.7194 24.7727 7.53223 24.8313 7.36621C24.8931 7.19694 24.9241 7.03255 24.9241 6.87305C24.9241 6.64844 24.8818 6.4515 24.7971 6.28223C24.7157 6.1097 24.5953 5.97461 24.4358 5.87695C24.2763 5.77604 24.0826 5.72559 23.8547 5.72559C23.5911 5.72559 23.3697 5.78255 23.1907 5.89648C23.0116 6.01042 22.8765 6.16829 22.7854 6.37012C22.6943 6.56868 22.6487 6.79655 22.6487 7.05371H21.4719C21.4719 6.6403 21.5663 6.2627 21.7551 5.9209C21.9439 5.57585 22.2174 5.30241 22.5754 5.10059C22.9335 4.89551 23.3648 4.79297 23.8694 4.79297C24.3446 4.79297 24.7483 4.87272 25.0803 5.03223C25.4124 5.19173 25.6646 5.41797 25.8372 5.71094C26.0129 6.00391 26.1008 6.35059 26.1008 6.75098C26.1008 6.97233 26.065 7.19206 25.9934 7.41016C25.9218 7.62826 25.8193 7.84635 25.6858 8.06445C25.5556 8.2793 25.401 8.49577 25.2219 8.71387C25.0429 8.92871 24.8459 9.14681 24.6311 9.36816L23.093 11.0625H26.3743ZM32.1897 9.46582V10.4033H27.0627L27.0237 9.69531L30.0901 4.89062H31.0325L30.012 6.63867L28.2493 9.46582H32.1897ZM31.301 4.89062V12H30.1243V4.89062H31.301ZM34.2307 4.5V12H33.0491V4.5H34.2307ZM37.512 6.7168L35.2122 9.26562L33.9524 10.5547L33.6448 9.55859L34.5969 8.38184L36.0911 6.7168H37.512ZM36.345 12L34.6311 9.51953L35.3733 8.69434L37.7073 12H36.345ZM43.8352 8.36719V11.082C43.7343 11.2155 43.5764 11.362 43.3616 11.5215C43.15 11.6777 42.8684 11.8128 42.5168 11.9268C42.1653 12.0407 41.7275 12.0977 41.2034 12.0977C40.7574 12.0977 40.3489 12.0228 39.9778 11.873C39.6067 11.7201 39.2861 11.4971 39.0159 11.2041C38.7489 10.9111 38.5422 10.5547 38.3958 10.1348C38.2493 9.71159 38.176 9.22982 38.176 8.68945V8.19629C38.176 7.65918 38.2428 7.18066 38.3762 6.76074C38.5129 6.33757 38.7083 5.97949 38.9622 5.68652C39.2161 5.39355 39.5221 5.1722 39.8801 5.02246C40.2415 4.86947 40.65 4.79297 41.1057 4.79297C41.6884 4.79297 42.1702 4.89062 42.551 5.08594C42.9351 5.27799 43.2314 5.54492 43.4397 5.88672C43.648 6.22852 43.7799 6.61914 43.8352 7.05859H42.634C42.595 6.8112 42.5185 6.58984 42.4045 6.39453C42.2939 6.19922 42.1344 6.04622 41.926 5.93555C41.7209 5.82161 41.454 5.76465 41.1252 5.76465C40.842 5.76465 40.593 5.81836 40.3782 5.92578C40.1633 6.0332 39.9843 6.19108 39.8411 6.39941C39.7011 6.60775 39.5953 6.86165 39.5237 7.16113C39.4521 7.46061 39.4163 7.80241 39.4163 8.18652V8.68945C39.4163 9.08008 39.4569 9.42676 39.5383 9.72949C39.623 10.0322 39.7434 10.2878 39.8997 10.4961C40.0592 10.7044 40.2528 10.8623 40.4807 10.9697C40.7086 11.0739 40.9657 11.126 41.2522 11.126C41.5321 11.126 41.7616 11.1032 41.9407 11.0576C42.1197 11.0088 42.2613 10.9518 42.3655 10.8867C42.4729 10.8184 42.5559 10.7533 42.6145 10.6914V9.28027H41.135V8.36719H43.8352ZM44.8508 9.41699V9.30469C44.8508 8.92383 44.9062 8.57064 45.0168 8.24512C45.1275 7.91634 45.287 7.63151 45.4954 7.39062C45.7069 7.14648 45.9641 6.95768 46.2668 6.82422C46.5728 6.6875 46.9179 6.61914 47.302 6.61914C47.6894 6.61914 48.0344 6.6875 48.3372 6.82422C48.6431 6.95768 48.9019 7.14648 49.1135 7.39062C49.3251 7.63151 49.4862 7.91634 49.5969 8.24512C49.7076 8.57064 49.7629 8.92383 49.7629 9.30469V9.41699C49.7629 9.79785 49.7076 10.151 49.5969 10.4766C49.4862 10.8021 49.3251 11.0869 49.1135 11.3311C48.9019 11.5719 48.6448 11.7607 48.342 11.8975C48.0393 12.0309 47.6959 12.0977 47.3118 12.0977C46.9244 12.0977 46.5777 12.0309 46.2717 11.8975C45.969 11.7607 45.7118 11.5719 45.5002 11.3311C45.2887 11.0869 45.1275 10.8021 45.0168 10.4766C44.9062 10.151 44.8508 9.79785 44.8508 9.41699ZM46.0276 9.30469V9.41699C46.0276 9.65462 46.052 9.87923 46.1008 10.0908C46.1497 10.3024 46.2262 10.488 46.3303 10.6475C46.4345 10.807 46.568 10.9323 46.7307 11.0234C46.8935 11.1146 47.0872 11.1602 47.3118 11.1602C47.5299 11.1602 47.7187 11.1146 47.8782 11.0234C48.0409 10.9323 48.1744 10.807 48.2786 10.6475C48.3827 10.488 48.4592 10.3024 48.5081 10.0908C48.5601 9.87923 48.5862 9.65462 48.5862 9.41699V9.30469C48.5862 9.07031 48.5601 8.84896 48.5081 8.64062C48.4592 8.42904 48.3811 8.24186 48.2737 8.0791C48.1695 7.91634 48.0361 7.78939 47.8733 7.69824C47.7138 7.60384 47.5234 7.55664 47.302 7.55664C47.0806 7.55664 46.8886 7.60384 46.7258 7.69824C46.5663 7.78939 46.4345 7.91634 46.3303 8.0791C46.2262 8.24186 46.1497 8.42904 46.1008 8.64062C46.052 8.84896 46.0276 9.07031 46.0276 9.30469ZM52.009 4.5V12H50.8274V4.5H52.009ZM56.5208 10.9062V4.5H57.7024V12H56.6331L56.5208 10.9062ZM53.0833 9.41699V9.31445C53.0833 8.91406 53.1305 8.54948 53.2249 8.2207C53.3193 7.88867 53.456 7.60384 53.635 7.36621C53.814 7.12533 54.0321 6.94141 54.2893 6.81445C54.5465 6.68424 54.8362 6.61914 55.1584 6.61914C55.4775 6.61914 55.7574 6.68099 55.9983 6.80469C56.2392 6.92839 56.4443 7.10579 56.6135 7.33691C56.7828 7.56478 56.9179 7.83822 57.0188 8.15723C57.1197 8.47298 57.1913 8.82454 57.2336 9.21191V9.53906C57.1913 9.91667 57.1197 10.2617 57.0188 10.5742C56.9179 10.8867 56.7828 11.1569 56.6135 11.3848C56.4443 11.6126 56.2375 11.7884 55.9934 11.9121C55.7525 12.0358 55.4709 12.0977 55.1487 12.0977C54.8297 12.0977 54.5416 12.0309 54.2844 11.8975C54.0305 11.764 53.814 11.5768 53.635 11.3359C53.456 11.0951 53.3193 10.8118 53.2249 10.4863C53.1305 10.1576 53.0833 9.80111 53.0833 9.41699ZM54.26 9.31445V9.41699C54.26 9.65788 54.2812 9.88249 54.3235 10.0908C54.3691 10.2992 54.439 10.4831 54.5334 10.6426C54.6278 10.7988 54.7499 10.9225 54.8997 11.0137C55.0527 11.1016 55.2349 11.1455 55.4465 11.1455C55.7135 11.1455 55.9332 11.0869 56.1057 10.9697C56.2782 10.8525 56.4133 10.6947 56.511 10.4961C56.6119 10.2943 56.6803 10.0697 56.7161 9.82227V8.93848C56.6965 8.74642 56.6558 8.56738 56.594 8.40137C56.5354 8.23535 56.4556 8.09049 56.3547 7.9668C56.2538 7.83984 56.1285 7.74219 55.9788 7.67383C55.8323 7.60221 55.6581 7.56641 55.4563 7.56641C55.2415 7.56641 55.0592 7.61198 54.9094 7.70312C54.7597 7.79427 54.636 7.9196 54.5383 8.0791C54.4439 8.23861 54.3739 8.42415 54.3284 8.63574C54.2828 8.84733 54.26 9.07357 54.26 9.31445ZM60.0999 7.84473V12H58.9231V6.7168H60.0315L60.0999 7.84473ZM59.8899 9.16309L59.509 9.1582C59.5123 8.78385 59.5644 8.44043 59.6653 8.12793C59.7694 7.81543 59.9127 7.54688 60.095 7.32227C60.2805 7.09766 60.5019 6.92513 60.759 6.80469C61.0162 6.68099 61.3027 6.61914 61.6184 6.61914C61.8723 6.61914 62.1018 6.65495 62.3069 6.72656C62.5152 6.79492 62.6926 6.90723 62.8391 7.06348C62.9889 7.21973 63.1028 7.42318 63.1809 7.67383C63.259 7.92122 63.2981 8.22559 63.2981 8.58691V12H62.1165V8.58203C62.1165 8.32812 62.079 8.12793 62.0042 7.98145C61.9325 7.83171 61.8267 7.72591 61.6868 7.66406C61.55 7.59896 61.3792 7.56641 61.1741 7.56641C60.9722 7.56641 60.7916 7.60872 60.6321 7.69336C60.4726 7.77799 60.3375 7.89355 60.2268 8.04004C60.1194 8.18652 60.0364 8.35579 59.9778 8.54785C59.9192 8.73991 59.8899 8.94499 59.8899 9.16309ZM69.3577 8.49414V9.43164H66.7747V8.49414H69.3577ZM73.4934 4.89062H74.5872L76.6428 10.374L78.6936 4.89062H79.7874L77.0725 12H76.2034L73.4934 4.89062ZM72.9954 4.89062H74.0354L74.2161 9.63672V12H72.9954V4.89062ZM79.2454 4.89062H80.2903V12H79.0647V9.63672L79.2454 4.89062ZM81.4036 9.41699V9.30469C81.4036 8.92383 81.4589 8.57064 81.5696 8.24512C81.6803 7.91634 81.8398 7.63151 82.0481 7.39062C82.2597 7.14648 82.5168 6.95768 82.8196 6.82422C83.1256 6.6875 83.4706 6.61914 83.8547 6.61914C84.2421 6.61914 84.5872 6.6875 84.8899 6.82422C85.1959 6.95768 85.4547 7.14648 85.6663 7.39062C85.8778 7.63151 86.039 7.91634 86.1497 8.24512C86.2603 8.57064 86.3157 8.92383 86.3157 9.30469V9.41699C86.3157 9.79785 86.2603 10.151 86.1497 10.4766C86.039 10.8021 85.8778 11.0869 85.6663 11.3311C85.4547 11.5719 85.1975 11.7607 84.8948 11.8975C84.592 12.0309 84.2486 12.0977 83.8645 12.0977C83.4771 12.0977 83.1305 12.0309 82.8245 11.8975C82.5217 11.7607 82.2646 11.5719 82.053 11.3311C81.8414 11.0869 81.6803 10.8021 81.5696 10.4766C81.4589 10.151 81.4036 9.79785 81.4036 9.41699ZM82.5803 9.30469V9.41699C82.5803 9.65462 82.6047 9.87923 82.6536 10.0908C82.7024 10.3024 82.7789 10.488 82.8831 10.6475C82.9872 10.807 83.1207 10.9323 83.2834 11.0234C83.4462 11.1146 83.6399 11.1602 83.8645 11.1602C84.0826 11.1602 84.2714 11.1146 84.4309 11.0234C84.5937 10.9323 84.7271 10.807 84.8313 10.6475C84.9355 10.488 85.012 10.3024 85.0608 10.0908C85.1129 9.87923 85.1389 9.65462 85.1389 9.41699V9.30469C85.1389 9.07031 85.1129 8.84896 85.0608 8.64062C85.012 8.42904 84.9338 8.24186 84.8264 8.0791C84.7222 7.91634 84.5888 7.78939 84.426 7.69824C84.2665 7.60384 84.0761 7.55664 83.8547 7.55664C83.6334 7.55664 83.4413 7.60384 83.2786 7.69824C83.1191 7.78939 82.9872 7.91634 82.8831 8.0791C82.7789 8.24186 82.7024 8.42904 82.6536 8.64062C82.6047 8.84896 82.5803 9.07031 82.5803 9.30469ZM87.0774 9.41699V9.30469C87.0774 8.92383 87.1327 8.57064 87.2434 8.24512C87.3541 7.91634 87.5136 7.63151 87.7219 7.39062C87.9335 7.14648 88.1907 6.95768 88.4934 6.82422C88.7994 6.6875 89.1444 6.61914 89.5286 6.61914C89.9159 6.61914 90.261 6.6875 90.5637 6.82422C90.8697 6.95768 91.1285 7.14648 91.3401 7.39062C91.5517 7.63151 91.7128 7.91634 91.8235 8.24512C91.9342 8.57064 91.9895 8.92383 91.9895 9.30469V9.41699C91.9895 9.79785 91.9342 10.151 91.8235 10.4766C91.7128 10.8021 91.5517 11.0869 91.3401 11.3311C91.1285 11.5719 90.8713 11.7607 90.5686 11.8975C90.2659 12.0309 89.9224 12.0977 89.5383 12.0977C89.151 12.0977 88.8043 12.0309 88.4983 11.8975C88.1956 11.7607 87.9384 11.5719 87.7268 11.3311C87.5152 11.0869 87.3541 10.8021 87.2434 10.4766C87.1327 10.151 87.0774 9.79785 87.0774 9.41699ZM88.2542 9.30469V9.41699C88.2542 9.65462 88.2786 9.87923 88.3274 10.0908C88.3762 10.3024 88.4527 10.488 88.5569 10.6475C88.6611 10.807 88.7945 10.9323 88.9573 11.0234C89.12 11.1146 89.3137 11.1602 89.5383 11.1602C89.7564 11.1602 89.9452 11.1146 90.1047 11.0234C90.2675 10.9323 90.401 10.807 90.5051 10.6475C90.6093 10.488 90.6858 10.3024 90.7346 10.0908C90.7867 9.87923 90.8127 9.65462 90.8127 9.41699V9.30469C90.8127 9.07031 90.7867 8.84896 90.7346 8.64062C90.6858 8.42904 90.6077 8.24186 90.5002 8.0791C90.3961 7.91634 90.2626 7.78939 90.0999 7.69824C89.9403 7.60384 89.7499 7.55664 89.5286 7.55664C89.3072 7.55664 89.1152 7.60384 88.9524 7.69824C88.7929 7.78939 88.6611 7.91634 88.5569 8.0791C88.4527 8.24186 88.3762 8.42904 88.3274 8.64062C88.2786 8.84896 88.2542 9.07031 88.2542 9.30469ZM96.1985 10.9062V4.5H97.3801V12H96.3108L96.1985 10.9062ZM92.761 9.41699V9.31445C92.761 8.91406 92.8082 8.54948 92.9026 8.2207C92.997 7.88867 93.1337 7.60384 93.3127 7.36621C93.4918 7.12533 93.7099 6.94141 93.967 6.81445C94.2242 6.68424 94.5139 6.61914 94.8362 6.61914C95.1552 6.61914 95.4351 6.68099 95.676 6.80469C95.9169 6.92839 96.122 7.10579 96.2913 7.33691C96.4605 7.56478 96.5956 7.83822 96.6965 8.15723C96.7974 8.47298 96.8691 8.82454 96.9114 9.21191V9.53906C96.8691 9.91667 96.7974 10.2617 96.6965 10.5742C96.5956 10.8867 96.4605 11.1569 96.2913 11.3848C96.122 11.6126 95.9153 11.7884 95.6711 11.9121C95.4303 12.0358 95.1487 12.0977 94.8264 12.0977C94.5074 12.0977 94.2193 12.0309 93.9622 11.8975C93.7083 11.764 93.4918 11.5768 93.3127 11.3359C93.1337 11.0951 92.997 10.8118 92.9026 10.4863C92.8082 10.1576 92.761 9.80111 92.761 9.41699ZM93.9377 9.31445V9.41699C93.9377 9.65788 93.9589 9.88249 94.0012 10.0908C94.0468 10.2992 94.1168 10.4831 94.2112 10.6426C94.3056 10.7988 94.4277 10.9225 94.5774 11.0137C94.7304 11.1016 94.9127 11.1455 95.1243 11.1455C95.3912 11.1455 95.6109 11.0869 95.7834 10.9697C95.956 10.8525 96.0911 10.6947 96.1887 10.4961C96.2896 10.2943 96.358 10.0697 96.3938 9.82227V8.93848C96.3743 8.74642 96.3336 8.56738 96.2717 8.40137C96.2131 8.23535 96.1334 8.09049 96.0325 7.9668C95.9316 7.83984 95.8062 7.74219 95.6565 7.67383C95.51 7.60221 95.3359 7.56641 95.134 7.56641C94.9192 7.56641 94.7369 7.61198 94.5872 7.70312C94.4374 7.79427 94.3137 7.9196 94.2161 8.0791C94.1217 8.23861 94.0517 8.42415 94.0061 8.63574C93.9605 8.84733 93.9377 9.07357 93.9377 9.31445Z" fill="#101010"/>
<path d="M204.019 17.7413C199.175 17.7367 195.25 13.8185 195.25 8.99156C195.25 4.16457 199.175 0.253977 204.019 0.258623C208.863 0.263268 212.788 4.1814 212.788 9.00838C212.788 13.8354 208.863 17.746 204.019 17.7413Z" fill="#101010" stroke="white" stroke-width="0.5"/>
<path d="M205.007 15.5246C201.395 16.0708 198.025 13.5952 197.477 9.99699C196.929 6.39878 199.412 3.03794 203.023 2.4917C206.635 1.94547 210.006 4.42109 210.554 8.0193C211.101 11.6175 208.619 14.9784 205.007 15.5246Z" fill="#101010" stroke="white" stroke-width="0.5"/>
<ellipse cx="204.096" cy="8.99551" rx="3.04316" ry="3.0975" fill="#2301FF"/>
<ellipse cx="203.978" cy="8.98963" rx="1.11777" ry="1.14155" fill="#D9FF00"/>
<path d="M222.43 8.25V8.64062C222.43 9.17773 222.36 9.65951 222.22 10.0859C222.08 10.5124 221.88 10.8753 221.619 11.1748C221.362 11.4743 221.053 11.7038 220.692 11.8633C220.33 12.0195 219.93 12.0977 219.49 12.0977C219.054 12.0977 218.656 12.0195 218.294 11.8633C217.936 11.7038 217.625 11.4743 217.362 11.1748C217.098 10.8753 216.893 10.5124 216.746 10.0859C216.603 9.65951 216.531 9.17773 216.531 8.64062V8.25C216.531 7.71289 216.603 7.23275 216.746 6.80957C216.89 6.38314 217.091 6.02018 217.352 5.7207C217.615 5.41797 217.926 5.18848 218.284 5.03223C218.646 4.87272 219.045 4.79297 219.481 4.79297C219.92 4.79297 220.321 4.87272 220.682 5.03223C221.043 5.18848 221.354 5.41797 221.615 5.7207C221.875 6.02018 222.075 6.38314 222.215 6.80957C222.358 7.23275 222.43 7.71289 222.43 8.25ZM221.204 8.64062V8.24023C221.204 7.8431 221.165 7.49316 221.087 7.19043C221.012 6.88444 220.9 6.62891 220.75 6.42383C220.604 6.21549 220.423 6.05924 220.208 5.95508C219.993 5.84766 219.751 5.79395 219.481 5.79395C219.211 5.79395 218.97 5.84766 218.758 5.95508C218.546 6.05924 218.366 6.21549 218.216 6.42383C218.07 6.62891 217.957 6.88444 217.879 7.19043C217.801 7.49316 217.762 7.8431 217.762 8.24023V8.64062C217.762 9.03776 217.801 9.38932 217.879 9.69531C217.957 10.0013 218.071 10.2601 218.221 10.4717C218.374 10.68 218.556 10.8379 218.768 10.9453C218.979 11.0495 219.22 11.1016 219.49 11.1016C219.764 11.1016 220.006 11.0495 220.218 10.9453C220.43 10.8379 220.609 10.68 220.755 10.4717C220.902 10.2601 221.012 10.0013 221.087 9.69531C221.165 9.38932 221.204 9.03776 221.204 8.64062ZM227.625 11.0625V12H223.69V11.0625H227.625ZM227.518 7.44922L224.09 12H223.328V11.2432L226.737 6.7168H227.518V7.44922ZM227.064 6.7168V7.6543H223.387V6.7168H227.064ZM231.746 10.7549V6.7168H232.928V12H231.815L231.746 10.7549ZM231.912 9.65625L232.308 9.64648C232.308 10.0013 232.269 10.3285 232.191 10.6279C232.113 10.9242 231.992 11.1829 231.829 11.4043C231.667 11.6224 231.458 11.7933 231.204 11.917C230.95 12.0374 230.646 12.0977 230.291 12.0977C230.034 12.0977 229.798 12.0602 229.583 11.9854C229.368 11.9105 229.183 11.7949 229.027 11.6387C228.874 11.4824 228.755 11.279 228.67 11.0283C228.586 10.7777 228.543 10.4782 228.543 10.1299V6.7168H229.72V10.1396C229.72 10.3317 229.743 10.4928 229.788 10.623C229.834 10.75 229.896 10.8525 229.974 10.9307C230.052 11.0088 230.143 11.0641 230.247 11.0967C230.351 11.1292 230.462 11.1455 230.579 11.1455C230.915 11.1455 231.178 11.0804 231.37 10.9502C231.566 10.8167 231.704 10.6377 231.785 10.4131C231.87 10.1885 231.912 9.9362 231.912 9.65625ZM235.301 7.84473V12H234.124V6.7168H235.233L235.301 7.84473ZM235.091 9.16309L234.71 9.1582C234.713 8.78385 234.766 8.44043 234.866 8.12793C234.971 7.81543 235.114 7.54688 235.296 7.32227C235.482 7.09766 235.703 6.92513 235.96 6.80469C236.217 6.68099 236.504 6.61914 236.82 6.61914C237.073 6.61914 237.303 6.65495 237.508 6.72656C237.716 6.79492 237.894 6.90723 238.04 7.06348C238.19 7.21973 238.304 7.42318 238.382 7.67383C238.46 7.92122 238.499 8.22559 238.499 8.58691V12H237.318V8.58203C237.318 8.32812 237.28 8.12793 237.205 7.98145C237.134 7.83171 237.028 7.72591 236.888 7.66406C236.751 7.59896 236.58 7.56641 236.375 7.56641C236.173 7.56641 235.993 7.60872 235.833 7.69336C235.674 7.77799 235.539 7.89355 235.428 8.04004C235.321 8.18652 235.238 8.35579 235.179 8.54785C235.12 8.73991 235.091 8.94499 235.091 9.16309ZM242.679 10.9404V8.4209C242.679 8.2321 242.645 8.06934 242.576 7.93262C242.508 7.7959 242.404 7.6901 242.264 7.61523C242.127 7.54036 241.955 7.50293 241.746 7.50293C241.554 7.50293 241.388 7.53548 241.248 7.60059C241.108 7.66569 240.999 7.75358 240.921 7.86426C240.843 7.97493 240.804 8.10026 240.804 8.24023H239.632C239.632 8.0319 239.683 7.83008 239.783 7.63477C239.884 7.43945 240.031 7.2653 240.223 7.1123C240.415 6.95931 240.644 6.83887 240.911 6.75098C241.178 6.66309 241.478 6.61914 241.81 6.61914C242.207 6.61914 242.559 6.68587 242.865 6.81934C243.174 6.9528 243.416 7.15462 243.592 7.4248C243.771 7.69173 243.861 8.02702 243.861 8.43066V10.7793C243.861 11.0202 243.877 11.2367 243.909 11.4287C243.945 11.6175 243.996 11.7819 244.061 11.9219V12H242.855C242.799 11.873 242.755 11.7119 242.723 11.5166C242.694 11.318 242.679 11.126 242.679 10.9404ZM242.85 8.78711L242.86 9.51465H242.015C241.797 9.51465 241.605 9.53581 241.439 9.57812C241.273 9.61719 241.134 9.67578 241.024 9.75391C240.913 9.83203 240.83 9.92643 240.775 10.0371C240.719 10.1478 240.692 10.2731 240.692 10.4131C240.692 10.5531 240.724 10.6816 240.789 10.7988C240.854 10.9128 240.949 11.0023 241.073 11.0674C241.199 11.1325 241.352 11.165 241.531 11.165C241.772 11.165 241.982 11.1162 242.161 11.0186C242.344 10.9176 242.487 10.7956 242.591 10.6523C242.695 10.5059 242.751 10.3675 242.757 10.2373L243.138 10.7598C243.099 10.8932 243.032 11.0365 242.938 11.1895C242.843 11.3424 242.72 11.4889 242.567 11.6289C242.417 11.7656 242.236 11.8779 242.025 11.9658C241.816 12.0537 241.575 12.0977 241.302 12.0977C240.957 12.0977 240.649 12.0293 240.379 11.8926C240.109 11.7526 239.897 11.5654 239.744 11.3311C239.591 11.0934 239.515 10.8249 239.515 10.5254C239.515 10.2454 239.567 9.99805 239.671 9.7832C239.779 9.5651 239.935 9.38281 240.14 9.23633C240.348 9.08984 240.602 8.97917 240.902 8.9043C241.201 8.82617 241.543 8.78711 241.927 8.78711H242.85ZM249.949 8.49414V9.43164H247.366V8.49414H249.949ZM255.653 12H254.134L254.144 11.0283H255.653C256.092 11.0283 256.46 10.9323 256.756 10.7402C257.056 10.5482 257.28 10.2731 257.43 9.91504C257.583 9.55697 257.659 9.13053 257.659 8.63574V8.25C257.659 7.86589 257.615 7.52572 257.528 7.22949C257.443 6.93327 257.316 6.68424 257.147 6.48242C256.981 6.2806 256.776 6.1276 256.531 6.02344C256.291 5.91927 256.012 5.86719 255.697 5.86719H254.105V4.89062H255.697C256.169 4.89062 256.6 4.97038 256.99 5.12988C257.381 5.28613 257.718 5.51237 258.001 5.80859C258.288 6.10482 258.507 6.45964 258.66 6.87305C258.813 7.28646 258.89 7.7487 258.89 8.25977V8.63574C258.89 9.14681 258.813 9.60905 258.66 10.0225C258.507 10.4359 258.288 10.7907 258.001 11.0869C257.715 11.3799 257.373 11.6061 256.976 11.7656C256.582 11.9219 256.141 12 255.653 12ZM254.813 4.89062V12H253.587V4.89062H254.813ZM262.332 12.0977C261.942 12.0977 261.588 12.0342 261.273 11.9072C260.96 11.777 260.693 11.5964 260.472 11.3652C260.254 11.1341 260.086 10.8623 259.969 10.5498C259.852 10.2373 259.793 9.90039 259.793 9.53906V9.34375C259.793 8.93034 259.853 8.55599 259.974 8.2207C260.094 7.88542 260.262 7.59896 260.477 7.36133C260.692 7.12044 260.946 6.93652 261.239 6.80957C261.531 6.68262 261.849 6.61914 262.191 6.61914C262.568 6.61914 262.899 6.68262 263.182 6.80957C263.465 6.93652 263.699 7.11556 263.885 7.34668C264.074 7.57454 264.214 7.84635 264.305 8.16211C264.399 8.47786 264.447 8.82617 264.447 9.20703V9.70996H260.365V8.86523H263.284V8.77246C263.278 8.56087 263.236 8.3623 263.157 8.17676C263.083 7.99121 262.967 7.84147 262.811 7.72754C262.655 7.61361 262.446 7.55664 262.186 7.55664C261.99 7.55664 261.816 7.59896 261.663 7.68359C261.514 7.76497 261.388 7.88379 261.287 8.04004C261.186 8.19629 261.108 8.38509 261.053 8.60645C261.001 8.82454 260.975 9.07031 260.975 9.34375V9.53906C260.975 9.77018 261.006 9.98503 261.068 10.1836C261.133 10.3789 261.227 10.5498 261.351 10.6963C261.475 10.8428 261.624 10.9583 261.8 11.043C261.976 11.1243 262.176 11.165 262.401 11.165C262.684 11.165 262.936 11.1081 263.157 10.9941C263.379 10.8802 263.571 10.7191 263.734 10.5107L264.354 11.1113C264.24 11.2773 264.092 11.4368 263.909 11.5898C263.727 11.7396 263.504 11.8617 263.24 11.9561C262.98 12.0505 262.677 12.0977 262.332 12.0977ZM266.624 4.5V12H265.443V4.5H266.624ZM271.019 4.89062H272.113L274.168 10.374L276.219 4.89062H277.313L274.598 12H273.729L271.019 4.89062ZM270.521 4.89062H271.561L271.741 9.63672V12H270.521V4.89062ZM276.771 4.89062H277.816V12H276.59V9.63672L276.771 4.89062ZM282.132 10.9404V8.4209C282.132 8.2321 282.098 8.06934 282.03 7.93262C281.961 7.7959 281.857 7.6901 281.717 7.61523C281.58 7.54036 281.408 7.50293 281.199 7.50293C281.007 7.50293 280.841 7.53548 280.701 7.60059C280.561 7.66569 280.452 7.75358 280.374 7.86426C280.296 7.97493 280.257 8.10026 280.257 8.24023H279.085C279.085 8.0319 279.136 7.83008 279.237 7.63477C279.337 7.43945 279.484 7.2653 279.676 7.1123C279.868 6.95931 280.098 6.83887 280.365 6.75098C280.631 6.66309 280.931 6.61914 281.263 6.61914C281.66 6.61914 282.012 6.68587 282.318 6.81934C282.627 6.9528 282.869 7.15462 283.045 7.4248C283.224 7.69173 283.314 8.02702 283.314 8.43066V10.7793C283.314 11.0202 283.33 11.2367 283.363 11.4287C283.398 11.6175 283.449 11.7819 283.514 11.9219V12H282.308C282.253 11.873 282.209 11.7119 282.176 11.5166C282.147 11.318 282.132 11.126 282.132 10.9404ZM282.303 8.78711L282.313 9.51465H281.468C281.25 9.51465 281.058 9.53581 280.892 9.57812C280.726 9.61719 280.587 9.67578 280.477 9.75391C280.366 9.83203 280.283 9.92643 280.228 10.0371C280.172 10.1478 280.145 10.2731 280.145 10.4131C280.145 10.5531 280.177 10.6816 280.242 10.7988C280.308 10.9128 280.402 11.0023 280.526 11.0674C280.653 11.1325 280.806 11.165 280.985 11.165C281.226 11.165 281.435 11.1162 281.615 11.0186C281.797 10.9176 281.94 10.7956 282.044 10.6523C282.148 10.5059 282.204 10.3675 282.21 10.2373L282.591 10.7598C282.552 10.8932 282.485 11.0365 282.391 11.1895C282.296 11.3424 282.173 11.4889 282.02 11.6289C281.87 11.7656 281.689 11.8779 281.478 11.9658C281.269 12.0537 281.029 12.0977 280.755 12.0977C280.41 12.0977 280.102 12.0293 279.832 11.8926C279.562 11.7526 279.351 11.5654 279.198 11.3311C279.045 11.0934 278.968 10.8249 278.968 10.5254C278.968 10.2454 279.02 9.99805 279.124 9.7832C279.232 9.5651 279.388 9.38281 279.593 9.23633C279.801 9.08984 280.055 8.97917 280.355 8.9043C280.654 8.82617 280.996 8.78711 281.38 8.78711H282.303ZM285.726 7.72266V12H284.549V6.7168H285.672L285.726 7.72266ZM287.342 6.68262L287.332 7.77637C287.261 7.76335 287.183 7.75358 287.098 7.74707C287.017 7.74056 286.935 7.7373 286.854 7.7373C286.652 7.7373 286.475 7.7666 286.322 7.8252C286.169 7.88053 286.04 7.96191 285.936 8.06934C285.835 8.1735 285.757 8.30046 285.701 8.4502C285.646 8.59993 285.614 8.76758 285.604 8.95312L285.335 8.97266C285.335 8.64062 285.368 8.33301 285.433 8.0498C285.498 7.7666 285.596 7.51758 285.726 7.30273C285.859 7.08789 286.025 6.92025 286.224 6.7998C286.426 6.67936 286.658 6.61914 286.922 6.61914C286.994 6.61914 287.07 6.62565 287.152 6.63867C287.236 6.65169 287.3 6.66634 287.342 6.68262Z" fill="#101010"/>
<path d="M9.01918 42.7413C4.17538 42.7367 0.250027 38.8185 0.250027 33.9916C0.250027 29.1646 4.17538 25.254 9.01918 25.2586C13.863 25.2633 17.7883 29.1814 17.7883 34.0084C17.7883 38.8354 13.863 42.746 9.01918 42.7413Z" fill="#101010" stroke="white" stroke-width="0.5"/>
<path d="M10.0072 40.5246C6.3955 41.0708 3.0247 38.5952 2.47699 34.997C1.92927 31.3988 4.41164 28.0379 8.02336 27.4917C11.6351 26.9455 15.0059 29.4211 15.5536 33.0193C16.1013 36.6175 13.619 39.9784 10.0072 40.5246Z" fill="#101010" stroke="white" stroke-width="0.5"/>
<ellipse cx="9.09565" cy="33.9955" rx="3.04316" ry="3.0975" fill="#E900FF"/>
<ellipse cx="8.97763" cy="33.9896" rx="1.11777" ry="1.14155" fill="#2301FF"/>
<path d="M27.5198 33.3672V36.082C27.4189 36.2155 27.261 36.362 27.0461 36.5215C26.8346 36.6777 26.553 36.8128 26.2014 36.9268C25.8499 37.0407 25.412 37.0977 24.8879 37.0977C24.442 37.0977 24.0334 37.0228 23.6624 36.873C23.2913 36.7201 22.9706 36.4971 22.7004 36.2041C22.4335 35.9111 22.2268 35.5547 22.0803 35.1348C21.9338 34.7116 21.8606 34.2298 21.8606 33.6895V33.1963C21.8606 32.6592 21.9273 32.1807 22.0608 31.7607C22.1975 31.3376 22.3928 30.9795 22.6467 30.6865C22.9006 30.3936 23.2066 30.1722 23.5647 30.0225C23.926 29.8695 24.3346 29.793 24.7903 29.793C25.373 29.793 25.8547 29.8906 26.2356 30.0859C26.6197 30.278 26.9159 30.5449 27.1243 30.8867C27.3326 31.2285 27.4644 31.6191 27.5198 32.0586H26.3186C26.2795 31.8112 26.203 31.5898 26.0891 31.3945C25.9784 31.1992 25.8189 31.0462 25.6106 30.9355C25.4055 30.8216 25.1386 30.7646 24.8098 30.7646C24.5266 30.7646 24.2776 30.8184 24.0627 30.9258C23.8479 31.0332 23.6689 31.1911 23.5256 31.3994C23.3857 31.6077 23.2799 31.8617 23.2083 32.1611C23.1366 32.4606 23.1008 32.8024 23.1008 33.1865V33.6895C23.1008 34.0801 23.1415 34.4268 23.2229 34.7295C23.3075 35.0322 23.428 35.2878 23.5842 35.4961C23.7437 35.7044 23.9374 35.8623 24.1653 35.9697C24.3931 36.0739 24.6503 36.126 24.9368 36.126C25.2167 36.126 25.4462 36.1032 25.6252 36.0576C25.8043 36.0088 25.9459 35.9518 26.05 35.8867C26.1575 35.8184 26.2405 35.7533 26.2991 35.6914V34.2803H24.8196V33.3672H27.5198ZM30.0198 29.5V37H28.8381V29.5H30.0198ZM34.2874 35.9404V33.4209C34.2874 33.2321 34.2532 33.0693 34.1848 32.9326C34.1165 32.7959 34.0123 32.6901 33.8723 32.6152C33.7356 32.5404 33.5631 32.5029 33.3547 32.5029C33.1627 32.5029 32.9967 32.5355 32.8567 32.6006C32.7167 32.6657 32.6077 32.7536 32.5295 32.8643C32.4514 32.9749 32.4124 33.1003 32.4124 33.2402H31.2405C31.2405 33.0319 31.2909 32.8301 31.3918 32.6348C31.4928 32.4395 31.6392 32.2653 31.8313 32.1123C32.0234 31.9593 32.2528 31.8389 32.5198 31.751C32.7867 31.6631 33.0862 31.6191 33.4182 31.6191C33.8153 31.6191 34.1669 31.6859 34.4729 31.8193C34.7821 31.9528 35.0247 32.1546 35.2004 32.4248C35.3795 32.6917 35.469 33.027 35.469 33.4307V35.7793C35.469 36.0202 35.4853 36.2367 35.5178 36.4287C35.5536 36.6175 35.6041 36.7819 35.6692 36.9219V37H34.4631C34.4078 36.873 34.3639 36.7119 34.3313 36.5166C34.302 36.318 34.2874 36.126 34.2874 35.9404ZM34.4583 33.7871L34.468 34.5146H33.6233C33.4052 34.5146 33.2131 34.5358 33.0471 34.5781C32.8811 34.6172 32.7428 34.6758 32.6321 34.7539C32.5214 34.832 32.4384 34.9264 32.3831 35.0371C32.3277 35.1478 32.3 35.2731 32.3 35.4131C32.3 35.5531 32.3326 35.6816 32.3977 35.7988C32.4628 35.9128 32.5572 36.0023 32.6809 36.0674C32.8079 36.1325 32.9609 36.165 33.1399 36.165C33.3808 36.165 33.5907 36.1162 33.7698 36.0186C33.9521 35.9176 34.0953 35.7956 34.1995 35.6523C34.3036 35.5059 34.359 35.3675 34.3655 35.2373L34.7463 35.7598C34.7073 35.8932 34.6405 36.0365 34.5461 36.1895C34.4517 36.3424 34.328 36.4889 34.175 36.6289C34.0253 36.7656 33.8446 36.8779 33.6331 36.9658C33.4247 37.0537 33.1838 37.0977 32.9104 37.0977C32.5653 37.0977 32.2577 37.0293 31.9875 36.8926C31.7174 36.7526 31.5058 36.5654 31.3528 36.3311C31.1998 36.0934 31.1233 35.8249 31.1233 35.5254C31.1233 35.2454 31.1754 34.998 31.2795 34.7832C31.387 34.5651 31.5432 34.3828 31.7483 34.2363C31.9566 34.0898 32.2105 33.9792 32.51 33.9043C32.8095 33.8262 33.1513 33.7871 33.5354 33.7871H34.4583ZM39.6633 35.5693C39.6633 35.4521 39.634 35.3464 39.5754 35.252C39.5168 35.1543 39.4045 35.0664 39.2385 34.9883C39.0758 34.9102 38.8349 34.8385 38.5159 34.7734C38.2359 34.7116 37.9788 34.6383 37.7444 34.5537C37.5133 34.4658 37.3147 34.36 37.1487 34.2363C36.9827 34.1126 36.8541 33.9661 36.7629 33.7969C36.6718 33.6276 36.6262 33.4323 36.6262 33.2109C36.6262 32.9961 36.6734 32.7926 36.7678 32.6006C36.8622 32.4085 36.9973 32.2393 37.1731 32.0928C37.3489 31.9463 37.5621 31.8307 37.8127 31.7461C38.0667 31.6615 38.3499 31.6191 38.6624 31.6191C39.1051 31.6191 39.4843 31.694 39.8 31.8438C40.1191 31.9902 40.3632 32.1904 40.5325 32.4443C40.7017 32.695 40.7864 32.9782 40.7864 33.2939H39.6096C39.6096 33.154 39.5738 33.0238 39.5022 32.9033C39.4338 32.7796 39.3297 32.6803 39.1897 32.6055C39.0497 32.5273 38.8739 32.4883 38.6624 32.4883C38.4605 32.4883 38.2929 32.5208 38.1594 32.5859C38.0292 32.6478 37.9316 32.7292 37.8665 32.8301C37.8046 32.931 37.7737 33.0417 37.7737 33.1621C37.7737 33.25 37.79 33.3298 37.8225 33.4014C37.8583 33.4697 37.9169 33.5332 37.9983 33.5918C38.0797 33.6471 38.1903 33.6992 38.3303 33.748C38.4736 33.7969 38.6526 33.8441 38.8674 33.8896C39.2711 33.9743 39.6178 34.0833 39.9075 34.2168C40.2004 34.347 40.425 34.5163 40.5813 34.7246C40.7375 34.9297 40.8157 35.1901 40.8157 35.5059C40.8157 35.7402 40.7652 35.9551 40.6643 36.1504C40.5667 36.3424 40.4234 36.5101 40.2346 36.6533C40.0458 36.7933 39.8196 36.9023 39.5559 36.9805C39.2955 37.0586 39.0025 37.0977 38.677 37.0977C38.1985 37.0977 37.7932 37.013 37.4612 36.8438C37.1292 36.6712 36.8769 36.4515 36.7043 36.1846C36.5351 35.9144 36.4504 35.6344 36.4504 35.3447H37.5881C37.6012 35.5628 37.6614 35.737 37.7688 35.8672C37.8795 35.9941 38.0162 36.0869 38.179 36.1455C38.345 36.2008 38.5159 36.2285 38.6917 36.2285C38.9032 36.2285 39.0806 36.2008 39.2239 36.1455C39.3671 36.0869 39.4762 36.0088 39.551 35.9111C39.6259 35.8102 39.6633 35.6963 39.6633 35.5693ZM44.8098 35.5693C44.8098 35.4521 44.7805 35.3464 44.7219 35.252C44.6633 35.1543 44.551 35.0664 44.385 34.9883C44.2222 34.9102 43.9814 34.8385 43.6624 34.7734C43.3824 34.7116 43.1252 34.6383 42.8909 34.5537C42.6597 34.4658 42.4612 34.36 42.2952 34.2363C42.1292 34.1126 42.0006 33.9661 41.9094 33.7969C41.8183 33.6276 41.7727 33.4323 41.7727 33.2109C41.7727 32.9961 41.8199 32.7926 41.9143 32.6006C42.0087 32.4085 42.1438 32.2393 42.3196 32.0928C42.4954 31.9463 42.7086 31.8307 42.9592 31.7461C43.2131 31.6615 43.4963 31.6191 43.8088 31.6191C44.2515 31.6191 44.6308 31.694 44.9465 31.8438C45.2655 31.9902 45.5097 32.1904 45.679 32.4443C45.8482 32.695 45.9329 32.9782 45.9329 33.2939H44.7561C44.7561 33.154 44.7203 33.0238 44.6487 32.9033C44.5803 32.7796 44.4762 32.6803 44.3362 32.6055C44.1962 32.5273 44.0204 32.4883 43.8088 32.4883C43.607 32.4883 43.4394 32.5208 43.3059 32.5859C43.1757 32.6478 43.078 32.7292 43.0129 32.8301C42.9511 32.931 42.9202 33.0417 42.9202 33.1621C42.9202 33.25 42.9364 33.3298 42.969 33.4014C43.0048 33.4697 43.0634 33.5332 43.1448 33.5918C43.2262 33.6471 43.3368 33.6992 43.4768 33.748C43.62 33.7969 43.7991 33.8441 44.0139 33.8896C44.4176 33.9743 44.7642 34.0833 45.054 34.2168C45.3469 34.347 45.5715 34.5163 45.7278 34.7246C45.884 34.9297 45.9622 35.1901 45.9622 35.5059C45.9622 35.7402 45.9117 35.9551 45.8108 36.1504C45.7131 36.3424 45.5699 36.5101 45.3811 36.6533C45.1923 36.7933 44.9661 36.9023 44.7024 36.9805C44.442 37.0586 44.149 37.0977 43.8235 37.0977C43.345 37.0977 42.9397 37.013 42.6077 36.8438C42.2756 36.6712 42.0234 36.4515 41.8508 36.1846C41.6816 35.9144 41.5969 35.6344 41.5969 35.3447H42.7346C42.7476 35.5628 42.8079 35.737 42.9153 35.8672C43.026 35.9941 43.1627 36.0869 43.3254 36.1455C43.4915 36.2008 43.6624 36.2285 43.8381 36.2285C44.0497 36.2285 44.2271 36.2008 44.3704 36.1455C44.5136 36.0869 44.6226 36.0088 44.6975 35.9111C44.7724 35.8102 44.8098 35.6963 44.8098 35.5693ZM52.3684 30.8379L50.2444 37H48.9602L51.636 29.8906H52.4563L52.3684 30.8379ZM54.1458 37L52.0168 30.8379L51.9241 29.8906H52.7493L55.4348 37H54.1458ZM54.0432 34.3633V35.335H50.176V34.3633H54.0432ZM57.1926 32.8447V37H56.0159V31.7168H57.1243L57.1926 32.8447ZM56.9827 34.1631L56.6018 34.1582C56.6051 33.7839 56.6571 33.4404 56.7581 33.1279C56.8622 32.8154 57.0055 32.5469 57.1877 32.3223C57.3733 32.0977 57.5946 31.9251 57.8518 31.8047C58.109 31.681 58.3954 31.6191 58.7112 31.6191C58.9651 31.6191 59.1946 31.6549 59.3997 31.7266C59.608 31.7949 59.7854 31.9072 59.9319 32.0635C60.0816 32.2197 60.1956 32.4232 60.2737 32.6738C60.3518 32.9212 60.3909 33.2256 60.3909 33.5869V37H59.2092V33.582C59.2092 33.3281 59.1718 33.1279 59.0969 32.9814C59.0253 32.8317 58.9195 32.7259 58.7795 32.6641C58.6428 32.599 58.4719 32.5664 58.2668 32.5664C58.065 32.5664 57.8844 32.6087 57.7249 32.6934C57.5653 32.778 57.4303 32.8936 57.3196 33.04C57.2122 33.1865 57.1292 33.3558 57.0706 33.5479C57.012 33.7399 56.9827 33.945 56.9827 34.1631ZM62.8518 31.7168V37H61.6702V31.7168H62.8518ZM61.592 30.3301C61.592 30.151 61.6506 30.0029 61.7678 29.8857C61.8883 29.7653 62.0543 29.7051 62.2659 29.7051C62.4742 29.7051 62.6386 29.7653 62.759 29.8857C62.8795 30.0029 62.9397 30.151 62.9397 30.3301C62.9397 30.5059 62.8795 30.6523 62.759 30.7695C62.6386 30.8867 62.4742 30.9453 62.2659 30.9453C62.0543 30.9453 61.8883 30.8867 61.7678 30.7695C61.6506 30.6523 61.592 30.5059 61.592 30.3301ZM65.3176 32.791V37H64.1409V31.7168H65.2493L65.3176 32.791ZM65.1272 34.1631L64.7268 34.1582C64.7268 33.7936 64.7724 33.4567 64.8635 33.1475C64.9547 32.8382 65.0881 32.5697 65.2639 32.3418C65.4397 32.1107 65.6578 31.9333 65.9182 31.8096C66.1819 31.6826 66.4862 31.6191 66.8313 31.6191C67.0722 31.6191 67.2919 31.6549 67.4905 31.7266C67.6923 31.7949 67.8665 31.904 68.0129 32.0537C68.1627 32.2035 68.2766 32.3955 68.3547 32.6299C68.4361 32.8643 68.4768 33.1475 68.4768 33.4795V37H67.3V33.582C67.3 33.3249 67.261 33.123 67.1829 32.9766C67.108 32.8301 66.9989 32.7259 66.8557 32.6641C66.7157 32.599 66.5481 32.5664 66.3528 32.5664C66.1314 32.5664 65.9426 32.6087 65.7864 32.6934C65.6334 32.778 65.5081 32.8936 65.4104 33.04C65.3127 33.1865 65.2411 33.3558 65.1956 33.5479C65.15 33.7399 65.1272 33.945 65.1272 34.1631ZM68.4036 33.8506L67.8518 33.9727C67.8518 33.6536 67.8958 33.3525 67.9836 33.0693C68.0748 32.7829 68.2066 32.5322 68.3792 32.3174C68.5549 32.0993 68.7714 31.9284 69.0286 31.8047C69.2857 31.681 69.5803 31.6191 69.9124 31.6191C70.1825 31.6191 70.4234 31.6566 70.635 31.7314C70.8499 31.8031 71.0321 31.917 71.1819 32.0732C71.3316 32.2295 71.4456 32.4329 71.5237 32.6836C71.6018 32.931 71.6409 33.2305 71.6409 33.582V37H70.4592V33.5771C70.4592 33.3102 70.4202 33.1035 70.342 32.957C70.2672 32.8105 70.1597 32.7096 70.0198 32.6543C69.8798 32.5957 69.7122 32.5664 69.5168 32.5664C69.3346 32.5664 69.1734 32.6006 69.0334 32.6689C68.8967 32.734 68.7812 32.8268 68.6868 32.9473C68.5924 33.0645 68.5208 33.1995 68.4719 33.3525C68.4264 33.5055 68.4036 33.6715 68.4036 33.8506ZM75.8303 35.9404V33.4209C75.8303 33.2321 75.7961 33.0693 75.7278 32.9326C75.6594 32.7959 75.5553 32.6901 75.4153 32.6152C75.2786 32.5404 75.106 32.5029 74.8977 32.5029C74.7056 32.5029 74.5396 32.5355 74.3997 32.6006C74.2597 32.6657 74.1506 32.7536 74.0725 32.8643C73.9944 32.9749 73.9553 33.1003 73.9553 33.2402H72.7834C72.7834 33.0319 72.8339 32.8301 72.9348 32.6348C73.0357 32.4395 73.1822 32.2653 73.3743 32.1123C73.5663 31.9593 73.7958 31.8389 74.0627 31.751C74.3297 31.6631 74.6292 31.6191 74.9612 31.6191C75.3583 31.6191 75.7099 31.6859 76.0159 31.8193C76.3251 31.9528 76.5676 32.1546 76.7434 32.4248C76.9224 32.6917 77.012 33.027 77.012 33.4307V35.7793C77.012 36.0202 77.0282 36.2367 77.0608 36.4287C77.0966 36.6175 77.1471 36.7819 77.2122 36.9219V37H76.0061C75.9508 36.873 75.9068 36.7119 75.8743 36.5166C75.845 36.318 75.8303 36.126 75.8303 35.9404ZM76.0012 33.7871L76.011 34.5146H75.1663C74.9482 34.5146 74.7561 34.5358 74.5901 34.5781C74.4241 34.6172 74.2857 34.6758 74.175 34.7539C74.0644 34.832 73.9814 34.9264 73.926 35.0371C73.8707 35.1478 73.843 35.2731 73.843 35.4131C73.843 35.5531 73.8756 35.6816 73.9407 35.7988C74.0058 35.9128 74.1002 36.0023 74.2239 36.0674C74.3508 36.1325 74.5038 36.165 74.6829 36.165C74.9237 36.165 75.1337 36.1162 75.3127 36.0186C75.495 35.9176 75.6383 35.7956 75.7424 35.6523C75.8466 35.5059 75.9019 35.3675 75.9084 35.2373L76.2893 35.7598C76.2502 35.8932 76.1835 36.0365 76.0891 36.1895C75.9947 36.3424 75.871 36.4889 75.718 36.6289C75.5683 36.7656 75.3876 36.8779 75.176 36.9658C74.9677 37.0537 74.7268 37.0977 74.4534 37.0977C74.1083 37.0977 73.8007 37.0293 73.5305 36.8926C73.2603 36.7526 73.0487 36.5654 72.8958 36.3311C72.7428 36.0934 72.6663 35.8249 72.6663 35.5254C72.6663 35.2454 72.7183 34.998 72.8225 34.7832C72.9299 34.5651 73.0862 34.3828 73.2913 34.2363C73.4996 34.0898 73.7535 33.9792 74.053 33.9043C74.3525 33.8262 74.6943 33.7871 75.0784 33.7871H76.0012ZM79.5022 29.5V37H78.3206V29.5H79.5022ZM83.7551 35.5693C83.7551 35.4521 83.7258 35.3464 83.6672 35.252C83.6086 35.1543 83.4963 35.0664 83.3303 34.9883C83.1676 34.9102 82.9267 34.8385 82.6077 34.7734C82.3277 34.7116 82.0706 34.6383 81.8362 34.5537C81.6051 34.4658 81.4065 34.36 81.2405 34.2363C81.0745 34.1126 80.9459 33.9661 80.8547 33.7969C80.7636 33.6276 80.718 33.4323 80.718 33.2109C80.718 32.9961 80.7652 32.7926 80.8596 32.6006C80.954 32.4085 81.0891 32.2393 81.2649 32.0928C81.4407 31.9463 81.6539 31.8307 81.9045 31.7461C82.1584 31.6615 82.4417 31.6191 82.7542 31.6191C83.1969 31.6191 83.5761 31.694 83.8918 31.8438C84.2109 31.9902 84.455 32.1904 84.6243 32.4443C84.7935 32.695 84.8782 32.9782 84.8782 33.2939H83.7014C83.7014 33.154 83.6656 33.0238 83.594 32.9033C83.5256 32.7796 83.4215 32.6803 83.2815 32.6055C83.1415 32.5273 82.9657 32.4883 82.7542 32.4883C82.5523 32.4883 82.3847 32.5208 82.2512 32.5859C82.121 32.6478 82.0234 32.7292 81.9583 32.8301C81.8964 32.931 81.8655 33.0417 81.8655 33.1621C81.8655 33.25 81.8818 33.3298 81.9143 33.4014C81.9501 33.4697 82.0087 33.5332 82.0901 33.5918C82.1715 33.6471 82.2821 33.6992 82.4221 33.748C82.5653 33.7969 82.7444 33.8441 82.9592 33.8896C83.3629 33.9743 83.7096 34.0833 83.9993 34.2168C84.2922 34.347 84.5168 34.5163 84.6731 34.7246C84.8293 34.9297 84.9075 35.1901 84.9075 35.5059C84.9075 35.7402 84.857 35.9551 84.7561 36.1504C84.6584 36.3424 84.5152 36.5101 84.3264 36.6533C84.1376 36.7933 83.9114 36.9023 83.6477 36.9805C83.3873 37.0586 83.0943 37.0977 82.7688 37.0977C82.2903 37.0977 81.885 37.013 81.553 36.8438C81.2209 36.6712 80.9687 36.4515 80.7961 36.1846C80.6269 35.9144 80.5422 35.6344 80.5422 35.3447H81.6799C81.693 35.5628 81.7532 35.737 81.8606 35.8672C81.9713 35.9941 82.108 36.0869 82.2708 36.1455C82.4368 36.2008 82.6077 36.2285 82.7834 36.2285C82.995 36.2285 83.1724 36.2008 83.3157 36.1455C83.4589 36.0869 83.568 36.0088 83.6428 35.9111C83.7177 35.8102 83.7551 35.6963 83.7551 35.5693ZM90.7961 33.4941V34.4316H88.2131V33.4941H90.7961ZM99.1311 32.8594V33.8311H95.3567V32.8594H99.1311ZM95.6594 29.8906V37H94.4338V29.8906H95.6594ZM100.073 29.8906V37H98.8528V29.8906H100.073ZM103.745 37.0977C103.355 37.0977 103.002 37.0342 102.686 36.9072C102.373 36.777 102.106 36.5964 101.885 36.3652C101.667 36.1341 101.499 35.8623 101.382 35.5498C101.265 35.2373 101.206 34.9004 101.206 34.5391V34.3438C101.206 33.9303 101.267 33.556 101.387 33.2207C101.507 32.8854 101.675 32.599 101.89 32.3613C102.105 32.1204 102.359 31.9365 102.652 31.8096C102.945 31.6826 103.262 31.6191 103.604 31.6191C103.981 31.6191 104.312 31.6826 104.595 31.8096C104.878 31.9365 105.113 32.1156 105.298 32.3467C105.487 32.5745 105.627 32.8464 105.718 33.1621C105.812 33.4779 105.86 33.8262 105.86 34.207V34.71H101.778V33.8652H104.698V33.7725C104.691 33.5609 104.649 33.3623 104.571 33.1768C104.496 32.9912 104.38 32.8415 104.224 32.7275C104.068 32.6136 103.859 32.5566 103.599 32.5566C103.404 32.5566 103.229 32.599 103.076 32.6836C102.927 32.765 102.801 32.8838 102.7 33.04C102.6 33.1963 102.521 33.3851 102.466 33.6064C102.414 33.8245 102.388 34.0703 102.388 34.3438V34.5391C102.388 34.7702 102.419 34.985 102.481 35.1836C102.546 35.3789 102.64 35.5498 102.764 35.6963C102.888 35.8428 103.037 35.9583 103.213 36.043C103.389 36.1243 103.589 36.165 103.814 36.165C104.097 36.165 104.349 36.1081 104.571 35.9941C104.792 35.8802 104.984 35.7191 105.147 35.5107L105.767 36.1113C105.653 36.2773 105.505 36.4368 105.323 36.5898C105.14 36.7396 104.917 36.8617 104.654 36.9561C104.393 37.0505 104.09 37.0977 103.745 37.0977ZM109.756 35.9404V33.4209C109.756 33.2321 109.722 33.0693 109.654 32.9326C109.585 32.7959 109.481 32.6901 109.341 32.6152C109.204 32.5404 109.032 32.5029 108.823 32.5029C108.631 32.5029 108.465 32.5355 108.325 32.6006C108.185 32.6657 108.076 32.7536 107.998 32.8643C107.92 32.9749 107.881 33.1003 107.881 33.2402H106.709C106.709 33.0319 106.76 32.8301 106.861 32.6348C106.962 32.4395 107.108 32.2653 107.3 32.1123C107.492 31.9593 107.722 31.8389 107.989 31.751C108.255 31.6631 108.555 31.6191 108.887 31.6191C109.284 31.6191 109.636 31.6859 109.942 31.8193C110.251 31.9528 110.493 32.1546 110.669 32.4248C110.848 32.6917 110.938 33.027 110.938 33.4307V35.7793C110.938 36.0202 110.954 36.2367 110.987 36.4287C111.022 36.6175 111.073 36.7819 111.138 36.9219V37H109.932C109.877 36.873 109.833 36.7119 109.8 36.5166C109.771 36.318 109.756 36.126 109.756 35.9404ZM109.927 33.7871L109.937 34.5146H109.092C108.874 34.5146 108.682 34.5358 108.516 34.5781C108.35 34.6172 108.212 34.6758 108.101 34.7539C107.99 34.832 107.907 34.9264 107.852 35.0371C107.796 35.1478 107.769 35.2731 107.769 35.4131C107.769 35.5531 107.801 35.6816 107.866 35.7988C107.932 35.9128 108.026 36.0023 108.15 36.0674C108.277 36.1325 108.43 36.165 108.609 36.165C108.85 36.165 109.059 36.1162 109.239 36.0186C109.421 35.9176 109.564 35.7956 109.668 35.6523C109.772 35.5059 109.828 35.3675 109.834 35.2373L110.215 35.7598C110.176 35.8932 110.109 36.0365 110.015 36.1895C109.92 36.3424 109.797 36.4889 109.644 36.6289C109.494 36.7656 109.313 36.8779 109.102 36.9658C108.893 37.0537 108.653 37.0977 108.379 37.0977C108.034 37.0977 107.726 37.0293 107.456 36.8926C107.186 36.7526 106.975 36.5654 106.822 36.3311C106.669 36.0934 106.592 35.8249 106.592 35.5254C106.592 35.2454 106.644 34.998 106.748 34.7832C106.856 34.5651 107.012 34.3828 107.217 34.2363C107.425 34.0898 107.679 33.9792 107.979 33.9043C108.278 33.8262 108.62 33.7871 109.004 33.7871H109.927ZM114.59 31.7168V32.5762H111.612V31.7168H114.59ZM112.471 30.4229H113.648V35.54C113.648 35.7028 113.67 35.8281 113.716 35.916C113.765 36.0007 113.832 36.0576 113.916 36.0869C114.001 36.1162 114.1 36.1309 114.214 36.1309C114.295 36.1309 114.374 36.126 114.448 36.1162C114.523 36.1064 114.584 36.0967 114.629 36.0869L114.634 36.9854C114.536 37.0146 114.422 37.0407 114.292 37.0635C114.165 37.0863 114.019 37.0977 113.853 37.0977C113.583 37.0977 113.343 37.0505 113.135 36.9561C112.927 36.8584 112.764 36.7005 112.647 36.4824C112.53 36.2643 112.471 35.9746 112.471 35.6133V30.4229ZM119.888 35.4033L121.304 29.8906H122.046L121.963 31.3115L120.449 37H119.678L119.888 35.4033ZM118.828 29.8906L119.976 35.3594L120.078 37H119.258L117.613 29.8906H118.828ZM123.653 35.3447L124.785 29.8906H126.006L124.361 37H123.54L123.653 35.3447ZM122.334 29.8906L123.736 35.418L123.941 37H123.169L121.68 31.3115L121.602 29.8906H122.334ZM129.61 35.9404V33.4209C129.61 33.2321 129.575 33.0693 129.507 32.9326C129.439 32.7959 129.335 32.6901 129.195 32.6152C129.058 32.5404 128.885 32.5029 128.677 32.5029C128.485 32.5029 128.319 32.5355 128.179 32.6006C128.039 32.6657 127.93 32.7536 127.852 32.8643C127.774 32.9749 127.735 33.1003 127.735 33.2402H126.563C126.563 33.0319 126.613 32.8301 126.714 32.6348C126.815 32.4395 126.962 32.2653 127.154 32.1123C127.346 31.9593 127.575 31.8389 127.842 31.751C128.109 31.6631 128.408 31.6191 128.74 31.6191C129.138 31.6191 129.489 31.6859 129.795 31.8193C130.104 31.9528 130.347 32.1546 130.523 32.4248C130.702 32.6917 130.791 33.027 130.791 33.4307V35.7793C130.791 36.0202 130.808 36.2367 130.84 36.4287C130.876 36.6175 130.926 36.7819 130.991 36.9219V37H129.785C129.73 36.873 129.686 36.7119 129.654 36.5166C129.624 36.318 129.61 36.126 129.61 35.9404ZM129.781 33.7871L129.79 34.5146H128.946C128.727 34.5146 128.535 34.5358 128.369 34.5781C128.203 34.6172 128.065 34.6758 127.954 34.7539C127.844 34.832 127.761 34.9264 127.705 35.0371C127.65 35.1478 127.622 35.2731 127.622 35.4131C127.622 35.5531 127.655 35.6816 127.72 35.7988C127.785 35.9128 127.879 36.0023 128.003 36.0674C128.13 36.1325 128.283 36.165 128.462 36.165C128.703 36.165 128.913 36.1162 129.092 36.0186C129.274 35.9176 129.418 35.7956 129.522 35.6523C129.626 35.5059 129.681 35.3675 129.688 35.2373L130.069 35.7598C130.03 35.8932 129.963 36.0365 129.868 36.1895C129.774 36.3424 129.65 36.4889 129.497 36.6289C129.348 36.7656 129.167 36.8779 128.955 36.9658C128.747 37.0537 128.506 37.0977 128.233 37.0977C127.888 37.0977 127.58 37.0293 127.31 36.8926C127.04 36.7526 126.828 36.5654 126.675 36.3311C126.522 36.0934 126.446 35.8249 126.446 35.5254C126.446 35.2454 126.498 34.998 126.602 34.7832C126.709 34.5651 126.865 34.3828 127.071 34.2363C127.279 34.0898 127.533 33.9792 127.832 33.9043C128.132 33.8262 128.474 33.7871 128.858 33.7871H129.781ZM133.662 36.0674L134.956 31.7168H136.177L134.341 37H133.579L133.662 36.0674ZM132.671 31.7168L133.99 36.0869L134.053 37H133.291L131.446 31.7168H132.671ZM139.165 37.0977C138.775 37.0977 138.421 37.0342 138.106 36.9072C137.793 36.777 137.526 36.5964 137.305 36.3652C137.087 36.1341 136.919 35.8623 136.802 35.5498C136.685 35.2373 136.626 34.9004 136.626 34.5391V34.3438C136.626 33.9303 136.686 33.556 136.807 33.2207C136.927 32.8854 137.095 32.599 137.31 32.3613C137.525 32.1204 137.779 31.9365 138.072 31.8096C138.365 31.6826 138.682 31.6191 139.024 31.6191C139.401 31.6191 139.732 31.6826 140.015 31.8096C140.298 31.9365 140.532 32.1156 140.718 32.3467C140.907 32.5745 141.047 32.8464 141.138 33.1621C141.232 33.4779 141.28 33.8262 141.28 34.207V34.71H137.198V33.8652H140.117V33.7725C140.111 33.5609 140.069 33.3623 139.99 33.1768C139.916 32.9912 139.8 32.8415 139.644 32.7275C139.488 32.6136 139.279 32.5566 139.019 32.5566C138.823 32.5566 138.649 32.599 138.496 32.6836C138.347 32.765 138.221 32.8838 138.12 33.04C138.019 33.1963 137.941 33.3851 137.886 33.6064C137.834 33.8245 137.808 34.0703 137.808 34.3438V34.5391C137.808 34.7702 137.839 34.985 137.901 35.1836C137.966 35.3789 138.06 35.5498 138.184 35.6963C138.308 35.8428 138.457 35.9583 138.633 36.043C138.809 36.1243 139.009 36.165 139.234 36.165C139.517 36.165 139.769 36.1081 139.99 35.9941C140.212 35.8802 140.404 35.7191 140.567 35.5107L141.187 36.1113C141.073 36.2773 140.925 36.4368 140.742 36.5898C140.56 36.7396 140.337 36.8617 140.073 36.9561C139.813 37.0505 139.51 37.0977 139.165 37.0977ZM145.161 35.5693C145.161 35.4521 145.132 35.3464 145.073 35.252C145.015 35.1543 144.903 35.0664 144.737 34.9883C144.574 34.9102 144.333 34.8385 144.014 34.7734C143.734 34.7116 143.477 34.6383 143.242 34.5537C143.011 34.4658 142.813 34.36 142.647 34.2363C142.481 34.1126 142.352 33.9661 142.261 33.7969C142.17 33.6276 142.124 33.4323 142.124 33.2109C142.124 32.9961 142.171 32.7926 142.266 32.6006C142.36 32.4085 142.495 32.2393 142.671 32.0928C142.847 31.9463 143.06 31.8307 143.311 31.7461C143.565 31.6615 143.848 31.6191 144.16 31.6191C144.603 31.6191 144.982 31.694 145.298 31.8438C145.617 31.9902 145.861 32.1904 146.031 32.4443C146.2 32.695 146.284 32.9782 146.284 33.2939H145.108C145.108 33.154 145.072 33.0238 145 32.9033C144.932 32.7796 144.828 32.6803 144.688 32.6055C144.548 32.5273 144.372 32.4883 144.16 32.4883C143.959 32.4883 143.791 32.5208 143.657 32.5859C143.527 32.6478 143.43 32.7292 143.365 32.8301C143.303 32.931 143.272 33.0417 143.272 33.1621C143.272 33.25 143.288 33.3298 143.321 33.4014C143.356 33.4697 143.415 33.5332 143.496 33.5918C143.578 33.6471 143.688 33.6992 143.828 33.748C143.972 33.7969 144.151 33.8441 144.365 33.8896C144.769 33.9743 145.116 34.0833 145.406 34.2168C145.698 34.347 145.923 34.5163 146.079 34.7246C146.236 34.9297 146.314 35.1901 146.314 35.5059C146.314 35.7402 146.263 35.9551 146.162 36.1504C146.065 36.3424 145.921 36.5101 145.733 36.6533C145.544 36.7933 145.318 36.9023 145.054 36.9805C144.794 37.0586 144.501 37.0977 144.175 37.0977C143.697 37.0977 143.291 37.013 142.959 36.8438C142.627 36.6712 142.375 36.4515 142.202 36.1846C142.033 35.9144 141.948 35.6344 141.948 35.3447H143.086C143.099 35.5628 143.159 35.737 143.267 35.8672C143.378 35.9941 143.514 36.0869 143.677 36.1455C143.843 36.2008 144.014 36.2285 144.19 36.2285C144.401 36.2285 144.579 36.2008 144.722 36.1455C144.865 36.0869 144.974 36.0088 145.049 35.9111C145.124 35.8102 145.161 35.6963 145.161 35.5693Z" fill="#101010"/>
<path d="M204.019 42.7413C199.175 42.7367 195.25 38.8185 195.25 33.9916C195.25 29.1646 199.175 25.254 204.019 25.2586C208.863 25.2633 212.788 29.1814 212.788 34.0084C212.788 38.8354 208.863 42.746 204.019 42.7413Z" fill="#101010" stroke="white" stroke-width="0.5"/>
<path d="M205.007 40.5246C201.395 41.0708 198.025 38.5952 197.477 34.997C196.929 31.3988 199.412 28.0379 203.023 27.4917C206.635 26.9455 210.006 29.4211 210.554 33.0193C211.101 36.6175 208.619 39.9784 205.007 40.5246Z" fill="#101010" stroke="white" stroke-width="0.5"/>
<ellipse cx="204.096" cy="33.9955" rx="3.04316" ry="3.0975" fill="#2301FF"/>
<ellipse cx="203.978" cy="33.9896" rx="1.11777" ry="1.14155" fill="#E900FF"/>
<path d="M217.256 29.8906H219.771C220.311 29.8906 220.772 29.972 221.153 30.1348C221.533 30.2975 221.825 30.5384 222.027 30.8574C222.232 31.1732 222.334 31.5638 222.334 32.0293C222.334 32.3841 222.269 32.6966 222.139 32.9668C222.009 33.237 221.825 33.4648 221.587 33.6504C221.35 33.8327 221.066 33.9743 220.738 34.0752L220.366 34.2559H218.106L218.096 33.2842H219.79C220.083 33.2842 220.327 33.2321 220.523 33.1279C220.718 33.0238 220.865 32.8822 220.962 32.7031C221.063 32.5208 221.114 32.3158 221.114 32.0879C221.114 31.8405 221.065 31.6257 220.967 31.4434C220.873 31.2578 220.726 31.1162 220.528 31.0186C220.329 30.9176 220.077 30.8672 219.771 30.8672H218.482V37H217.256V29.8906ZM221.314 37L219.644 33.8066L220.928 33.8018L222.622 36.9365V37H221.314ZM225.767 37.0977C225.376 37.0977 225.023 37.0342 224.707 36.9072C224.395 36.777 224.128 36.5964 223.906 36.3652C223.688 36.1341 223.521 35.8623 223.404 35.5498C223.286 35.2373 223.228 34.9004 223.228 34.5391V34.3438C223.228 33.9303 223.288 33.556 223.408 33.2207C223.529 32.8854 223.697 32.599 223.911 32.3613C224.126 32.1204 224.38 31.9365 224.673 31.8096C224.966 31.6826 225.283 31.6191 225.625 31.6191C226.003 31.6191 226.333 31.6826 226.616 31.8096C226.9 31.9365 227.134 32.1156 227.32 32.3467C227.508 32.5745 227.648 32.8464 227.74 33.1621C227.834 33.4779 227.881 33.8262 227.881 34.207V34.71H223.799V33.8652H226.719V33.7725C226.712 33.5609 226.67 33.3623 226.592 33.1768C226.517 32.9912 226.402 32.8415 226.245 32.7275C226.089 32.6136 225.881 32.5566 225.62 32.5566C225.425 32.5566 225.251 32.599 225.098 32.6836C224.948 32.765 224.823 32.8838 224.722 33.04C224.621 33.1963 224.543 33.3851 224.488 33.6064C224.435 33.8245 224.409 34.0703 224.409 34.3438V34.5391C224.409 34.7702 224.44 34.985 224.502 35.1836C224.567 35.3789 224.662 35.5498 224.785 35.6963C224.909 35.8428 225.059 35.9583 225.235 36.043C225.41 36.1243 225.611 36.165 225.835 36.165C226.118 36.165 226.371 36.1081 226.592 35.9941C226.813 35.8802 227.005 35.7191 227.168 35.5107L227.788 36.1113C227.674 36.2773 227.526 36.4368 227.344 36.5898C227.162 36.7396 226.939 36.8617 226.675 36.9561C226.415 37.0505 226.112 37.0977 225.767 37.0977ZM229.976 32.791V37H228.799V31.7168H229.907L229.976 32.791ZM229.785 34.1631L229.385 34.1582C229.385 33.7936 229.431 33.4567 229.522 33.1475C229.613 32.8382 229.746 32.5697 229.922 32.3418C230.098 32.1107 230.316 31.9333 230.576 31.8096C230.84 31.6826 231.144 31.6191 231.49 31.6191C231.73 31.6191 231.95 31.6549 232.149 31.7266C232.351 31.7949 232.525 31.904 232.671 32.0537C232.821 32.2035 232.935 32.3955 233.013 32.6299C233.094 32.8643 233.135 33.1475 233.135 33.4795V37H231.958V33.582C231.958 33.3249 231.919 33.123 231.841 32.9766C231.766 32.8301 231.657 32.7259 231.514 32.6641C231.374 32.599 231.206 32.5664 231.011 32.5664C230.79 32.5664 230.601 32.6087 230.445 32.6934C230.292 32.778 230.166 32.8936 230.069 33.04C229.971 33.1865 229.899 33.3558 229.854 33.5479C229.808 33.7399 229.785 33.945 229.785 34.1631ZM233.062 33.8506L232.51 33.9727C232.51 33.6536 232.554 33.3525 232.642 33.0693C232.733 32.7829 232.865 32.5322 233.037 32.3174C233.213 32.0993 233.43 31.9284 233.687 31.8047C233.944 31.681 234.239 31.6191 234.571 31.6191C234.841 31.6191 235.082 31.6566 235.293 31.7314C235.508 31.8031 235.69 31.917 235.84 32.0732C235.99 32.2295 236.104 32.4329 236.182 32.6836C236.26 32.931 236.299 33.2305 236.299 33.582V37H235.117V33.5771C235.117 33.3102 235.078 33.1035 235 32.957C234.925 32.8105 234.818 32.7096 234.678 32.6543C234.538 32.5957 234.37 32.5664 234.175 32.5664C233.993 32.5664 233.832 32.6006 233.692 32.6689C233.555 32.734 233.439 32.8268 233.345 32.9473C233.251 33.0645 233.179 33.1995 233.13 33.3525C233.085 33.5055 233.062 33.6715 233.062 33.8506ZM240.489 35.9404V33.4209C240.489 33.2321 240.454 33.0693 240.386 32.9326C240.318 32.7959 240.213 32.6901 240.073 32.6152C239.937 32.5404 239.764 32.5029 239.556 32.5029C239.364 32.5029 239.198 32.5355 239.058 32.6006C238.918 32.6657 238.809 32.7536 238.731 32.8643C238.653 32.9749 238.614 33.1003 238.614 33.2402H237.442C237.442 33.0319 237.492 32.8301 237.593 32.6348C237.694 32.4395 237.84 32.2653 238.032 32.1123C238.225 31.9593 238.454 31.8389 238.721 31.751C238.988 31.6631 239.287 31.6191 239.619 31.6191C240.017 31.6191 240.368 31.6859 240.674 31.8193C240.983 31.9528 241.226 32.1546 241.402 32.4248C241.581 32.6917 241.67 33.027 241.67 33.4307V35.7793C241.67 36.0202 241.686 36.2367 241.719 36.4287C241.755 36.6175 241.805 36.7819 241.87 36.9219V37H240.664C240.609 36.873 240.565 36.7119 240.532 36.5166C240.503 36.318 240.489 36.126 240.489 35.9404ZM240.659 33.7871L240.669 34.5146H239.824C239.606 34.5146 239.414 34.5358 239.248 34.5781C239.082 34.6172 238.944 34.6758 238.833 34.7539C238.723 34.832 238.64 34.9264 238.584 35.0371C238.529 35.1478 238.501 35.2731 238.501 35.4131C238.501 35.5531 238.534 35.6816 238.599 35.7988C238.664 35.9128 238.758 36.0023 238.882 36.0674C239.009 36.1325 239.162 36.165 239.341 36.165C239.582 36.165 239.792 36.1162 239.971 36.0186C240.153 35.9176 240.296 35.7956 240.401 35.6523C240.505 35.5059 240.56 35.3675 240.567 35.2373L240.948 35.7598C240.908 35.8932 240.842 36.0365 240.747 36.1895C240.653 36.3424 240.529 36.4889 240.376 36.6289C240.226 36.7656 240.046 36.8779 239.834 36.9658C239.626 37.0537 239.385 37.0977 239.112 37.0977C238.767 37.0977 238.459 37.0293 238.189 36.8926C237.919 36.7526 237.707 36.5654 237.554 36.3311C237.401 36.0934 237.324 35.8249 237.324 35.5254C237.324 35.2454 237.377 34.998 237.481 34.7832C237.588 34.5651 237.744 34.3828 237.949 34.2363C238.158 34.0898 238.412 33.9792 238.711 33.9043C239.011 33.8262 239.352 33.7871 239.737 33.7871H240.659ZM247.759 33.4941V34.4316H245.176V33.4941H247.759ZM255.596 34.6855H256.817C256.778 35.151 256.647 35.5661 256.426 35.9307C256.205 36.292 255.894 36.5768 255.493 36.7852C255.093 36.9935 254.606 37.0977 254.033 37.0977C253.594 37.0977 253.198 37.0195 252.847 36.8633C252.495 36.7038 252.194 36.4792 251.944 36.1895C251.693 35.8965 251.501 35.5433 251.367 35.1299C251.237 34.7165 251.172 34.2542 251.172 33.7432V33.1523C251.172 32.6413 251.239 32.179 251.372 31.7656C251.509 31.3522 251.704 30.999 251.958 30.7061C252.212 30.4098 252.517 30.1836 252.871 30.0273C253.229 29.8711 253.631 29.793 254.077 29.793C254.644 29.793 255.122 29.8971 255.513 30.1055C255.904 30.3138 256.206 30.6019 256.421 30.9697C256.639 31.3376 256.773 31.7591 256.822 32.2344H255.601C255.568 31.9284 255.497 31.6663 255.386 31.4482C255.279 31.2301 255.119 31.0641 254.907 30.9502C254.696 30.833 254.419 30.7744 254.077 30.7744C253.797 30.7744 253.553 30.8265 253.345 30.9307C253.137 31.0348 252.962 31.1878 252.823 31.3896C252.683 31.5915 252.577 31.8405 252.505 32.1367C252.437 32.4297 252.403 32.765 252.403 33.1426V33.7432C252.403 34.1012 252.434 34.4268 252.495 34.7197C252.56 35.0094 252.658 35.2585 252.788 35.4668C252.922 35.6751 253.091 35.8363 253.296 35.9502C253.501 36.0641 253.747 36.1211 254.033 36.1211C254.382 36.1211 254.663 36.0658 254.878 35.9551C255.096 35.8444 255.261 35.6833 255.371 35.4717C255.485 35.2568 255.56 34.9948 255.596 34.6855ZM260.791 35.9404V33.4209C260.791 33.2321 260.757 33.0693 260.689 32.9326C260.62 32.7959 260.516 32.6901 260.376 32.6152C260.24 32.5404 260.067 32.5029 259.859 32.5029C259.667 32.5029 259.501 32.5355 259.361 32.6006C259.221 32.6657 259.112 32.7536 259.033 32.8643C258.955 32.9749 258.916 33.1003 258.916 33.2402H257.744C257.744 33.0319 257.795 32.8301 257.896 32.6348C257.997 32.4395 258.143 32.2653 258.335 32.1123C258.527 31.9593 258.757 31.8389 259.024 31.751C259.291 31.6631 259.59 31.6191 259.922 31.6191C260.319 31.6191 260.671 31.6859 260.977 31.8193C261.286 31.9528 261.529 32.1546 261.704 32.4248C261.883 32.6917 261.973 33.027 261.973 33.4307V35.7793C261.973 36.0202 261.989 36.2367 262.022 36.4287C262.058 36.6175 262.108 36.7819 262.173 36.9219V37H260.967C260.912 36.873 260.868 36.7119 260.835 36.5166C260.806 36.318 260.791 36.126 260.791 35.9404ZM260.962 33.7871L260.972 34.5146H260.127C259.909 34.5146 259.717 34.5358 259.551 34.5781C259.385 34.6172 259.247 34.6758 259.136 34.7539C259.025 34.832 258.942 34.9264 258.887 35.0371C258.832 35.1478 258.804 35.2731 258.804 35.4131C258.804 35.5531 258.837 35.6816 258.902 35.7988C258.967 35.9128 259.061 36.0023 259.185 36.0674C259.312 36.1325 259.465 36.165 259.644 36.165C259.885 36.165 260.095 36.1162 260.274 36.0186C260.456 35.9176 260.599 35.7956 260.703 35.6523C260.808 35.5059 260.863 35.3675 260.869 35.2373L261.25 35.7598C261.211 35.8932 261.144 36.0365 261.05 36.1895C260.956 36.3424 260.832 36.4889 260.679 36.6289C260.529 36.7656 260.349 36.8779 260.137 36.9658C259.929 37.0537 259.688 37.0977 259.414 37.0977C259.069 37.0977 258.762 37.0293 258.491 36.8926C258.221 36.7526 258.01 36.5654 257.857 36.3311C257.704 36.0934 257.627 35.8249 257.627 35.5254C257.627 35.2454 257.679 34.998 257.783 34.7832C257.891 34.5651 258.047 34.3828 258.252 34.2363C258.461 34.0898 258.714 33.9792 259.014 33.9043C259.313 33.8262 259.655 33.7871 260.039 33.7871H260.962ZM264.463 29.5V37H263.281V29.5H264.463ZM266.929 32.791V37H265.752V31.7168H266.861L266.929 32.791ZM266.739 34.1631L266.338 34.1582C266.338 33.7936 266.384 33.4567 266.475 33.1475C266.566 32.8382 266.699 32.5697 266.875 32.3418C267.051 32.1107 267.269 31.9333 267.53 31.8096C267.793 31.6826 268.098 31.6191 268.443 31.6191C268.684 31.6191 268.903 31.6549 269.102 31.7266C269.304 31.7949 269.478 31.904 269.624 32.0537C269.774 32.2035 269.888 32.3955 269.966 32.6299C270.047 32.8643 270.088 33.1475 270.088 33.4795V37H268.911V33.582C268.911 33.3249 268.872 33.123 268.794 32.9766C268.719 32.8301 268.61 32.7259 268.467 32.6641C268.327 32.599 268.159 32.5664 267.964 32.5664C267.743 32.5664 267.554 32.6087 267.398 32.6934C267.245 32.778 267.119 32.8936 267.022 33.04C266.924 33.1865 266.852 33.3558 266.807 33.5479C266.761 33.7399 266.739 33.945 266.739 34.1631ZM270.015 33.8506L269.463 33.9727C269.463 33.6536 269.507 33.3525 269.595 33.0693C269.686 32.7829 269.818 32.5322 269.99 32.3174C270.166 32.0993 270.383 31.9284 270.64 31.8047C270.897 31.681 271.192 31.6191 271.524 31.6191C271.794 31.6191 272.035 31.6566 272.246 31.7314C272.461 31.8031 272.643 31.917 272.793 32.0732C272.943 32.2295 273.057 32.4329 273.135 32.6836C273.213 32.931 273.252 33.2305 273.252 33.582V37H272.071V33.5771C272.071 33.3102 272.031 33.1035 271.953 32.957C271.878 32.8105 271.771 32.7096 271.631 32.6543C271.491 32.5957 271.323 32.5664 271.128 32.5664C270.946 32.5664 270.785 32.6006 270.645 32.6689C270.508 32.734 270.392 32.8268 270.298 32.9473C270.204 33.0645 270.132 33.1995 270.083 33.3525C270.038 33.5055 270.015 33.6715 270.015 33.8506ZM279.136 37H277.617L277.627 36.0283H279.136C279.575 36.0283 279.943 35.9323 280.24 35.7402C280.539 35.5482 280.764 35.2731 280.913 34.915C281.066 34.557 281.143 34.1305 281.143 33.6357V33.25C281.143 32.8659 281.099 32.5257 281.011 32.2295C280.926 31.9333 280.799 31.6842 280.63 31.4824C280.464 31.2806 280.259 31.1276 280.015 31.0234C279.774 30.9193 279.496 30.8672 279.18 30.8672H277.588V29.8906H279.18C279.652 29.8906 280.083 29.9704 280.474 30.1299C280.865 30.2861 281.201 30.5124 281.485 30.8086C281.771 31.1048 281.991 31.4596 282.144 31.873C282.297 32.2865 282.373 32.7487 282.373 33.2598V33.6357C282.373 34.1468 282.297 34.609 282.144 35.0225C281.991 35.4359 281.771 35.7907 281.485 36.0869C281.198 36.3799 280.856 36.6061 280.459 36.7656C280.065 36.9219 279.624 37 279.136 37ZM278.296 29.8906V37H277.071V29.8906H278.296ZM283.262 34.417V34.3047C283.262 33.9238 283.317 33.5706 283.428 33.2451C283.539 32.9163 283.698 32.6315 283.906 32.3906C284.118 32.1465 284.375 31.9577 284.678 31.8242C284.984 31.6875 285.329 31.6191 285.713 31.6191C286.101 31.6191 286.446 31.6875 286.748 31.8242C287.054 31.9577 287.313 32.1465 287.525 32.3906C287.736 32.6315 287.897 32.9163 288.008 33.2451C288.119 33.5706 288.174 33.9238 288.174 34.3047V34.417C288.174 34.7979 288.119 35.151 288.008 35.4766C287.897 35.8021 287.736 36.0869 287.525 36.3311C287.313 36.5719 287.056 36.7607 286.753 36.8975C286.45 37.0309 286.107 37.0977 285.723 37.0977C285.336 37.0977 284.989 37.0309 284.683 36.8975C284.38 36.7607 284.123 36.5719 283.911 36.3311C283.7 36.0869 283.539 35.8021 283.428 35.4766C283.317 35.151 283.262 34.7979 283.262 34.417ZM284.439 34.3047V34.417C284.439 34.6546 284.463 34.8792 284.512 35.0908C284.561 35.3024 284.637 35.488 284.741 35.6475C284.846 35.807 284.979 35.9323 285.142 36.0234C285.305 36.1146 285.498 36.1602 285.723 36.1602C285.941 36.1602 286.13 36.1146 286.289 36.0234C286.452 35.9323 286.586 35.807 286.69 35.6475C286.794 35.488 286.87 35.3024 286.919 35.0908C286.971 34.8792 286.997 34.6546 286.997 34.417V34.3047C286.997 34.0703 286.971 33.849 286.919 33.6406C286.87 33.429 286.792 33.2419 286.685 33.0791C286.581 32.9163 286.447 32.7894 286.284 32.6982C286.125 32.6038 285.934 32.5566 285.713 32.5566C285.492 32.5566 285.3 32.6038 285.137 32.6982C284.977 32.7894 284.846 32.9163 284.741 33.0791C284.637 33.2419 284.561 33.429 284.512 33.6406C284.463 33.849 284.439 34.0703 284.439 34.3047ZM290.596 35.8281L291.817 31.7168H292.569L292.364 32.9473L291.133 37H290.459L290.596 35.8281ZM289.878 31.7168L290.83 35.8477L290.908 37H290.156L288.726 31.7168H289.878ZM293.711 35.7988L294.634 31.7168H295.781L294.356 37H293.604L293.711 35.7988ZM292.696 31.7168L293.902 35.7793L294.053 37H293.379L292.134 32.9424L291.929 31.7168H292.696ZM297.749 32.8447V37H296.573V31.7168H297.681L297.749 32.8447ZM297.539 34.1631L297.158 34.1582C297.162 33.7839 297.214 33.4404 297.315 33.1279C297.419 32.8154 297.562 32.5469 297.744 32.3223C297.93 32.0977 298.151 31.9251 298.408 31.8047C298.666 31.681 298.952 31.6191 299.268 31.6191C299.522 31.6191 299.751 31.6549 299.956 31.7266C300.165 31.7949 300.342 31.9072 300.489 32.0635C300.638 32.2197 300.752 32.4232 300.83 32.6738C300.908 32.9212 300.948 33.2256 300.948 33.5869V37H299.766V33.582C299.766 33.3281 299.728 33.1279 299.654 32.9814C299.582 32.8317 299.476 32.7259 299.336 32.6641C299.199 32.599 299.029 32.5664 298.823 32.5664C298.622 32.5664 298.441 32.6087 298.281 32.6934C298.122 32.778 297.987 32.8936 297.876 33.04C297.769 33.1865 297.686 33.3558 297.627 33.5479C297.569 33.7399 297.539 33.945 297.539 34.1631Z" fill="#101010"/>
<path d="M9.01918 67.7414C4.17538 67.7367 0.250027 63.8186 0.250027 58.9916C0.250027 54.1646 4.17538 50.254 9.01918 50.2587C13.863 50.2633 17.7883 54.1815 17.7883 59.0084C17.7883 63.8354 13.863 67.746 9.01918 67.7414Z" fill="#101010" stroke="white" stroke-width="0.5"/>
<path d="M10.0072 65.5246C6.3955 66.0709 3.0247 63.5953 2.47699 59.997C1.92927 56.3988 4.41164 53.038 8.02336 52.4918C11.6351 51.9455 15.0059 54.4212 15.5536 58.0194C16.1013 61.6176 13.619 64.9784 10.0072 65.5246Z" fill="#101010" stroke="white" stroke-width="0.5"/>
<ellipse cx="9.09565" cy="58.9954" rx="3.04316" ry="3.0975" fill="#E900FF"/>
<ellipse cx="8.97763" cy="58.9896" rx="1.11777" ry="1.14155" fill="#D9FF00"/>
<path d="M23.4026 54.8906V62H22.177V54.8906H23.4026ZM27.675 54.8906L24.7942 58.3135L23.1536 60.0518L22.9387 58.8359L24.1106 57.3906L26.1809 54.8906H27.675ZM26.3567 62L24.0178 58.6309L24.8625 57.7959L27.8118 62H26.3567ZM30.5803 62.0977C30.1897 62.0977 29.8365 62.0342 29.5208 61.9072C29.2083 61.777 28.9413 61.5964 28.72 61.3652C28.5019 61.1341 28.3342 60.8623 28.217 60.5498C28.0999 60.2373 28.0413 59.9004 28.0413 59.5391V59.3438C28.0413 58.9303 28.1015 58.556 28.2219 58.2207C28.3424 57.8854 28.51 57.599 28.7249 57.3613C28.9397 57.1204 29.1936 56.9365 29.4866 56.8096C29.7795 56.6826 30.0969 56.6191 30.4387 56.6191C30.8163 56.6191 31.1467 56.6826 31.4299 56.8096C31.7131 56.9365 31.9475 57.1156 32.1331 57.3467C32.3219 57.5745 32.4618 57.8464 32.553 58.1621C32.6474 58.4779 32.6946 58.8262 32.6946 59.207V59.71H28.6125V58.8652H31.5325V58.7725C31.526 58.5609 31.4836 58.3623 31.4055 58.1768C31.3306 57.9912 31.2151 57.8415 31.0588 57.7275C30.9026 57.6136 30.6943 57.5566 30.4338 57.5566C30.2385 57.5566 30.0644 57.599 29.9114 57.6836C29.7616 57.765 29.6363 57.8838 29.5354 58.04C29.4345 58.1963 29.3564 58.3851 29.301 58.6064C29.2489 58.8245 29.2229 59.0703 29.2229 59.3438V59.5391C29.2229 59.7702 29.2538 59.985 29.3157 60.1836C29.3808 60.3789 29.4752 60.5498 29.5989 60.6963C29.7226 60.8428 29.8723 60.9583 30.0481 61.043C30.2239 61.1243 30.4241 61.165 30.6487 61.165C30.9319 61.165 31.1842 61.1081 31.4055 60.9941C31.6269 60.8802 31.8189 60.7191 31.9817 60.5107L32.6018 61.1113C32.4879 61.2773 32.3398 61.4368 32.1575 61.5898C31.9752 61.7396 31.7522 61.8617 31.4885 61.9561C31.2281 62.0505 30.9254 62.0977 30.5803 62.0977ZM34.7795 57.8447V62H33.6028V56.7168H34.7112L34.7795 57.8447ZM34.5696 59.1631L34.1887 59.1582C34.192 58.7839 34.2441 58.4404 34.345 58.1279C34.4491 57.8154 34.5924 57.5469 34.7747 57.3223C34.9602 57.0977 35.1816 56.9251 35.4387 56.8047C35.6959 56.681 35.9823 56.6191 36.2981 56.6191C36.552 56.6191 36.7815 56.6549 36.9866 56.7266C37.1949 56.7949 37.3723 56.9072 37.5188 57.0635C37.6685 57.2197 37.7825 57.4232 37.8606 57.6738C37.9387 57.9212 37.9778 58.2256 37.9778 58.5869V62H36.7961V58.582C36.7961 58.3281 36.7587 58.1279 36.6838 57.9814C36.6122 57.8317 36.5064 57.7259 36.3665 57.6641C36.2297 57.599 36.0588 57.5664 35.8538 57.5664C35.6519 57.5664 35.4713 57.6087 35.3118 57.6934C35.1523 57.778 35.0172 57.8936 34.9065 58.04C34.7991 58.1865 34.7161 58.3558 34.6575 58.5479C34.5989 58.7399 34.5696 58.945 34.5696 59.1631ZM42.4016 60.9062V54.5H43.5833V62H42.5139L42.4016 60.9062ZM38.9641 59.417V59.3145C38.9641 58.9141 39.0113 58.5495 39.1057 58.2207C39.2001 57.8887 39.3368 57.6038 39.5159 57.3662C39.6949 57.1253 39.913 56.9414 40.1702 56.8145C40.4273 56.6842 40.717 56.6191 41.0393 56.6191C41.3583 56.6191 41.6383 56.681 41.8792 56.8047C42.12 56.9284 42.3251 57.1058 42.4944 57.3369C42.6637 57.5648 42.7987 57.8382 42.8997 58.1572C43.0006 58.473 43.0722 58.8245 43.1145 59.2119V59.5391C43.0722 59.9167 43.0006 60.2617 42.8997 60.5742C42.7987 60.8867 42.6637 61.1569 42.4944 61.3848C42.3251 61.6126 42.1184 61.7884 41.8743 61.9121C41.6334 62.0358 41.3518 62.0977 41.0295 62.0977C40.7105 62.0977 40.4224 62.0309 40.1653 61.8975C39.9114 61.764 39.6949 61.5768 39.5159 61.3359C39.3368 61.0951 39.2001 60.8118 39.1057 60.4863C39.0113 60.1576 38.9641 59.8011 38.9641 59.417ZM40.1409 59.3145V59.417C40.1409 59.6579 40.162 59.8825 40.2043 60.0908C40.2499 60.2992 40.3199 60.4831 40.4143 60.6426C40.5087 60.7988 40.6308 60.9225 40.7805 61.0137C40.9335 61.1016 41.1158 61.1455 41.3274 61.1455C41.5943 61.1455 41.814 61.0869 41.9866 60.9697C42.1591 60.8525 42.2942 60.6947 42.3918 60.4961C42.4928 60.2943 42.5611 60.0697 42.5969 59.8223V58.9385C42.5774 58.7464 42.5367 58.5674 42.4749 58.4014C42.4163 58.2354 42.3365 58.0905 42.2356 57.9668C42.1347 57.8398 42.0094 57.7422 41.8596 57.6738C41.7131 57.6022 41.539 57.5664 41.3372 57.5664C41.1223 57.5664 40.94 57.612 40.7903 57.7031C40.6405 57.7943 40.5168 57.9196 40.4192 58.0791C40.3248 58.2386 40.2548 58.4242 40.2092 58.6357C40.1637 58.8473 40.1409 59.0736 40.1409 59.3145ZM45.9954 57.7227V62H44.8186V56.7168H45.9417L45.9954 57.7227ZM47.6116 56.6826L47.6018 57.7764C47.5302 57.7633 47.4521 57.7536 47.3674 57.7471C47.2861 57.7406 47.2047 57.7373 47.1233 57.7373C46.9215 57.7373 46.7441 57.7666 46.5911 57.8252C46.4381 57.8805 46.3095 57.9619 46.2053 58.0693C46.1044 58.1735 46.0263 58.3005 45.9709 58.4502C45.9156 58.5999 45.8831 58.7676 45.8733 58.9531L45.6047 58.9727C45.6047 58.6406 45.6373 58.333 45.7024 58.0498C45.7675 57.7666 45.8652 57.5176 45.9954 57.3027C46.1288 57.0879 46.2948 56.9202 46.4934 56.7998C46.6952 56.6794 46.928 56.6191 47.1917 56.6191C47.2633 56.6191 47.3398 56.6257 47.4211 56.6387C47.5058 56.6517 47.5693 56.6663 47.6116 56.6826ZM49.6086 56.7168V62H48.427V56.7168H49.6086ZM48.3489 55.3301C48.3489 55.151 48.4075 55.0029 48.5247 54.8857C48.6451 54.7653 48.8111 54.7051 49.0227 54.7051C49.231 54.7051 49.3954 54.7653 49.5159 54.8857C49.6363 55.0029 49.6965 55.151 49.6965 55.3301C49.6965 55.5059 49.6363 55.6523 49.5159 55.7695C49.3954 55.8867 49.231 55.9453 49.0227 55.9453C48.8111 55.9453 48.6451 55.8867 48.5247 55.7695C48.4075 55.6523 48.3489 55.5059 48.3489 55.3301ZM53.0559 61.1602C53.248 61.1602 53.4205 61.1227 53.5735 61.0479C53.7297 60.9697 53.8551 60.8623 53.9495 60.7256C54.0471 60.5889 54.1008 60.431 54.1106 60.252H55.219C55.2125 60.5938 55.1116 60.9046 54.9163 61.1846C54.7209 61.4645 54.4622 61.6875 54.1399 61.8535C53.8176 62.0163 53.4612 62.0977 53.0706 62.0977C52.6669 62.0977 52.3153 62.0293 52.0159 61.8926C51.7164 61.7526 51.4674 61.5605 51.2688 61.3164C51.0702 61.0723 50.9205 60.7907 50.8196 60.4717C50.7219 60.1527 50.6731 59.8109 50.6731 59.4463V59.2754C50.6731 58.9108 50.7219 58.569 50.8196 58.25C50.9205 57.9277 51.0702 57.6445 51.2688 57.4004C51.4674 57.1562 51.7164 56.9658 52.0159 56.8291C52.3153 56.6891 52.6653 56.6191 53.0657 56.6191C53.4889 56.6191 53.8599 56.7038 54.179 56.873C54.498 57.0391 54.7486 57.2718 54.9309 57.5713C55.1165 57.8675 55.2125 58.2126 55.219 58.6064H54.1106C54.1008 58.4111 54.052 58.2354 53.9641 58.0791C53.8795 57.9196 53.759 57.7926 53.6028 57.6982C53.4498 57.6038 53.2659 57.5566 53.051 57.5566C52.8134 57.5566 52.6165 57.6055 52.4602 57.7031C52.304 57.7975 52.1819 57.9277 52.094 58.0938C52.0061 58.2565 51.9426 58.4404 51.9036 58.6455C51.8678 58.8473 51.8499 59.0573 51.8499 59.2754V59.4463C51.8499 59.6644 51.8678 59.876 51.9036 60.0811C51.9394 60.2861 52.0012 60.4701 52.0891 60.6328C52.1803 60.7923 52.304 60.9209 52.4602 61.0186C52.6165 61.113 52.815 61.1602 53.0559 61.1602ZM57.3088 54.5V62H56.1272V54.5H57.3088ZM60.5901 56.7168L58.2903 59.2656L57.0305 60.5547L56.7229 59.5586L57.675 58.3818L59.1692 56.7168H60.5901ZM59.4231 62L57.7092 59.5195L58.4514 58.6943L60.7854 62H59.4231ZM68.3977 61.0283V62H64.8284V61.0283H68.3977ZM65.1702 54.8906V62H63.9446V54.8906H65.1702ZM72.2063 60.9404V58.4209C72.2063 58.2321 72.1721 58.0693 72.1038 57.9326C72.0354 57.7959 71.9312 57.6901 71.7913 57.6152C71.6545 57.5404 71.482 57.5029 71.2737 57.5029C71.0816 57.5029 70.9156 57.5355 70.7756 57.6006C70.6357 57.6657 70.5266 57.7536 70.4485 57.8643C70.3704 57.9749 70.3313 58.1003 70.3313 58.2402H69.1594C69.1594 58.0319 69.2099 57.8301 69.3108 57.6348C69.4117 57.4395 69.5582 57.2653 69.7502 57.1123C69.9423 56.9593 70.1718 56.8389 70.4387 56.751C70.7056 56.6631 71.0051 56.6191 71.3372 56.6191C71.7343 56.6191 72.0859 56.6859 72.3918 56.8193C72.7011 56.9528 72.9436 57.1546 73.1194 57.4248C73.2984 57.6917 73.3879 58.027 73.3879 58.4307V60.7793C73.3879 61.0202 73.4042 61.2367 73.4368 61.4287C73.4726 61.6175 73.523 61.7819 73.5881 61.9219V62H72.3821C72.3267 61.873 72.2828 61.7119 72.2502 61.5166C72.2209 61.318 72.2063 61.126 72.2063 60.9404ZM72.3772 58.7871L72.387 59.5146H71.5422C71.3241 59.5146 71.1321 59.5358 70.9661 59.5781C70.8 59.6172 70.6617 59.6758 70.551 59.7539C70.4403 59.832 70.3573 59.9264 70.302 60.0371C70.2467 60.1478 70.219 60.2731 70.219 60.4131C70.219 60.5531 70.2515 60.6816 70.3167 60.7988C70.3818 60.9128 70.4762 61.0023 70.5999 61.0674C70.7268 61.1325 70.8798 61.165 71.0588 61.165C71.2997 61.165 71.5097 61.1162 71.6887 61.0186C71.871 60.9176 72.0142 60.7956 72.1184 60.6523C72.2226 60.5059 72.2779 60.3675 72.2844 60.2373L72.6653 60.7598C72.6262 60.8932 72.5595 61.0365 72.4651 61.1895C72.3707 61.3424 72.247 61.4889 72.094 61.6289C71.9443 61.7656 71.7636 61.8779 71.552 61.9658C71.3437 62.0537 71.1028 62.0977 70.8293 62.0977C70.4843 62.0977 70.1767 62.0293 69.9065 61.8926C69.6363 61.7526 69.4247 61.5654 69.2717 61.3311C69.1187 61.0934 69.0422 60.8249 69.0422 60.5254C69.0422 60.2454 69.0943 59.998 69.1985 59.7832C69.3059 59.5651 69.4622 59.3828 69.6672 59.2363C69.8756 59.0898 70.1295 58.9792 70.429 58.9043C70.7284 58.8262 71.0702 58.7871 71.4543 58.7871H72.3772ZM75.7952 57.791V62H74.6184V56.7168H75.7268L75.7952 57.791ZM75.6047 59.1631L75.2043 59.1582C75.2043 58.7936 75.2499 58.4567 75.3411 58.1475C75.4322 57.8382 75.5657 57.5697 75.7415 57.3418C75.9172 57.1107 76.1353 56.9333 76.3958 56.8096C76.6594 56.6826 76.9638 56.6191 77.3088 56.6191C77.5497 56.6191 77.7694 56.6549 77.968 56.7266C78.1698 56.7949 78.344 56.904 78.4905 57.0537C78.6402 57.2035 78.7542 57.3955 78.8323 57.6299C78.9137 57.8643 78.9543 58.1475 78.9543 58.4795V62H77.7776V58.582C77.7776 58.3249 77.7385 58.123 77.6604 57.9766C77.5855 57.8301 77.4765 57.7259 77.3333 57.6641C77.1933 57.599 77.0256 57.5664 76.8303 57.5664C76.609 57.5664 76.4202 57.6087 76.2639 57.6934C76.1109 57.778 75.9856 57.8936 75.8879 58.04C75.7903 58.1865 75.7187 58.3558 75.6731 58.5479C75.6275 58.7399 75.6047 58.945 75.6047 59.1631ZM78.8811 58.8506L78.3293 58.9727C78.3293 58.6536 78.3733 58.3525 78.4612 58.0693C78.5523 57.7829 78.6842 57.5322 78.8567 57.3174C79.0325 57.0993 79.2489 56.9284 79.5061 56.8047C79.7633 56.681 80.0579 56.6191 80.3899 56.6191C80.6601 56.6191 80.901 56.6566 81.1125 56.7314C81.3274 56.8031 81.5097 56.917 81.6594 57.0732C81.8092 57.2295 81.9231 57.4329 82.0012 57.6836C82.0793 57.931 82.1184 58.2305 82.1184 58.582V62H80.9368V58.5771C80.9368 58.3102 80.8977 58.1035 80.8196 57.957C80.7447 57.8105 80.6373 57.7096 80.4973 57.6543C80.3573 57.5957 80.1897 57.5664 79.9944 57.5664C79.8121 57.5664 79.651 57.6006 79.511 57.6689C79.3743 57.734 79.2587 57.8268 79.1643 57.9473C79.0699 58.0645 78.9983 58.1995 78.9495 58.3525C78.9039 58.5055 78.8811 58.6715 78.8811 58.8506ZM86.3079 60.9404V58.4209C86.3079 58.2321 86.2737 58.0693 86.2053 57.9326C86.137 57.7959 86.0328 57.6901 85.8928 57.6152C85.7561 57.5404 85.5836 57.5029 85.3752 57.5029C85.1832 57.5029 85.0172 57.5355 84.8772 57.6006C84.7372 57.6657 84.6282 57.7536 84.55 57.8643C84.4719 57.9749 84.4329 58.1003 84.4329 58.2402H83.261C83.261 58.0319 83.3114 57.8301 83.4124 57.6348C83.5133 57.4395 83.6597 57.2653 83.8518 57.1123C84.0439 56.9593 84.2734 56.8389 84.5403 56.751C84.8072 56.6631 85.1067 56.6191 85.4387 56.6191C85.8359 56.6191 86.1874 56.6859 86.4934 56.8193C86.8027 56.9528 87.0452 57.1546 87.2209 57.4248C87.4 57.6917 87.4895 58.027 87.4895 58.4307V60.7793C87.4895 61.0202 87.5058 61.2367 87.5383 61.4287C87.5741 61.6175 87.6246 61.7819 87.6897 61.9219V62H86.4836C86.4283 61.873 86.3844 61.7119 86.3518 61.5166C86.3225 61.318 86.3079 61.126 86.3079 60.9404ZM86.4788 58.7871L86.4885 59.5146H85.6438C85.4257 59.5146 85.2336 59.5358 85.0676 59.5781C84.9016 59.6172 84.7633 59.6758 84.6526 59.7539C84.5419 59.832 84.4589 59.9264 84.4036 60.0371C84.3482 60.1478 84.3206 60.2731 84.3206 60.4131C84.3206 60.5531 84.3531 60.6816 84.4182 60.7988C84.4833 60.9128 84.5777 61.0023 84.7014 61.0674C84.8284 61.1325 84.9814 61.165 85.1604 61.165C85.4013 61.165 85.6112 61.1162 85.7903 61.0186C85.9726 60.9176 86.1158 60.7956 86.22 60.6523C86.3241 60.5059 86.3795 60.3675 86.386 60.2373L86.7668 60.7598C86.7278 60.8932 86.6611 61.0365 86.5667 61.1895C86.4722 61.3424 86.3486 61.4889 86.1956 61.6289C86.0458 61.7656 85.8652 61.8779 85.6536 61.9658C85.4452 62.0537 85.2043 62.0977 84.9309 62.0977C84.5859 62.0977 84.2782 62.0293 84.0081 61.8926C83.7379 61.7526 83.5263 61.5654 83.3733 61.3311C83.2203 61.0934 83.1438 60.8249 83.1438 60.5254C83.1438 60.2454 83.1959 59.998 83.3 59.7832C83.4075 59.5651 83.5637 59.3828 83.7688 59.2363C83.9771 59.0898 84.231 58.9792 84.5305 58.9043C84.83 58.8262 85.1718 58.7871 85.5559 58.7871H86.4788ZM89.9016 57.7227V62H88.7249V56.7168H89.8479L89.9016 57.7227ZM91.5178 56.6826L91.5081 57.7764C91.4364 57.7633 91.3583 57.7536 91.2737 57.7471C91.1923 57.7406 91.1109 57.7373 91.0295 57.7373C90.8277 57.7373 90.6503 57.7666 90.4973 57.8252C90.3443 57.8805 90.2157 57.9619 90.1116 58.0693C90.0107 58.1735 89.9325 58.3005 89.8772 58.4502C89.8219 58.5999 89.7893 58.7676 89.7795 58.9531L89.511 58.9727C89.511 58.6406 89.5435 58.333 89.6086 58.0498C89.6737 57.7666 89.7714 57.5176 89.9016 57.3027C90.0351 57.0879 90.2011 56.9202 90.3997 56.7998C90.6015 56.6794 90.8342 56.6191 91.0979 56.6191C91.1695 56.6191 91.246 56.6257 91.3274 56.6387C91.412 56.6517 91.4755 56.6663 91.5178 56.6826ZM97.1135 58.4941V59.4316H94.5305V58.4941H97.1135ZM105.204 61.0283V62H101.635V61.0283H105.204ZM101.977 54.8906V62H100.751V54.8906H101.977ZM109.057 60.7549V56.7168H110.239V62H109.125L109.057 60.7549ZM109.223 59.6562L109.618 59.6465C109.618 60.0013 109.579 60.3285 109.501 60.6279C109.423 60.9242 109.303 61.1829 109.14 61.4043C108.977 61.6224 108.769 61.7933 108.515 61.917C108.261 62.0374 107.957 62.0977 107.602 62.0977C107.345 62.0977 107.109 62.0602 106.894 61.9854C106.679 61.9105 106.493 61.7949 106.337 61.6387C106.184 61.4824 106.065 61.279 105.981 61.0283C105.896 60.7777 105.854 60.4782 105.854 60.1299V56.7168H107.031V60.1396C107.031 60.3317 107.053 60.4928 107.099 60.623C107.144 60.75 107.206 60.8525 107.284 60.9307C107.363 61.0088 107.454 61.0641 107.558 61.0967C107.662 61.1292 107.773 61.1455 107.89 61.1455C108.225 61.1455 108.489 61.0804 108.681 60.9502C108.876 60.8167 109.015 60.6377 109.096 60.4131C109.181 60.1885 109.223 59.9362 109.223 59.6562ZM113.866 56.7168V57.5762H110.888V56.7168H113.866ZM111.747 55.4229H112.924V60.54C112.924 60.7028 112.947 60.8281 112.992 60.916C113.041 61.0007 113.108 61.0576 113.193 61.0869C113.277 61.1162 113.377 61.1309 113.49 61.1309C113.572 61.1309 113.65 61.126 113.725 61.1162C113.8 61.1064 113.86 61.0967 113.906 61.0869L113.91 61.9854C113.813 62.0146 113.699 62.0407 113.569 62.0635C113.442 62.0863 113.295 62.0977 113.129 62.0977C112.859 62.0977 112.62 62.0505 112.411 61.9561C112.203 61.8584 112.04 61.7005 111.923 61.4824C111.806 61.2643 111.747 60.9746 111.747 60.6133V55.4229ZM115.937 54.5V62H114.765V54.5H115.937ZM115.732 59.1631L115.351 59.1582C115.354 58.7936 115.405 58.4567 115.502 58.1475C115.603 57.8382 115.743 57.5697 115.922 57.3418C116.104 57.1107 116.323 56.9333 116.576 56.8096C116.83 56.6826 117.112 56.6191 117.421 56.6191C117.682 56.6191 117.916 56.6549 118.124 56.7266C118.336 56.7982 118.518 56.9137 118.671 57.0732C118.824 57.2295 118.94 57.4346 119.018 57.6885C119.099 57.9391 119.14 58.2451 119.14 58.6064V62H117.958V58.5967C117.958 58.3428 117.921 58.141 117.846 57.9912C117.774 57.8415 117.669 57.734 117.529 57.6689C117.389 57.6006 117.218 57.5664 117.016 57.5664C116.804 57.5664 116.617 57.6087 116.454 57.6934C116.295 57.778 116.161 57.8936 116.054 58.04C115.947 58.1865 115.865 58.3558 115.81 58.5479C115.758 58.7399 115.732 58.945 115.732 59.1631ZM122.66 62.0977C122.27 62.0977 121.917 62.0342 121.601 61.9072C121.288 61.777 121.021 61.5964 120.8 61.3652C120.582 61.1341 120.414 60.8623 120.297 60.5498C120.18 60.2373 120.121 59.9004 120.121 59.5391V59.3438C120.121 58.9303 120.182 58.556 120.302 58.2207C120.422 57.8854 120.59 57.599 120.805 57.3613C121.02 57.1204 121.274 56.9365 121.567 56.8096C121.86 56.6826 122.177 56.6191 122.519 56.6191C122.896 56.6191 123.227 56.6826 123.51 56.8096C123.793 56.9365 124.028 57.1156 124.213 57.3467C124.402 57.5745 124.542 57.8464 124.633 58.1621C124.727 58.4779 124.775 58.8262 124.775 59.207V59.71H120.693V58.8652H123.613V58.7725C123.606 58.5609 123.564 58.3623 123.486 58.1768C123.411 57.9912 123.295 57.8415 123.139 57.7275C122.983 57.6136 122.774 57.5566 122.514 57.5566C122.319 57.5566 122.144 57.599 121.991 57.6836C121.842 57.765 121.716 57.8838 121.615 58.04C121.515 58.1963 121.436 58.3851 121.381 58.6064C121.329 58.8245 121.303 59.0703 121.303 59.3438V59.5391C121.303 59.7702 121.334 59.985 121.396 60.1836C121.461 60.3789 121.555 60.5498 121.679 60.6963C121.803 60.8428 121.952 60.9583 122.128 61.043C122.304 61.1243 122.504 61.165 122.729 61.165C123.012 61.165 123.264 61.1081 123.486 60.9941C123.707 60.8802 123.899 60.7191 124.062 60.5107L124.682 61.1113C124.568 61.2773 124.42 61.4368 124.238 61.5898C124.055 61.7396 123.832 61.8617 123.569 61.9561C123.308 62.0505 123.005 62.0977 122.66 62.0977ZM126.874 57.7227V62H125.698V56.7168H126.821L126.874 57.7227ZM128.49 56.6826L128.481 57.7764C128.409 57.7633 128.331 57.7536 128.246 57.7471C128.165 57.7406 128.084 57.7373 128.002 57.7373C127.8 57.7373 127.623 57.7666 127.47 57.8252C127.317 57.8805 127.188 57.9619 127.084 58.0693C126.983 58.1735 126.905 58.3005 126.85 58.4502C126.795 58.5999 126.762 58.7676 126.752 58.9531L126.484 58.9727C126.484 58.6406 126.516 58.333 126.581 58.0498C126.646 57.7666 126.744 57.5176 126.874 57.3027C127.008 57.0879 127.174 56.9202 127.372 56.7998C127.574 56.6794 127.807 56.6191 128.071 56.6191C128.142 56.6191 128.219 56.6257 128.3 56.6387C128.385 56.6517 128.448 56.6663 128.49 56.6826Z" fill="#101010"/>
<path d="M204.019 67.7414C199.175 67.7367 195.25 63.8186 195.25 58.9916C195.25 54.1646 199.175 50.254 204.019 50.2587C208.863 50.2633 212.788 54.1815 212.788 59.0084C212.788 63.8354 208.863 67.746 204.019 67.7414Z" fill="#101010" stroke="white" stroke-width="0.5"/>
<path d="M205.007 65.5246C201.395 66.0709 198.025 63.5953 197.477 59.997C196.929 56.3988 199.412 53.038 203.023 52.4918C206.635 51.9455 210.006 54.4212 210.554 58.0194C211.101 61.6176 208.619 64.9784 205.007 65.5246Z" fill="#101010" stroke="white" stroke-width="0.5"/>
<ellipse cx="204.096" cy="58.9954" rx="3.04316" ry="3.0975" fill="#D9FF00"/>
<ellipse cx="203.978" cy="58.9896" rx="1.11777" ry="1.14155" fill="#E900FF"/>
<path d="M217.065 54.8906H219.579C220.12 54.8906 220.58 54.972 220.961 55.1348C221.342 55.2975 221.633 55.5384 221.835 55.8574C222.04 56.1732 222.143 56.5638 222.143 57.0293C222.143 57.3841 222.078 57.6966 221.948 57.9668C221.817 58.237 221.633 58.4648 221.396 58.6504C221.158 58.8327 220.875 58.9743 220.546 59.0752L220.175 59.2559H217.914L217.905 58.2842H219.599C219.892 58.2842 220.136 58.2321 220.331 58.1279C220.527 58.0238 220.673 57.8822 220.771 57.7031C220.872 57.5208 220.922 57.3158 220.922 57.0879C220.922 56.8405 220.873 56.6257 220.776 56.4434C220.681 56.2578 220.535 56.1162 220.336 56.0186C220.138 55.9176 219.885 55.8672 219.579 55.8672H218.29V62H217.065V54.8906ZM221.122 62L219.452 58.8066L220.737 58.8018L222.431 61.9365V62H221.122ZM229.032 58.25V58.6406C229.032 59.1777 228.962 59.6595 228.823 60.0859C228.683 60.5124 228.482 60.8753 228.222 61.1748C227.965 61.4743 227.656 61.7038 227.294 61.8633C226.933 62.0195 226.532 62.0977 226.093 62.0977C225.657 62.0977 225.258 62.0195 224.897 61.8633C224.539 61.7038 224.228 61.4743 223.964 61.1748C223.7 60.8753 223.495 60.5124 223.349 60.0859C223.206 59.6595 223.134 59.1777 223.134 58.6406V58.25C223.134 57.7129 223.206 57.2327 223.349 56.8096C223.492 56.3831 223.694 56.0202 223.954 55.7207C224.218 55.418 224.529 55.1885 224.887 55.0322C225.248 54.8727 225.647 54.793 226.083 54.793C226.523 54.793 226.923 54.8727 227.284 55.0322C227.646 55.1885 227.957 55.418 228.217 55.7207C228.477 56.0202 228.678 56.3831 228.818 56.8096C228.961 57.2327 229.032 57.7129 229.032 58.25ZM227.807 58.6406V58.2402C227.807 57.8431 227.768 57.4932 227.69 57.1904C227.615 56.8844 227.503 56.6289 227.353 56.4238C227.206 56.2155 227.026 56.0592 226.811 55.9551C226.596 55.8477 226.353 55.7939 226.083 55.7939C225.813 55.7939 225.572 55.8477 225.361 55.9551C225.149 56.0592 224.968 56.2155 224.819 56.4238C224.672 56.6289 224.56 56.8844 224.482 57.1904C224.404 57.4932 224.365 57.8431 224.365 58.2402V58.6406C224.365 59.0378 224.404 59.3893 224.482 59.6953C224.56 60.0013 224.674 60.2601 224.823 60.4717C224.976 60.68 225.159 60.8379 225.37 60.9453C225.582 61.0495 225.823 61.1016 226.093 61.1016C226.366 61.1016 226.609 61.0495 226.821 60.9453C227.032 60.8379 227.211 60.68 227.358 60.4717C227.504 60.2601 227.615 60.0013 227.69 59.6953C227.768 59.3893 227.807 59.0378 227.807 58.6406ZM233.998 60.1689C233.998 60.0225 233.976 59.8923 233.93 59.7783C233.888 59.6644 233.811 59.5602 233.7 59.4658C233.59 59.3714 233.434 59.2803 233.232 59.1924C233.033 59.1012 232.779 59.0085 232.47 58.9141C232.131 58.8099 231.819 58.6943 231.532 58.5674C231.249 58.4372 231.002 58.2874 230.79 58.1182C230.579 57.9456 230.414 57.7487 230.297 57.5273C230.18 57.3027 230.121 57.0439 230.121 56.751C230.121 56.4613 230.182 56.1976 230.302 55.96C230.426 55.7223 230.6 55.5173 230.824 55.3447C231.052 55.1689 231.321 55.0339 231.63 54.9395C231.939 54.8418 232.281 54.793 232.656 54.793C233.183 54.793 233.637 54.8906 234.018 55.0859C234.402 55.2812 234.697 55.5433 234.902 55.8721C235.11 56.2008 235.214 56.5638 235.214 56.9609H233.998C233.998 56.7266 233.948 56.5199 233.847 56.3408C233.749 56.1585 233.6 56.0153 233.398 55.9111C233.199 55.807 232.947 55.7549 232.641 55.7549C232.351 55.7549 232.11 55.7988 231.918 55.8867C231.726 55.9746 231.583 56.0934 231.489 56.2432C231.394 56.3929 231.347 56.5622 231.347 56.751C231.347 56.8844 231.378 57.0065 231.44 57.1172C231.502 57.2246 231.596 57.3255 231.723 57.4199C231.85 57.5111 232.009 57.5973 232.201 57.6787C232.393 57.7601 232.62 57.8382 232.88 57.9131C233.274 58.0303 233.617 58.1605 233.91 58.3037C234.203 58.4437 234.448 58.6032 234.643 58.7822C234.838 58.9613 234.985 59.1647 235.082 59.3926C235.18 59.6172 235.229 59.8727 235.229 60.1592C235.229 60.4587 235.169 60.7288 235.048 60.9697C234.928 61.2074 234.755 61.4108 234.531 61.5801C234.309 61.7461 234.042 61.8747 233.73 61.9658C233.42 62.0537 233.075 62.0977 232.695 62.0977C232.353 62.0977 232.016 62.0521 231.684 61.9609C231.355 61.8698 231.056 61.7314 230.785 61.5459C230.515 61.3571 230.3 61.1227 230.141 60.8428C229.981 60.5596 229.902 60.2292 229.902 59.8516H231.127C231.127 60.0827 231.166 60.2796 231.244 60.4424C231.326 60.6051 231.438 60.7386 231.581 60.8428C231.725 60.9437 231.891 61.0186 232.079 61.0674C232.271 61.1162 232.476 61.1406 232.695 61.1406C232.981 61.1406 233.22 61.0999 233.412 61.0186C233.608 60.9372 233.754 60.8232 233.852 60.6768C233.949 60.5303 233.998 60.361 233.998 60.1689ZM240.966 61.0283V62H237.192V61.0283H240.966ZM237.538 54.8906V62H236.313V54.8906H237.538ZM240.473 57.8594V58.8164H237.192V57.8594H240.473ZM240.942 54.8906V55.8672H237.192V54.8906H240.942ZM238.066 54.417L239.018 52.9473H240.346L239.018 54.417H238.066ZM246.708 58.4941V59.4316H244.125V58.4941H246.708ZM253.115 55.8379L250.99 62H249.706L252.382 54.8906H253.202L253.115 55.8379ZM254.892 62L252.763 55.8379L252.67 54.8906H253.495L256.181 62H254.892ZM254.789 59.3633V60.335H250.922V59.3633H254.789ZM259.677 59.3486H257.826V58.377H259.677C259.999 58.377 260.26 58.3249 260.458 58.2207C260.657 58.1165 260.802 57.9733 260.893 57.791C260.987 57.6055 261.034 57.3939 261.034 57.1562C261.034 56.9316 260.987 56.7217 260.893 56.5264C260.802 56.3278 260.657 56.1683 260.458 56.0479C260.26 55.9274 259.999 55.8672 259.677 55.8672H258.202V62H256.977V54.8906H259.677C260.227 54.8906 260.694 54.9883 261.078 55.1836C261.466 55.3757 261.76 55.6426 261.962 55.9844C262.164 56.3229 262.265 56.7103 262.265 57.1465C262.265 57.6055 262.164 57.9993 261.962 58.3281C261.76 58.6569 261.466 58.9092 261.078 59.085C260.694 59.2607 260.227 59.3486 259.677 59.3486ZM266.288 54.8906V62H265.073V54.8906H266.288ZM268.52 54.8906V55.8672H262.861V54.8906H268.52Z" fill="#101010"/>
</svg>
