<svg width="346" height="141" viewBox="0 0 346 141" fill="none" xmlns="http://www.w3.org/2000/svg">
<line x1="315" y1="18" x2="33" y2="18" stroke="#101010" stroke-width="2"/>
<line y1="-1" x2="282" y2="-1" transform="matrix(-1 0 0 1 315 121)" stroke="#101010" stroke-width="2"/>
<line x1="19" y1="116" x2="19" y2="22" stroke="#101010" stroke-width="2"/>
<line x1="327" y1="116" x2="327" y2="22" stroke="#101010" stroke-width="2"/>
<path d="M36 16.5C36 18.6668 35.5344 20.8124 34.6298 22.8143C33.7252 24.8161 32.3994 26.6351 30.7279 28.1673C29.0565 29.6994 27.0722 30.9148 24.8883 31.744C22.7044 32.5732 20.3638 33 18 33L18 16.5L36 16.5Z" fill="#101010"/>
<path d="M36 121.5C36 118.939 35.5344 116.404 34.6298 114.038C33.7252 111.672 32.3994 109.522 30.7279 107.711C29.0565 105.901 27.0722 104.464 24.8883 103.484C22.7044 102.504 20.3638 102 18 102L18 121.5H36Z" fill="#101010"/>
<path d="M310 16.5C310 18.6668 310.466 20.8124 311.37 22.8143C312.275 24.8161 313.601 26.6351 315.272 28.1673C316.944 29.6994 318.928 30.9148 321.112 31.744C323.296 32.5732 325.636 33 328 33L328 16.5L310 16.5Z" fill="#101010"/>
<path d="M310 121.5C310 118.939 310.466 116.404 311.37 114.038C312.275 111.672 313.601 109.522 315.272 107.711C316.944 105.901 318.928 104.464 321.112 103.484C323.296 102.504 325.636 102 328 102L328 121.5H310Z" fill="#101010"/>
<path d="M69.9112 62.07C69.9392 61.132 69.5192 60.712 68.5952 60.712C67.6572 60.712 66.8732 61.104 66.9292 62.084C66.9992 63.092 67.8392 63.33 68.7072 63.33C69.0852 63.33 69.4492 63.288 69.7712 63.246C69.8132 63.092 69.8972 62.532 69.9112 62.07ZM71.2552 69.084H69.5472C68.4972 69.084 68.9732 67.838 69.3232 66.676C69.5472 65.948 69.2672 65.626 68.8332 65.626C68.4412 65.626 67.9232 65.906 67.5592 66.41C66.6632 67.656 67.7132 69.084 66.5792 69.084H65.1932C64.2412 69.084 64.1432 66.886 64.9412 65.808C65.6832 64.8 66.6492 64.492 67.7552 64.38C65.6832 64.352 64.2692 62.462 65.1512 60.628C65.7952 59.284 67.6012 59.004 68.9732 59.074C70.2052 59.144 71.6892 59.088 71.6192 60.138C71.4652 62.42 71.4932 63.204 71.4932 63.89C71.5072 66.774 72.5432 69.084 71.2552 69.084ZM74.563 69.112C74.437 69.938 73.667 70.358 73.051 70.358C72.729 70.358 72.449 70.246 72.323 70.036C72.015 69.518 73.023 69.14 72.799 68.202C72.687 67.712 72.897 67.502 73.205 67.502C73.779 67.502 74.703 68.202 74.563 69.112ZM80.768 65.276C80.488 66.382 80.572 67.306 82.21 67.502C83.372 67.642 84.338 67.04 84.142 66.046C83.974 65.248 83.288 64.996 82.49 64.996C81.916 64.996 81.286 65.122 80.768 65.276ZM80.726 63.498C82.686 63.246 83.022 62.672 82.994 61.832C82.98 61.174 82.35 60.642 81.678 60.642C81.384 60.642 81.076 60.754 80.824 61.006C80.11 61.72 80.488 62.588 80.726 63.498ZM78.85 62.322C78.696 60.866 78.752 60.068 79.676 59.494C80.138 59.2 80.81 59.06 81.51 59.06C82.7 59.06 83.974 59.466 84.478 60.208C85.108 61.146 84.954 62.308 84.17 63.358C84.03 63.554 83.848 63.736 83.652 63.89C84.828 64.03 86.004 64.646 86.242 66.256C86.452 67.698 85.318 69 84.072 69H79.662C78.262 69 79.214 65.906 78.85 62.322ZM86.8308 60.992C86.8168 59.928 87.4328 59.074 88.4408 59.074C89.3788 59.074 90.2748 59.704 90.1488 60.908C90.0368 61.944 88.5388 64.128 89.5048 64.45C89.5748 64.464 89.6448 64.478 89.7288 64.478C90.3168 64.478 91.3668 64.072 91.6748 63.582C92.2068 62.742 91.2408 61.916 91.1148 60.922C90.9468 59.76 91.6468 59.102 92.6828 59.074C93.7748 59.046 94.1948 59.9 94.0688 60.936C93.9288 62.056 93.3968 62.77 93.4248 64.072C93.4388 65.276 93.9008 66.662 93.9288 68.034C93.9428 68.804 93.6908 69 93.2708 69H91.8848C90.6528 69 91.9968 66.984 91.4928 65.976C91.3668 65.738 90.6388 65.57 90.0788 65.57C89.8408 65.57 89.6448 65.598 89.5328 65.668C88.7628 66.2 90.3308 69 89.1968 69H87.6708C87.2228 69 87.0968 68.678 87.0828 67.992C87.0548 66.662 87.7828 65.332 87.7548 64.03C87.7408 62.854 86.8448 62.014 86.8308 60.992ZM101.526 61.216C101.498 61.594 101.344 61.846 101.148 61.972C101.008 62.042 100.826 62.098 100.63 62.098C100.462 62.098 100.294 62.07 100.126 62C99.5241 61.748 99.2581 60.992 98.3201 60.992C97.5361 60.992 97.1861 61.398 97.2001 62C97.2421 62.924 98.4461 63.134 99.1741 63.134C99.9441 63.134 100.07 63.638 100.056 64.002C100.028 64.492 99.7621 64.94 99.0481 64.94C98.9501 64.94 98.8381 64.926 98.7261 64.912C98.5161 64.884 98.3061 64.856 98.1241 64.856C97.2981 64.856 96.7801 65.206 96.8221 65.934C96.8641 66.62 97.3261 67.18 98.2641 67.18C99.5241 67.18 99.1321 66.284 100.28 66.032C100.378 66.004 100.476 66.004 100.56 66.004C101.33 66.004 101.764 66.76 101.736 67.32C101.68 68.23 100.252 69.112 98.4601 69.14C98.4321 69.14 98.3901 69.14 98.3621 69.14C96.2761 69.14 94.7921 68.272 94.6101 66.578C94.4701 65.36 95.0441 64.058 96.5281 63.596C95.5761 63.134 95.0581 62.434 94.9881 61.552C94.8761 60.11 95.8841 59.032 97.8021 59.032C99.5101 59.032 101.61 59.928 101.526 61.216ZM105.78 58.99C107.53 58.99 108.888 60.054 108.916 61.762C108.93 62.882 108.104 63.652 107.138 64.03C108.342 64.212 109.28 64.744 109.294 66.256C109.336 68.23 107.292 69.126 105.752 69.154C105.724 69.154 105.696 69.154 105.668 69.154C103.82 69.154 102.322 68.678 102.294 67.264C102.28 66.494 103.05 65.962 103.694 65.962C104.898 65.962 104.926 67.39 106.116 67.39C106.704 67.39 107.166 67.04 107.208 66.326C107.264 65.262 106.466 65.066 105.64 65.066C105.346 65.066 105.052 65.08 104.786 65.108C104.352 65.15 103.918 64.912 103.848 64.422C103.75 63.722 104.142 63.358 104.954 63.302C105.668 63.246 106.256 62.91 106.592 62.504C107.152 61.846 107.04 60.782 106.018 60.782C105.038 60.782 104.604 62.112 103.47 62.112C102.91 62.112 102.532 61.734 102.518 61.09C102.49 59.662 104.114 58.99 105.78 58.99ZM116.784 61.216C116.756 61.594 116.602 61.846 116.406 61.972C116.266 62.042 116.084 62.098 115.888 62.098C115.72 62.098 115.552 62.07 115.384 62C114.782 61.748 114.516 60.992 113.578 60.992C112.794 60.992 112.444 61.398 112.458 62C112.5 62.924 113.704 63.134 114.432 63.134C115.202 63.134 115.328 63.638 115.314 64.002C115.286 64.492 115.02 64.94 114.306 64.94C114.208 64.94 114.096 64.926 113.984 64.912C113.774 64.884 113.564 64.856 113.382 64.856C112.556 64.856 112.038 65.206 112.08 65.934C112.122 66.62 112.584 67.18 113.522 67.18C114.782 67.18 114.39 66.284 115.538 66.032C115.636 66.004 115.734 66.004 115.818 66.004C116.588 66.004 117.022 66.76 116.994 67.32C116.938 68.23 115.51 69.112 113.718 69.14C113.69 69.14 113.648 69.14 113.62 69.14C111.534 69.14 110.05 68.272 109.868 66.578C109.728 65.36 110.302 64.058 111.786 63.596C110.834 63.134 110.316 62.434 110.246 61.552C110.134 60.11 111.142 59.032 113.06 59.032C114.768 59.032 116.868 59.928 116.784 61.216ZM118.097 63.918C118.097 62.924 117.719 61.972 117.719 60.978C117.719 60.194 118.013 59.046 119.203 59.06C120.337 59.074 121.625 60.782 122.199 62.168C122.787 60.754 123.669 59.06 125.321 59.074C127.351 59.088 126.203 63.274 126.203 64.128C126.203 65.248 126.483 66.438 126.483 67.628C126.483 68.146 126.413 69 125.601 69H124.005C123.557 69 123.501 68.566 123.501 68.272C123.501 66.55 123.865 66.102 124.607 64.38C124.761 64.058 124.915 63.204 124.383 62.994C124.271 62.952 124.173 62.924 124.061 62.924C123.641 62.924 123.319 63.288 123.179 63.624C122.647 64.744 122.955 66.69 122.115 66.718C120.589 66.774 122.087 62.868 120.617 62.574C119.903 62.434 119.749 63.148 119.749 63.666C119.749 63.876 119.777 64.086 119.833 64.31C120.141 65.57 121.261 69 119.973 69H118.209C117.607 69 117.551 67.782 117.551 67.446C117.551 66.648 117.719 65.822 117.957 65.038C118.069 64.66 118.097 64.296 118.097 63.918ZM127.094 60.992C127.08 59.928 127.696 59.074 128.704 59.074C129.642 59.074 130.538 59.704 130.412 60.908C130.3 61.944 128.802 64.128 129.768 64.45C129.838 64.464 129.908 64.478 129.992 64.478C130.58 64.478 131.63 64.072 131.938 63.582C132.47 62.742 131.504 61.916 131.378 60.922C131.21 59.76 131.91 59.102 132.946 59.074C134.038 59.046 134.458 59.9 134.332 60.936C134.192 62.056 133.66 62.77 133.688 64.072C133.702 65.276 134.164 66.662 134.192 68.034C134.206 68.804 133.954 69 133.534 69H132.148C130.916 69 132.26 66.984 131.756 65.976C131.63 65.738 130.902 65.57 130.342 65.57C130.104 65.57 129.908 65.598 129.796 65.668C129.026 66.2 130.594 69 129.46 69H127.934C127.486 69 127.36 68.678 127.346 67.992C127.318 66.662 128.046 65.332 128.018 64.03C128.004 62.854 127.108 62.014 127.094 60.992ZM138.346 62.028C138.164 61.916 137.968 61.874 137.758 61.874C137.184 61.874 136.596 62.266 136.344 62.882C136.176 63.274 136.106 64.268 136.764 64.646C137.03 64.8 137.254 64.856 137.464 64.856C137.926 64.856 138.248 64.59 138.5 64.59C138.598 64.59 138.682 64.632 138.766 64.744C138.948 65.01 138.71 65.22 137.912 66.046C137.1 66.9 138.15 67.712 139.004 67.712C139.172 67.712 139.326 67.684 139.466 67.614C140.67 67.012 139.746 65.248 140.208 64.94C140.278 64.884 140.334 64.87 140.39 64.87C140.6 64.87 140.768 65.206 141.3 65.654C141.538 65.864 141.762 65.948 141.958 65.948C142.812 65.948 143.218 64.422 142.196 64.24C141.16 64.058 140.796 64.184 140.754 63.806C140.726 63.386 142.266 62.798 142.14 61.846C142.084 61.454 141.692 60.922 141.09 60.922C140.922 60.922 140.74 60.964 140.544 61.062C139.256 61.734 140.628 63.526 139.606 63.526C139.102 63.526 139.242 62.588 138.346 62.028ZM139.704 69.14C138.024 69.14 136.47 68.426 135.546 66.984C134.356 65.164 134.72 62.532 136.218 60.628C137.002 59.648 138.332 59.06 139.676 59.06C141.818 59.06 143.988 60.53 144.002 64.17C144.016 68.342 141.734 69.14 139.704 69.14ZM144.581 60.656C144.581 59.802 145.183 59.2 146.065 59.2C147.283 59.2 147.941 60.446 147.941 62.378C147.941 63.218 147.661 64.044 147.311 65.094C147.283 65.178 147.255 65.248 147.255 65.304C147.255 65.374 147.297 65.416 147.395 65.416C147.535 65.416 147.731 65.332 147.969 65.178C148.893 64.562 149.495 63.498 149.495 62.49C149.495 62.042 149.383 61.51 149.383 60.922C149.383 59.704 149.873 59.088 150.853 59.088C151.791 59.088 152.491 59.62 152.491 60.39C152.491 61.342 151.651 61.93 151.651 63.148C151.651 64.604 152.799 66.508 152.799 68.076C152.799 68.706 152.575 69 152.113 69H150.391C150.069 69 149.929 68.818 149.929 68.44C149.929 67.726 150.447 66.998 150.447 66.284C150.447 65.934 150.321 65.738 150.111 65.738C149.299 65.738 147.521 69 146.009 69C145.225 69 144.595 69.07 144.595 68.146C144.595 66.802 145.729 65.08 145.729 63.624C145.729 62.154 144.581 62.028 144.581 60.656ZM147.129 57.674C147.073 57.016 147.577 56.722 148.165 56.722C148.683 56.722 149.257 56.96 149.509 57.366C149.915 58.038 149.299 58.906 148.753 59.13C148.641 59.172 148.543 59.2 148.431 59.2C147.759 59.2 147.171 58.318 147.129 57.674ZM161.125 66.466C161.125 65.948 160.957 65.64 160.677 65.64C160.355 65.64 159.949 66.018 159.711 66.508C159.599 66.746 159.515 67.04 159.445 67.474C159.389 67.81 159.431 69 158.983 69H157.359C157.163 69 156.995 68.454 156.995 67.81C156.995 65.738 158.045 64.618 160.187 64.38C158.409 64.03 157.163 62.602 157.163 60.922C157.163 59.844 157.583 59.228 158.325 59.228C159.571 59.228 159.767 60.67 159.795 61.692C159.823 62.616 160.369 63.792 160.943 63.792C161.223 63.792 161.391 63.582 161.391 63.232C161.391 62.448 160.971 61.72 160.971 60.922C160.971 59.928 161.475 59.242 162.217 59.242C162.945 59.242 163.449 59.928 163.449 60.922C163.449 61.72 163.029 62.448 163.029 63.232C163.029 63.582 163.197 63.792 163.477 63.792C164.051 63.792 164.681 62.56 164.709 61.65C164.737 60.628 164.835 59.228 166.095 59.228C166.837 59.228 167.257 59.844 167.257 60.922C167.257 62.602 166.011 64.03 164.233 64.38C166.375 64.618 167.425 65.738 167.425 67.81C167.425 68.454 167.257 69 167.061 69H165.437C164.989 69 165.031 67.81 164.975 67.474C164.905 67.04 164.821 66.746 164.709 66.508C164.485 66.018 164.065 65.64 163.743 65.64C163.463 65.64 163.295 65.948 163.295 66.466C163.295 67.124 163.491 67.768 163.491 68.44C163.491 68.79 163.421 69 163.295 69H161.125C160.999 69 160.929 68.79 160.929 68.44C160.929 67.768 161.125 67.124 161.125 66.466ZM167.987 60.656C167.987 59.802 168.589 59.2 169.471 59.2C170.689 59.2 171.347 60.446 171.347 62.378C171.347 63.218 171.067 64.044 170.717 65.094C170.689 65.178 170.661 65.248 170.661 65.304C170.661 65.374 170.703 65.416 170.801 65.416C170.941 65.416 171.137 65.332 171.375 65.178C172.299 64.562 172.901 63.498 172.901 62.49C172.901 62.042 172.789 61.51 172.789 60.922C172.789 59.704 173.279 59.088 174.259 59.088C175.197 59.088 175.897 59.62 175.897 60.39C175.897 61.342 175.057 61.93 175.057 63.148C175.057 64.604 176.205 66.508 176.205 68.076C176.205 68.706 175.981 69 175.519 69H173.797C173.475 69 173.335 68.818 173.335 68.44C173.335 67.726 173.853 66.998 173.853 66.284C173.853 65.934 173.727 65.738 173.517 65.738C172.705 65.738 170.927 69 169.415 69C168.631 69 168.001 69.07 168.001 68.146C168.001 66.802 169.135 65.08 169.135 63.624C169.135 62.154 167.987 62.028 167.987 60.656ZM179.018 69H177.548C176.316 69 177.352 66.144 177.352 64.674C177.352 63.26 176.764 62.21 176.848 61.076C176.918 59.942 177.604 59.2 178.612 59.2C179.228 59.2 180.642 59.494 181.398 59.494C182.126 59.494 183.316 59.2 184.086 59.2C184.688 59.2 185.528 59.312 185.934 59.564C187.488 60.516 186.424 63.82 186.424 65.416C186.424 66.2 186.662 67.138 186.662 67.936C186.662 68.426 186.578 69 186.018 69H184.73C184.072 69 183.974 68.398 183.974 67.81C183.974 67.096 184.31 65.276 184.534 64.058C184.87 62.294 184.632 61.342 183.806 61.3C183.792 61.3 183.764 61.3 183.75 61.3C183.036 61.3 182.672 62.028 182.728 63.26C182.826 65.36 183.904 68.986 182.098 68.986H181.202C180.306 68.986 180.992 67.628 180.922 66.424C180.866 65.668 180.614 64.716 180.936 62.952C181.104 61.93 180.894 61.412 180.376 61.244C180.264 61.202 180.138 61.188 180.026 61.188C179.494 61.188 179.032 61.594 179.018 62.518C179.004 63.428 180.572 69 179.018 69ZM194.29 61.216C194.262 61.594 194.108 61.846 193.912 61.972C193.772 62.042 193.59 62.098 193.394 62.098C193.226 62.098 193.058 62.07 192.89 62C192.288 61.748 192.022 60.992 191.084 60.992C190.3 60.992 189.95 61.398 189.964 62C190.006 62.924 191.21 63.134 191.938 63.134C192.708 63.134 192.834 63.638 192.82 64.002C192.792 64.492 192.526 64.94 191.812 64.94C191.714 64.94 191.602 64.926 191.49 64.912C191.28 64.884 191.07 64.856 190.888 64.856C190.062 64.856 189.544 65.206 189.586 65.934C189.628 66.62 190.09 67.18 191.028 67.18C192.288 67.18 191.896 66.284 193.044 66.032C193.142 66.004 193.24 66.004 193.324 66.004C194.094 66.004 194.528 66.76 194.5 67.32C194.444 68.23 193.016 69.112 191.224 69.14C191.196 69.14 191.154 69.14 191.126 69.14C189.04 69.14 187.556 68.272 187.374 66.578C187.234 65.36 187.808 64.058 189.292 63.596C188.34 63.134 187.822 62.434 187.752 61.552C187.64 60.11 188.648 59.032 190.566 59.032C192.274 59.032 194.374 59.928 194.29 61.216ZM196.303 60.684C196.849 59.662 198.137 59.06 199.383 59.06C200.391 59.06 201.385 59.466 201.945 60.39C202.407 61.174 202.253 62.84 202.239 64.912C202.225 67.054 202.967 69 201.511 69H200.447C198.249 69 199.677 65.038 200.125 63.988C200.587 62.896 200.727 61.524 199.537 61.482C199.523 61.482 199.495 61.482 199.481 61.482C198.683 61.482 198.151 62.042 198.151 63.792C198.151 64.94 198.585 69 196.947 69H195.603C194.917 69 194.791 68.132 195.211 66.984C195.561 66.018 195.771 65.514 195.897 65.164C196.527 63.428 195.491 62.252 196.303 60.684ZM204.933 65.332C204.653 66.438 204.737 67.362 206.375 67.558C207.537 67.698 208.503 67.096 208.307 66.102C208.139 65.304 207.453 65.052 206.655 65.052C206.081 65.052 205.451 65.178 204.933 65.332ZM203.309 65.612C203.365 64.282 203.141 63.106 203.015 61.776C202.889 60.502 203.183 59.06 204.653 59.06C205.311 59.06 205.969 59.55 205.969 60.25C205.969 61.58 204.933 61.916 205.059 63.12C205.101 63.428 205.311 63.512 205.633 63.512C206.053 63.512 206.641 63.358 207.187 63.358C209.077 63.358 210.197 64.744 210.197 66.256C210.197 67.67 209.035 69 207.803 69H204.065C202.427 69 203.281 66.312 203.309 65.612ZM217.861 62.028C217.679 61.916 217.483 61.874 217.273 61.874C216.699 61.874 216.111 62.266 215.859 62.882C215.691 63.274 215.621 64.268 216.279 64.646C216.545 64.8 216.769 64.856 216.979 64.856C217.441 64.856 217.763 64.59 218.015 64.59C218.113 64.59 218.197 64.632 218.281 64.744C218.463 65.01 218.225 65.22 217.427 66.046C216.615 66.9 217.665 67.712 218.519 67.712C218.687 67.712 218.841 67.684 218.981 67.614C220.185 67.012 219.261 65.248 219.723 64.94C219.793 64.884 219.849 64.87 219.905 64.87C220.115 64.87 220.283 65.206 220.815 65.654C221.053 65.864 221.277 65.948 221.473 65.948C222.327 65.948 222.733 64.422 221.711 64.24C220.675 64.058 220.311 64.184 220.269 63.806C220.241 63.386 221.781 62.798 221.655 61.846C221.599 61.454 221.207 60.922 220.605 60.922C220.437 60.922 220.255 60.964 220.059 61.062C218.771 61.734 220.143 63.526 219.121 63.526C218.617 63.526 218.757 62.588 217.861 62.028ZM219.219 69.14C217.539 69.14 215.985 68.426 215.061 66.984C213.871 65.164 214.235 62.532 215.733 60.628C216.517 59.648 217.847 59.06 219.191 59.06C221.333 59.06 223.503 60.53 223.517 64.17C223.531 68.342 221.249 69.14 219.219 69.14ZM226.168 65.276C225.888 66.382 225.972 67.306 227.61 67.502C228.772 67.642 229.738 67.04 229.542 66.046C229.374 65.248 228.688 64.996 227.89 64.996C227.316 64.996 226.686 65.122 226.168 65.276ZM224.376 65.57C224.824 63.722 223.34 61.846 224.656 60.11C225.3 59.256 226.644 59.046 227.764 59.046C228.478 59.046 229.108 59.13 229.416 59.186C230.298 59.34 231.516 59.704 231.432 60.768C231.362 61.594 230.732 62.028 230.032 62.028C229.654 62.028 229.262 61.902 228.926 61.664C228.562 61.398 228.184 60.936 227.946 60.81C227.806 60.74 227.666 60.712 227.54 60.712C226.546 60.712 225.65 62.42 226.392 63.526C226.518 63.708 226.672 63.778 226.868 63.778C227.232 63.778 227.736 63.54 228.38 63.54C230.27 63.54 231.544 64.688 231.544 66.2C231.544 67.614 230.326 69 229.094 69H225.678C224.04 69 224.208 66.242 224.376 65.57ZM239.024 61.216C238.996 61.594 238.842 61.846 238.646 61.972C238.506 62.042 238.324 62.098 238.128 62.098C237.96 62.098 237.792 62.07 237.624 62C237.022 61.748 236.756 60.992 235.818 60.992C235.034 60.992 234.684 61.398 234.698 62C234.74 62.924 235.944 63.134 236.672 63.134C237.442 63.134 237.568 63.638 237.554 64.002C237.526 64.492 237.26 64.94 236.546 64.94C236.448 64.94 236.336 64.926 236.224 64.912C236.014 64.884 235.804 64.856 235.622 64.856C234.796 64.856 234.278 65.206 234.32 65.934C234.362 66.62 234.824 67.18 235.762 67.18C237.022 67.18 236.63 66.284 237.778 66.032C237.876 66.004 237.974 66.004 238.058 66.004C238.828 66.004 239.262 66.76 239.234 67.32C239.178 68.23 237.75 69.112 235.958 69.14C235.93 69.14 235.888 69.14 235.86 69.14C233.774 69.14 232.29 68.272 232.108 66.578C231.968 65.36 232.542 64.058 234.026 63.596C233.074 63.134 232.556 62.434 232.486 61.552C232.374 60.11 233.382 59.032 235.3 59.032C237.008 59.032 239.108 59.928 239.024 61.216ZM251.314 66.592C252.462 67.292 251.468 70.162 250.334 71.212C250.026 71.492 249.606 71.632 249.228 71.632C248.892 71.632 248.57 71.52 248.402 71.296C248.038 70.82 248.108 70.148 248.836 69.588C249.326 69.21 249.802 68.482 249.522 68.482C249.466 68.482 249.382 68.51 249.256 68.58C248.682 68.902 248.388 68.986 247.73 68.986C246.974 68.986 245.574 68.706 244.93 68.706C244.16 68.706 242.886 69.014 242.074 69.014C241.654 69.014 241.066 68.902 240.702 68.692C239.134 67.796 240.52 64.478 240.52 63.05C240.52 62.098 240.156 61.664 239.974 60.614C239.876 60.012 239.96 59.2 241.108 59.2C242.872 59.2 242.802 61.986 242.354 63.708C242.186 64.338 241.598 66.69 242.676 66.928C242.76 66.942 242.844 66.956 242.914 66.956C243.824 66.956 243.992 65.738 243.838 64.366C243.74 63.47 243.32 61.594 243.6 60.292C243.698 59.802 244.034 59.2 244.804 59.2C245.63 59.2 245.994 59.788 245.896 60.446C245.728 61.482 245.56 62.266 245.714 62.98C245.924 64.002 245.938 64.352 245.854 65.962C245.826 66.62 246.246 67.026 246.68 67.026C247.044 67.026 247.422 66.704 247.478 65.976C247.576 64.478 246.932 63.288 246.974 61.048C246.988 60.04 247.282 59.2 248.458 59.2C249.354 59.2 249.746 59.928 249.438 60.852C248.78 62.756 249.844 64.338 249.634 65.934C249.62 66.074 249.564 66.382 249.606 66.578C249.634 66.718 249.69 66.788 249.746 66.83C249.998 66.97 250.418 66.48 250.922 66.48C251.048 66.48 251.174 66.508 251.314 66.592ZM256.163 61.37C257.078 61.37 257.754 61.5707 258.193 61.972C258.632 62.3733 258.851 63.0127 258.851 63.89V69H257.955L257.717 67.936H257.661C257.446 68.2067 257.222 68.4353 256.989 68.622C256.765 68.7993 256.504 68.93 256.205 69.014C255.916 69.098 255.561 69.14 255.141 69.14C254.693 69.14 254.287 69.0607 253.923 68.902C253.568 68.7433 253.288 68.5007 253.083 68.174C252.878 67.838 252.775 67.418 252.775 66.914C252.775 66.1673 253.069 65.5933 253.657 65.192C254.245 64.7813 255.15 64.5573 256.373 64.52L257.647 64.478V64.03C257.647 63.4047 257.512 62.9707 257.241 62.728C256.97 62.4853 256.588 62.364 256.093 62.364C255.701 62.364 255.328 62.4247 254.973 62.546C254.618 62.658 254.287 62.7887 253.979 62.938L253.601 62.014C253.928 61.8367 254.315 61.6873 254.763 61.566C255.211 61.4353 255.678 61.37 256.163 61.37ZM256.527 65.374C255.594 65.4113 254.945 65.5607 254.581 65.822C254.226 66.0833 254.049 66.452 254.049 66.928C254.049 67.348 254.175 67.656 254.427 67.852C254.688 68.048 255.02 68.146 255.421 68.146C256.056 68.146 256.583 67.9733 257.003 67.628C257.423 67.2733 257.633 66.732 257.633 66.004V65.332L256.527 65.374ZM269.863 62.294C270.101 61.51 269.457 60.558 268.533 60.684C266.601 60.95 267.581 62.952 267.791 63.722C267.805 63.778 267.763 63.806 267.679 63.806C267.469 63.806 267.021 63.68 266.573 63.68C266.419 63.68 266.251 63.694 266.111 63.736C264.851 64.114 265.131 65.444 265.593 66.06C266.013 66.62 266.615 66.872 267.119 66.872C268.015 66.872 268.337 66.088 268.337 65.304C268.351 65.08 268.435 64.968 268.575 64.968C268.645 64.968 268.743 65.01 268.841 65.066C269.317 65.36 269.765 66.242 270.535 66.242C270.619 66.242 270.717 66.228 270.815 66.2C271.361 66.06 272.019 64.674 271.361 63.932C271.095 63.638 270.815 63.54 270.549 63.54C270.101 63.54 269.681 63.806 269.415 63.834C268.743 63.904 269.709 62.854 269.863 62.294ZM268.631 69.014C267.035 69.014 265.579 68.398 264.725 66.984C264.291 66.27 264.501 66.62 264.067 65.668C264.011 65.528 263.829 65.472 263.619 65.472C263.311 65.472 262.947 65.598 262.821 65.724C263.073 66.998 263.997 69 262.555 69H261.057C259.223 69 261.197 67.082 260.805 63.764C260.595 62 260.385 61.636 260.483 60.53C260.595 59.382 261.589 59.074 262.093 59.074C262.821 59.074 263.689 59.592 263.535 60.838C263.367 62.168 262.387 62.266 262.653 63.918C262.667 64.016 262.793 64.058 262.975 64.058C263.353 64.058 263.969 63.82 264.081 63.232C264.361 61.748 264.837 60.964 265.579 60.236C266.293 59.536 267.427 59.074 268.575 59.074C270.563 59.074 272.579 60.432 272.593 64.17C272.607 68.3 270.521 69.014 268.631 69.014ZM92.9461 78.848C93.0021 77.49 92.4141 76.482 92.6241 75.306C92.7361 74.606 93.1001 74.2 93.8141 74.2C94.6121 74.2 95.7741 74.522 96.4461 74.522C97.2721 74.522 97.5381 74.186 98.2101 74.186C99.2881 74.186 99.6381 74.858 99.6801 75.852C99.7221 76.888 99.2181 77.672 99.4421 79.072C99.9601 82.278 100.282 84 98.8261 84H98.0281C96.6841 84 97.0761 81.242 97.3841 79.94C97.6081 78.974 98.3361 76.468 96.3061 76.51C94.5561 76.552 94.7801 77.854 95.1161 79.758C95.5221 82.026 95.9421 84 94.2061 84H93.4361C91.7001 84 92.8621 80.542 92.9461 78.848ZM102.471 77.574C102.429 78.12 102.569 78.792 102.695 78.96C103.115 79.044 103.605 79.114 104.081 79.114C104.977 79.114 105.803 78.834 105.915 77.7C106.027 76.552 105.117 75.978 104.025 75.978C102.933 75.978 102.527 76.44 102.471 77.574ZM100.791 77.7C100.791 76.986 100.567 76.244 100.679 75.572C100.861 74.55 101.939 74.046 103.927 74.046C106.475 74.046 107.875 75.124 107.875 77.154C107.875 79.044 106.727 80.822 104.991 80.822C103.955 80.822 103.157 80.528 102.919 80.528C102.751 80.528 102.667 80.612 102.667 80.99C102.667 81.984 103.689 82.908 103.689 83.594C103.689 83.874 103.549 84 103.241 84H101.127C100.511 84 100.525 82.866 100.525 82.516C100.525 80.892 100.791 79.31 100.791 77.7ZM108.261 75.656C108.261 74.802 108.863 74.2 109.745 74.2C110.963 74.2 111.621 75.446 111.621 77.378C111.621 78.218 111.341 79.044 110.991 80.094C110.963 80.178 110.935 80.248 110.935 80.304C110.935 80.374 110.977 80.416 111.075 80.416C111.215 80.416 111.411 80.332 111.649 80.178C112.573 79.562 113.175 78.498 113.175 77.49C113.175 77.042 113.063 76.51 113.063 75.922C113.063 74.704 113.553 74.088 114.533 74.088C115.471 74.088 116.171 74.62 116.171 75.39C116.171 76.342 115.331 76.93 115.331 78.148C115.331 79.604 116.479 81.508 116.479 83.076C116.479 83.706 116.255 84 115.793 84H114.071C113.749 84 113.609 83.818 113.609 83.44C113.609 82.726 114.127 81.998 114.127 81.284C114.127 80.934 114.001 80.738 113.791 80.738C112.979 80.738 111.201 84 109.689 84C108.905 84 108.275 84.07 108.275 83.146C108.275 81.802 109.409 80.08 109.409 78.624C109.409 77.154 108.261 77.028 108.261 75.656ZM117.039 75.656C117.039 74.802 117.641 74.2 118.523 74.2C119.741 74.2 120.399 75.446 120.399 77.378C120.399 78.218 120.119 79.044 119.769 80.094C119.741 80.178 119.713 80.248 119.713 80.304C119.713 80.374 119.755 80.416 119.853 80.416C119.993 80.416 120.189 80.332 120.427 80.178C121.351 79.562 121.953 78.498 121.953 77.49C121.953 77.042 121.841 76.51 121.841 75.922C121.841 74.704 122.331 74.088 123.311 74.088C124.249 74.088 124.949 74.62 124.949 75.39C124.949 76.342 124.109 76.93 124.109 78.148C124.109 79.604 125.257 81.508 125.257 83.076C125.257 83.706 125.033 84 124.571 84H122.849C122.527 84 122.387 83.818 122.387 83.44C122.387 82.726 122.905 81.998 122.905 81.284C122.905 80.934 122.779 80.738 122.569 80.738C121.757 80.738 119.979 84 118.467 84C117.683 84 117.053 84.07 117.053 83.146C117.053 81.802 118.187 80.08 118.187 78.624C118.187 77.154 117.039 77.028 117.039 75.656ZM119.587 72.674C119.531 72.016 120.035 71.722 120.623 71.722C121.141 71.722 121.715 71.96 121.967 72.366C122.373 73.038 121.757 73.906 121.211 74.13C121.099 74.172 121.001 74.2 120.889 74.2C120.217 74.2 119.629 73.318 119.587 72.674ZM128.07 84H126.6C125.368 84 126.404 81.144 126.404 79.674C126.404 78.26 125.816 77.21 125.9 76.076C125.97 74.942 126.656 74.2 127.664 74.2C128.28 74.2 129.694 74.494 130.45 74.494C131.178 74.494 132.368 74.2 133.138 74.2C133.74 74.2 134.58 74.312 134.986 74.564C136.54 75.516 135.476 78.82 135.476 80.416C135.476 81.2 135.714 82.138 135.714 82.936C135.714 83.426 135.63 84 135.07 84H133.782C133.124 84 133.026 83.398 133.026 82.81C133.026 82.096 133.362 80.276 133.586 79.058C133.922 77.294 133.684 76.342 132.858 76.3C132.844 76.3 132.816 76.3 132.802 76.3C132.088 76.3 131.724 77.028 131.78 78.26C131.878 80.36 132.956 83.986 131.15 83.986H130.254C129.358 83.986 130.044 82.628 129.974 81.424C129.918 80.668 129.666 79.716 129.988 77.952C130.156 76.93 129.946 76.412 129.428 76.244C129.316 76.202 129.19 76.188 129.078 76.188C128.546 76.188 128.084 76.594 128.07 77.518C128.056 78.428 129.624 84 128.07 84ZM136.426 75.656C136.426 74.802 137.028 74.2 137.91 74.2C139.128 74.2 139.786 75.446 139.786 77.378C139.786 78.218 139.506 79.044 139.156 80.094C139.128 80.178 139.1 80.248 139.1 80.304C139.1 80.374 139.142 80.416 139.24 80.416C139.38 80.416 139.576 80.332 139.814 80.178C140.738 79.562 141.34 78.498 141.34 77.49C141.34 77.042 141.228 76.51 141.228 75.922C141.228 74.704 141.718 74.088 142.698 74.088C143.636 74.088 144.336 74.62 144.336 75.39C144.336 76.342 143.496 76.93 143.496 78.148C143.496 79.604 144.644 81.508 144.644 83.076C144.644 83.706 144.42 84 143.958 84H142.236C141.914 84 141.774 83.818 141.774 83.44C141.774 82.726 142.292 81.998 142.292 81.284C142.292 80.934 142.166 80.738 141.956 80.738C141.144 80.738 139.366 84 137.854 84C137.07 84 136.44 84.07 136.44 83.146C136.44 81.802 137.574 80.08 137.574 78.624C137.574 77.154 136.426 77.028 136.426 75.656ZM148.84 75.656C148.84 74.802 149.442 74.2 150.324 74.2C151.542 74.2 152.2 75.446 152.2 77.378C152.2 78.218 151.92 79.044 151.57 80.094C151.542 80.178 151.514 80.248 151.514 80.304C151.514 80.374 151.556 80.416 151.654 80.416C151.794 80.416 151.99 80.332 152.228 80.178C153.152 79.562 153.754 78.498 153.754 77.49C153.754 77.042 153.642 76.51 153.642 75.922C153.642 74.704 154.132 74.088 155.112 74.088C156.05 74.088 156.75 74.62 156.75 75.39C156.75 76.342 155.91 76.93 155.91 78.148C155.91 79.604 157.058 81.508 157.058 83.076C157.058 83.706 156.834 84 156.372 84H154.65C154.328 84 154.188 83.818 154.188 83.44C154.188 82.726 154.706 81.998 154.706 81.284C154.706 80.934 154.58 80.738 154.37 80.738C153.558 80.738 151.78 84 150.268 84C149.484 84 148.854 84.07 148.854 83.146C148.854 81.802 149.988 80.08 149.988 78.624C149.988 77.154 148.84 77.028 148.84 75.656ZM163.326 80.276C163.046 81.382 163.13 82.306 164.768 82.502C165.93 82.642 166.896 82.04 166.7 81.046C166.532 80.248 165.846 79.996 165.048 79.996C164.474 79.996 163.844 80.122 163.326 80.276ZM163.284 78.498C165.244 78.246 165.58 77.672 165.552 76.832C165.538 76.174 164.908 75.642 164.236 75.642C163.942 75.642 163.634 75.754 163.382 76.006C162.668 76.72 163.046 77.588 163.284 78.498ZM161.408 77.322C161.254 75.866 161.31 75.068 162.234 74.494C162.696 74.2 163.368 74.06 164.068 74.06C165.258 74.06 166.532 74.466 167.036 75.208C167.666 76.146 167.512 77.308 166.728 78.358C166.588 78.554 166.406 78.736 166.21 78.89C167.386 79.03 168.562 79.646 168.8 81.256C169.01 82.698 167.876 84 166.63 84H162.22C160.82 84 161.772 80.906 161.408 77.322ZM176.304 76.216C176.276 76.594 176.122 76.846 175.926 76.972C175.786 77.042 175.604 77.098 175.408 77.098C175.24 77.098 175.072 77.07 174.904 77C174.302 76.748 174.036 75.992 173.098 75.992C172.314 75.992 171.964 76.398 171.978 77C172.02 77.924 173.224 78.134 173.952 78.134C174.722 78.134 174.848 78.638 174.834 79.002C174.806 79.492 174.54 79.94 173.826 79.94C173.728 79.94 173.616 79.926 173.504 79.912C173.294 79.884 173.084 79.856 172.902 79.856C172.076 79.856 171.558 80.206 171.6 80.934C171.642 81.62 172.104 82.18 173.042 82.18C174.302 82.18 173.91 81.284 175.058 81.032C175.156 81.004 175.254 81.004 175.338 81.004C176.108 81.004 176.542 81.76 176.514 82.32C176.458 83.23 175.03 84.112 173.238 84.14C173.21 84.14 173.168 84.14 173.14 84.14C171.054 84.14 169.57 83.272 169.388 81.578C169.248 80.36 169.822 79.058 171.306 78.596C170.354 78.134 169.836 77.434 169.766 76.552C169.654 75.11 170.662 74.032 172.58 74.032C174.288 74.032 176.388 74.928 176.304 76.216ZM183.218 77C182.588 76.636 182.406 75.978 181.272 75.978C179.858 75.978 179.424 77.644 179.354 78.778C179.242 80.458 179.872 81.942 181.09 81.942C181.356 81.942 181.636 81.872 181.958 81.718C182.686 81.368 182.658 80.906 183.064 80.5C183.246 80.304 183.526 80.206 183.834 80.206C184.114 80.206 184.408 80.304 184.632 80.486C185.402 81.13 185.15 82.74 183.512 83.622C182.882 83.986 182.098 84.154 181.37 84.154C181.216 84.154 181.062 84.14 180.922 84.126C178.36 83.846 176.806 81.298 177.044 78.778C177.296 76.258 178.794 74.018 181.538 74.018C182.546 74.018 183.442 74.312 183.932 74.69C184.534 75.166 185.024 76.188 184.45 76.818C184.24 77.056 184.016 77.168 183.764 77.168C183.582 77.168 183.4 77.112 183.218 77ZM192.601 76.216C192.573 76.594 192.419 76.846 192.223 76.972C192.083 77.042 191.901 77.098 191.705 77.098C191.537 77.098 191.369 77.07 191.201 77C190.599 76.748 190.333 75.992 189.395 75.992C188.611 75.992 188.261 76.398 188.275 77C188.317 77.924 189.521 78.134 190.249 78.134C191.019 78.134 191.145 78.638 191.131 79.002C191.103 79.492 190.837 79.94 190.123 79.94C190.025 79.94 189.913 79.926 189.801 79.912C189.591 79.884 189.381 79.856 189.199 79.856C188.373 79.856 187.855 80.206 187.897 80.934C187.939 81.62 188.401 82.18 189.339 82.18C190.599 82.18 190.207 81.284 191.355 81.032C191.453 81.004 191.551 81.004 191.635 81.004C192.405 81.004 192.839 81.76 192.811 82.32C192.755 83.23 191.327 84.112 189.535 84.14C189.507 84.14 189.465 84.14 189.437 84.14C187.351 84.14 185.867 83.272 185.685 81.578C185.545 80.36 186.119 79.058 187.603 78.596C186.651 78.134 186.133 77.434 186.063 76.552C185.951 75.11 186.959 74.032 188.877 74.032C190.585 74.032 192.685 74.928 192.601 76.216ZM194.615 75.684C195.161 74.662 196.449 74.06 197.695 74.06C198.703 74.06 199.697 74.466 200.257 75.39C200.719 76.174 200.565 77.84 200.551 79.912C200.537 82.054 201.279 84 199.823 84H198.759C196.561 84 197.989 80.038 198.437 78.988C198.899 77.896 199.039 76.524 197.849 76.482C197.835 76.482 197.807 76.482 197.793 76.482C196.995 76.482 196.463 77.042 196.463 78.792C196.463 79.94 196.897 84 195.259 84H193.915C193.229 84 193.103 83.132 193.523 81.984C193.873 81.018 194.083 80.514 194.209 80.164C194.839 78.428 193.803 77.252 194.615 75.684ZM201.299 75.656C201.299 74.802 201.901 74.2 202.783 74.2C204.001 74.2 204.659 75.446 204.659 77.378C204.659 78.218 204.379 79.044 204.029 80.094C204.001 80.178 203.973 80.248 203.973 80.304C203.973 80.374 204.015 80.416 204.113 80.416C204.253 80.416 204.449 80.332 204.687 80.178C205.611 79.562 206.213 78.498 206.213 77.49C206.213 77.042 206.101 76.51 206.101 75.922C206.101 74.704 206.591 74.088 207.571 74.088C208.509 74.088 209.209 74.62 209.209 75.39C209.209 76.342 208.369 76.93 208.369 78.148C208.369 79.604 209.517 81.508 209.517 83.076C209.517 83.706 209.293 84 208.831 84H207.109C206.787 84 206.647 83.818 206.647 83.44C206.647 82.726 207.165 81.998 207.165 81.284C207.165 80.934 207.039 80.738 206.829 80.738C206.017 80.738 204.239 84 202.727 84C201.943 84 201.313 84.07 201.313 83.146C201.313 81.802 202.447 80.08 202.447 78.624C202.447 77.154 201.299 77.028 201.299 75.656ZM212.33 84H210.86C209.628 84 210.664 81.144 210.664 79.674C210.664 78.26 210.076 77.21 210.16 76.076C210.23 74.942 210.916 74.2 211.924 74.2C212.54 74.2 213.954 74.494 214.71 74.494C215.438 74.494 216.628 74.2 217.398 74.2C218 74.2 218.84 74.312 219.246 74.564C220.8 75.516 219.736 78.82 219.736 80.416C219.736 81.2 219.974 82.138 219.974 82.936C219.974 83.426 219.89 84 219.33 84H218.042C217.384 84 217.286 83.398 217.286 82.81C217.286 82.096 217.622 80.276 217.846 79.058C218.182 77.294 217.944 76.342 217.118 76.3C217.104 76.3 217.076 76.3 217.062 76.3C216.348 76.3 215.984 77.028 216.04 78.26C216.138 80.36 217.216 83.986 215.41 83.986H214.514C213.618 83.986 214.304 82.628 214.234 81.424C214.178 80.668 213.926 79.716 214.248 77.952C214.416 76.93 214.206 76.412 213.688 76.244C213.576 76.202 213.45 76.188 213.338 76.188C212.806 76.188 212.344 76.594 212.33 77.518C212.316 78.428 213.884 84 212.33 84ZM222.631 80.332C222.351 81.438 222.435 82.362 224.073 82.558C225.235 82.698 226.201 82.096 226.005 81.102C225.837 80.304 225.151 80.052 224.353 80.052C223.779 80.052 223.149 80.178 222.631 80.332ZM221.007 80.612C221.063 79.282 220.839 78.106 220.713 76.776C220.587 75.502 220.881 74.06 222.351 74.06C223.009 74.06 223.667 74.55 223.667 75.25C223.667 76.58 222.631 76.916 222.757 78.12C222.799 78.428 223.009 78.512 223.331 78.512C223.751 78.512 224.339 78.358 224.885 78.358C226.775 78.358 227.895 79.744 227.895 81.256C227.895 82.67 226.733 84 225.501 84H221.763C220.125 84 220.979 81.312 221.007 80.612ZM234.597 77C233.967 76.636 233.785 75.978 232.651 75.978C231.237 75.978 230.803 77.644 230.733 78.778C230.621 80.458 231.251 81.942 232.469 81.942C232.735 81.942 233.015 81.872 233.337 81.718C234.065 81.368 234.037 80.906 234.443 80.5C234.625 80.304 234.905 80.206 235.213 80.206C235.493 80.206 235.787 80.304 236.011 80.486C236.781 81.13 236.529 82.74 234.891 83.622C234.261 83.986 233.477 84.154 232.749 84.154C232.595 84.154 232.441 84.14 232.301 84.126C229.739 83.846 228.185 81.298 228.423 78.778C228.675 76.258 230.173 74.018 232.917 74.018C233.925 74.018 234.821 74.312 235.311 74.69C235.913 75.166 236.403 76.188 235.829 76.818C235.619 77.056 235.395 77.168 235.143 77.168C234.961 77.168 234.779 77.112 234.597 77ZM242.58 77.07C242.608 76.132 242.188 75.712 241.264 75.712C240.326 75.712 239.542 76.104 239.598 77.084C239.668 78.092 240.508 78.33 241.376 78.33C241.754 78.33 242.118 78.288 242.44 78.246C242.482 78.092 242.566 77.532 242.58 77.07ZM243.924 84.084H242.216C241.166 84.084 241.642 82.838 241.992 81.676C242.216 80.948 241.936 80.626 241.502 80.626C241.11 80.626 240.592 80.906 240.228 81.41C239.332 82.656 240.382 84.084 239.248 84.084H237.862C236.91 84.084 236.812 81.886 237.61 80.808C238.352 79.8 239.318 79.492 240.424 79.38C238.352 79.352 236.938 77.462 237.82 75.628C238.464 74.284 240.27 74.004 241.642 74.074C242.874 74.144 244.358 74.088 244.288 75.138C244.134 77.42 244.162 78.204 244.162 78.89C244.176 81.774 245.212 84.084 243.924 84.084Z" fill="#101010"/>
</svg>
