<svg width="511" height="640" viewBox="0 0 511 640" fill="none" xmlns="http://www.w3.org/2000/svg">
<path d="M130.344 574.5C130.344 566.686 128.658 558.949 125.383 551.73C122.108 544.511 117.307 537.952 111.255 532.427C105.204 526.902 98.0191 522.519 90.1121 519.529C82.2051 516.539 73.7304 515 65.1719 515L65.1719 574.5H130.344Z" fill="#101010"/>
<path d="M130.344 65.1719C130.344 72.9855 128.658 80.7227 125.383 87.9415C122.108 95.1604 117.307 101.72 111.255 107.245C105.204 112.77 98.0191 117.153 90.1121 120.143C82.2051 123.133 73.7304 124.672 65.1719 124.672L65.1719 65.1719L130.344 65.1719Z" fill="#101010"/>
<path d="M451.5 509.328C443.686 509.328 435.949 511.014 428.73 514.289C421.511 517.564 414.952 522.365 409.427 528.416C403.902 534.468 399.519 541.653 396.529 549.56C393.539 557.467 392 565.941 392 574.5L451.5 574.5L451.5 509.328Z" fill="#101010"/>
<path d="M451.5 130.344C443.686 130.344 435.949 128.658 428.73 125.383C421.511 122.108 414.952 117.307 409.427 111.255C403.902 105.204 399.519 98.0191 396.529 90.1121C393.539 82.2051 392 73.7304 392 65.1719L451.5 65.1719L451.5 130.344Z" fill="#101010"/>
<line x1="449" y1="104" x2="449" y2="525" stroke="#101010" stroke-width="4"/>
<line x1="67" y1="104" x2="67" y2="525" stroke="#101010" stroke-width="4"/>
<line x1="402" y1="572" x2="118" y2="572" stroke="#101010" stroke-width="4"/>
<line x1="402" y1="67" x2="118" y2="67" stroke="#101010" stroke-width="4"/>
<line x1="402" y1="239" x2="118" y2="239" stroke="#101010" stroke-width="4"/>
<line x1="402" y1="292" x2="118" y2="292" stroke="#101010" stroke-width="4"/>
<line x1="402" y1="348" x2="118" y2="348" stroke="#101010" stroke-width="4"/>
<line x1="402" y1="445" x2="257" y2="445" stroke="#101010" stroke-width="4"/>
<path d="M175.492 324.696C175.492 323.232 176.524 322.2 178.036 322.2C180.124 322.2 181.252 324.336 181.252 327.648C181.252 329.088 180.772 330.504 180.172 332.304C180.124 332.448 180.076 332.568 180.076 332.664C180.076 332.784 180.148 332.856 180.316 332.856C180.556 332.856 180.892 332.712 181.3 332.448C182.884 331.392 183.916 329.568 183.916 327.84C183.916 327.072 183.724 326.16 183.724 325.152C183.724 323.064 184.564 322.008 186.244 322.008C187.852 322.008 189.052 322.92 189.052 324.24C189.052 325.872 187.612 326.88 187.612 328.968C187.612 331.464 189.58 334.728 189.58 337.416C189.58 338.496 189.196 339 188.404 339H185.452C184.9 339 184.66 338.688 184.66 338.04C184.66 336.816 185.548 335.568 185.548 334.344C185.548 333.744 185.332 333.408 184.972 333.408C183.58 333.408 180.532 339 177.94 339C176.596 339 175.516 339.12 175.516 337.536C175.516 335.232 177.46 332.28 177.46 329.784C177.46 327.264 175.492 327.048 175.492 324.696ZM200.325 332.616C199.845 334.512 199.989 336.096 202.797 336.432C204.789 336.672 206.445 335.64 206.109 333.936C205.821 332.568 204.645 332.136 203.277 332.136C202.293 332.136 201.213 332.352 200.325 332.616ZM200.253 329.568C203.613 329.136 204.189 328.152 204.141 326.712C204.117 325.584 203.037 324.672 201.885 324.672C201.381 324.672 200.853 324.864 200.421 325.296C199.197 326.52 199.845 328.008 200.253 329.568ZM197.037 327.552C196.773 325.056 196.869 323.688 198.453 322.704C199.245 322.2 200.397 321.96 201.597 321.96C203.637 321.96 205.821 322.656 206.685 323.928C207.765 325.536 207.501 327.528 206.157 329.328C205.917 329.664 205.605 329.976 205.269 330.24C207.285 330.48 209.301 331.536 209.709 334.296C210.069 336.768 208.125 339 205.989 339H198.429C196.029 339 197.661 333.696 197.037 327.552ZM222.574 325.656C222.526 326.304 222.262 326.736 221.926 326.952C221.686 327.072 221.374 327.168 221.038 327.168C220.75 327.168 220.462 327.12 220.174 327C219.142 326.568 218.686 325.272 217.078 325.272C215.734 325.272 215.134 325.968 215.158 327C215.23 328.584 217.294 328.944 218.542 328.944C219.862 328.944 220.078 329.808 220.054 330.432C220.006 331.272 219.55 332.04 218.326 332.04C218.158 332.04 217.966 332.016 217.774 331.992C217.414 331.944 217.054 331.896 216.742 331.896C215.326 331.896 214.438 332.496 214.51 333.744C214.582 334.92 215.374 335.88 216.982 335.88C219.142 335.88 218.47 334.344 220.438 333.912C220.606 333.864 220.774 333.864 220.918 333.864C222.238 333.864 222.982 335.16 222.934 336.12C222.838 337.68 220.39 339.192 217.318 339.24C217.27 339.24 217.198 339.24 217.15 339.24C213.574 339.24 211.03 337.752 210.718 334.848C210.478 332.76 211.462 330.528 214.006 329.736C212.374 328.944 211.486 327.744 211.366 326.232C211.174 323.76 212.902 321.912 216.19 321.912C219.118 321.912 222.718 323.448 222.574 325.656ZM234.426 327C233.346 326.376 233.034 325.248 231.09 325.248C228.666 325.248 227.922 328.104 227.802 330.048C227.61 332.928 228.69 335.472 230.778 335.472C231.234 335.472 231.714 335.352 232.266 335.088C233.514 334.488 233.466 333.696 234.162 333C234.474 332.664 234.954 332.496 235.482 332.496C235.962 332.496 236.466 332.664 236.85 332.976C238.17 334.08 237.738 336.84 234.93 338.352C233.85 338.976 232.506 339.264 231.258 339.264C230.994 339.264 230.73 339.24 230.49 339.216C226.098 338.736 223.434 334.368 223.842 330.048C224.274 325.728 226.842 321.888 231.546 321.888C233.274 321.888 234.81 322.392 235.65 323.04C236.682 323.856 237.522 325.608 236.538 326.688C236.178 327.096 235.794 327.288 235.362 327.288C235.05 327.288 234.738 327.192 234.426 327ZM250.512 325.656C250.464 326.304 250.2 326.736 249.864 326.952C249.624 327.072 249.312 327.168 248.976 327.168C248.688 327.168 248.4 327.12 248.112 327C247.08 326.568 246.624 325.272 245.016 325.272C243.672 325.272 243.072 325.968 243.096 327C243.168 328.584 245.232 328.944 246.48 328.944C247.8 328.944 248.016 329.808 247.992 330.432C247.944 331.272 247.488 332.04 246.264 332.04C246.096 332.04 245.904 332.016 245.712 331.992C245.352 331.944 244.992 331.896 244.68 331.896C243.264 331.896 242.376 332.496 242.448 333.744C242.52 334.92 243.312 335.88 244.92 335.88C247.08 335.88 246.408 334.344 248.376 333.912C248.544 333.864 248.712 333.864 248.856 333.864C250.176 333.864 250.92 335.16 250.872 336.12C250.776 337.68 248.328 339.192 245.256 339.24C245.208 339.24 245.136 339.24 245.088 339.24C241.512 339.24 238.968 337.752 238.656 334.848C238.416 332.76 239.4 330.528 241.944 329.736C240.312 328.944 239.424 327.744 239.304 326.232C239.112 323.76 240.84 321.912 244.128 321.912C247.056 321.912 250.656 323.448 250.512 325.656ZM253.964 324.744C254.9 322.992 257.108 321.96 259.244 321.96C260.972 321.96 262.676 322.656 263.636 324.24C264.428 325.584 264.164 328.44 264.14 331.992C264.116 335.664 265.388 339 262.892 339H261.068C257.3 339 259.748 332.208 260.516 330.408C261.308 328.536 261.548 326.184 259.508 326.112C259.484 326.112 259.436 326.112 259.412 326.112C258.044 326.112 257.132 327.072 257.132 330.072C257.132 332.04 257.876 339 255.068 339H252.764C251.588 339 251.372 337.512 252.092 335.544C252.692 333.888 253.052 333.024 253.268 332.424C254.348 329.448 252.572 327.432 253.964 324.744ZM265.421 324.696C265.421 323.232 266.453 322.2 267.965 322.2C270.053 322.2 271.181 324.336 271.181 327.648C271.181 329.088 270.701 330.504 270.101 332.304C270.053 332.448 270.005 332.568 270.005 332.664C270.005 332.784 270.077 332.856 270.245 332.856C270.485 332.856 270.821 332.712 271.229 332.448C272.813 331.392 273.845 329.568 273.845 327.84C273.845 327.072 273.653 326.16 273.653 325.152C273.653 323.064 274.493 322.008 276.173 322.008C277.781 322.008 278.981 322.92 278.981 324.24C278.981 325.872 277.541 326.88 277.541 328.968C277.541 331.464 279.509 334.728 279.509 337.416C279.509 338.496 279.125 339 278.333 339H275.381C274.829 339 274.589 338.688 274.589 338.04C274.589 336.816 275.477 335.568 275.477 334.344C275.477 333.744 275.261 333.408 274.901 333.408C273.509 333.408 270.461 339 267.869 339C266.525 339 265.445 339.12 265.445 337.536C265.445 335.232 267.389 332.28 267.389 329.784C267.389 327.264 265.421 327.048 265.421 324.696ZM284.332 339H281.812C279.7 339 281.476 334.104 281.476 331.584C281.476 329.16 280.468 327.36 280.612 325.416C280.732 323.472 281.908 322.2 283.636 322.2C284.692 322.2 287.116 322.704 288.412 322.704C289.66 322.704 291.7 322.2 293.02 322.2C294.052 322.2 295.492 322.392 296.188 322.824C298.852 324.456 297.028 330.12 297.028 332.856C297.028 334.2 297.436 335.808 297.436 337.176C297.436 338.016 297.292 339 296.332 339H294.124C292.996 339 292.828 337.968 292.828 336.96C292.828 335.736 293.404 332.616 293.788 330.528C294.364 327.504 293.956 325.872 292.54 325.8C292.516 325.8 292.468 325.8 292.444 325.8C291.22 325.8 290.596 327.048 290.692 329.16C290.86 332.76 292.708 338.976 289.612 338.976H288.076C286.54 338.976 287.716 336.648 287.596 334.584C287.5 333.288 287.068 331.656 287.62 328.632C287.908 326.88 287.548 325.992 286.66 325.704C286.468 325.632 286.252 325.608 286.06 325.608C285.148 325.608 284.356 326.304 284.332 327.888C284.308 329.448 286.996 339 284.332 339ZM301.992 332.712C301.512 334.608 301.656 336.192 304.464 336.528C306.456 336.768 308.112 335.736 307.776 334.032C307.488 332.664 306.312 332.232 304.944 332.232C303.96 332.232 302.88 332.448 301.992 332.712ZM299.208 333.192C299.304 330.912 298.92 328.896 298.704 326.616C298.488 324.432 298.992 321.96 301.512 321.96C302.64 321.96 303.768 322.8 303.768 324C303.768 326.28 301.992 326.856 302.208 328.92C302.28 329.448 302.64 329.592 303.192 329.592C303.912 329.592 304.92 329.328 305.856 329.328C309.096 329.328 311.016 331.704 311.016 334.296C311.016 336.72 309.024 339 306.912 339H300.504C297.696 339 299.16 334.392 299.208 333.192ZM322.504 327C321.424 326.376 321.112 325.248 319.168 325.248C316.744 325.248 316 328.104 315.88 330.048C315.688 332.928 316.768 335.472 318.856 335.472C319.312 335.472 319.792 335.352 320.344 335.088C321.592 334.488 321.544 333.696 322.24 333C322.552 332.664 323.032 332.496 323.56 332.496C324.04 332.496 324.544 332.664 324.928 332.976C326.248 334.08 325.816 336.84 323.008 338.352C321.928 338.976 320.584 339.264 319.336 339.264C319.072 339.264 318.808 339.24 318.568 339.216C314.176 338.736 311.512 334.368 311.92 330.048C312.352 325.728 314.92 321.888 319.624 321.888C321.352 321.888 322.888 322.392 323.728 323.04C324.76 323.856 325.6 325.608 324.616 326.688C324.256 327.096 323.872 327.288 323.44 327.288C323.128 327.288 322.816 327.192 322.504 327ZM336.19 327.12C336.238 325.512 335.518 324.792 333.934 324.792C332.326 324.792 330.982 325.464 331.078 327.144C331.198 328.872 332.638 329.28 334.126 329.28C334.774 329.28 335.398 329.208 335.95 329.136C336.022 328.872 336.166 327.912 336.19 327.12ZM338.494 339.144H335.566C333.766 339.144 334.582 337.008 335.182 335.016C335.566 333.768 335.086 333.216 334.342 333.216C333.67 333.216 332.782 333.696 332.158 334.56C330.622 336.696 332.422 339.144 330.478 339.144H328.102C326.47 339.144 326.302 335.376 327.67 333.528C328.942 331.8 330.598 331.272 332.494 331.08C328.942 331.032 326.518 327.792 328.03 324.648C329.134 322.344 332.23 321.864 334.582 321.984C336.694 322.104 339.238 322.008 339.118 323.808C338.854 327.72 338.902 329.064 338.902 330.24C338.926 335.184 340.702 339.144 338.494 339.144Z" fill="#101010"/>
<path d="M119.69 437.168C119.786 434.84 118.778 433.112 119.138 431.096C119.33 429.896 119.954 429.2 121.178 429.2C122.546 429.2 124.538 429.752 125.69 429.752C127.106 429.752 127.562 429.176 128.714 429.176C130.562 429.176 131.162 430.328 131.234 432.032C131.306 433.808 130.442 435.152 130.826 437.552C131.714 443.048 132.266 446 129.77 446H128.402C126.098 446 126.77 441.272 127.298 439.04C127.682 437.384 128.93 433.088 125.45 433.16C122.45 433.232 122.834 435.464 123.41 438.728C124.106 442.616 124.826 446 121.85 446H120.53C117.554 446 119.546 440.072 119.69 437.168ZM138.514 434.048C138.202 433.856 137.866 433.784 137.506 433.784C136.522 433.784 135.514 434.456 135.082 435.512C134.794 436.184 134.674 437.888 135.802 438.536C136.258 438.8 136.642 438.896 137.002 438.896C137.794 438.896 138.346 438.44 138.778 438.44C138.946 438.44 139.09 438.512 139.234 438.704C139.546 439.16 139.138 439.52 137.77 440.936C136.378 442.4 138.178 443.792 139.642 443.792C139.93 443.792 140.194 443.744 140.434 443.624C142.498 442.592 140.914 439.568 141.706 439.04C141.826 438.944 141.922 438.92 142.018 438.92C142.378 438.92 142.666 439.496 143.578 440.264C143.986 440.624 144.37 440.768 144.706 440.768C146.17 440.768 146.866 438.152 145.114 437.84C143.338 437.528 142.714 437.744 142.642 437.096C142.594 436.376 145.234 435.368 145.018 433.736C144.922 433.064 144.25 432.152 143.218 432.152C142.93 432.152 142.618 432.224 142.282 432.392C140.074 433.544 142.426 436.616 140.674 436.616C139.81 436.616 140.05 435.008 138.514 434.048ZM140.842 446.24C137.962 446.24 135.298 445.016 133.714 442.544C131.674 439.424 132.298 434.912 134.866 431.648C136.21 429.968 138.49 428.96 140.794 428.96C144.466 428.96 148.186 431.48 148.21 437.72C148.234 444.872 144.322 446.24 140.842 446.24ZM160.459 438.2C160.987 434.792 160.891 433.04 158.443 433.04C155.659 433.04 155.107 435.56 155.419 438.344C155.755 441.464 157.459 442.28 159.115 442.28C159.619 442.28 160.147 442.208 160.603 442.088C160.603 441.584 160.147 440.192 160.459 438.2ZM153.307 446.216C152.827 446.96 154.771 447.248 154.891 448.496C154.987 449.408 154.483 450.008 153.883 450.272C153.571 450.416 153.163 450.488 152.755 450.488C152.155 450.488 151.483 450.32 151.003 449.912C149.227 448.4 148.795 444.128 149.659 443C149.971 442.592 150.379 442.496 150.835 442.496C151.435 442.496 152.059 442.688 152.563 442.688C152.827 442.688 153.067 442.616 153.211 442.424C154.531 440.576 151.459 438.392 151.819 434.864C152.179 431.288 155.371 429.008 158.803 429.008C161.467 429.008 164.443 430.208 164.659 432.368C164.851 434.24 163.723 436.76 163.603 438.32C163.507 439.472 163.267 442.592 164.539 442.592C164.827 442.592 165.163 442.448 165.619 442.088C165.931 441.848 166.243 441.752 166.507 441.752C166.723 441.752 166.891 441.8 167.011 441.872C169.051 442.976 167.371 448.112 165.355 449.816C164.827 450.248 164.083 450.512 163.411 450.512C162.835 450.512 162.331 450.344 162.043 449.96C161.179 448.832 162.067 448.016 162.835 447.056C163.339 446.408 163.387 445.592 162.211 445.592C161.755 445.592 161.155 445.712 160.315 446C159.811 446.168 159.283 446.336 158.587 446.336C158.131 446.336 157.627 446.264 157.003 446.12C156.115 445.904 155.347 445.832 154.771 445.832C153.955 445.832 153.451 446 153.307 446.216ZM169.706 437.168C169.802 434.84 168.794 433.112 169.154 431.096C169.346 429.896 169.97 429.2 171.194 429.2C172.562 429.2 174.554 429.752 175.706 429.752C177.122 429.752 177.578 429.176 178.73 429.176C180.578 429.176 181.178 430.328 181.25 432.032C181.322 433.808 180.458 435.152 180.842 437.552C181.73 443.048 182.282 446 179.786 446H178.418C176.114 446 176.786 441.272 177.314 439.04C177.698 437.384 178.946 433.088 175.466 433.16C172.466 433.232 172.85 435.464 173.426 438.728C174.122 442.616 174.842 446 171.866 446H170.546C167.57 446 169.562 440.072 169.706 437.168ZM182.578 431.696C182.578 430.232 183.61 429.2 185.122 429.2C187.21 429.2 188.338 431.336 188.338 434.648C188.338 436.088 187.858 437.504 187.258 439.304C187.21 439.448 187.162 439.568 187.162 439.664C187.162 439.784 187.234 439.856 187.402 439.856C187.642 439.856 187.978 439.712 188.386 439.448C189.97 438.392 191.002 436.568 191.002 434.84C191.002 434.072 190.81 433.16 190.81 432.152C190.81 430.064 191.65 429.008 193.33 429.008C194.938 429.008 196.138 429.92 196.138 431.24C196.138 432.872 194.698 433.88 194.698 435.968C194.698 438.464 196.666 441.728 196.666 444.416C196.666 445.496 196.282 446 195.49 446H192.538C191.986 446 191.746 445.688 191.746 445.04C191.746 443.816 192.634 442.568 192.634 441.344C192.634 440.744 192.418 440.408 192.058 440.408C190.666 440.408 187.618 446 185.026 446C183.682 446 182.602 446.12 182.602 444.536C182.602 442.232 184.546 439.28 184.546 436.784C184.546 434.264 182.578 434.048 182.578 431.696ZM208.161 434C207.081 433.376 206.769 432.248 204.825 432.248C202.401 432.248 201.657 435.104 201.537 437.048C201.345 439.928 202.425 442.472 204.513 442.472C204.969 442.472 205.449 442.352 206.001 442.088C207.249 441.488 207.201 440.696 207.897 440C208.209 439.664 208.689 439.496 209.217 439.496C209.697 439.496 210.201 439.664 210.585 439.976C211.905 441.08 211.473 443.84 208.665 445.352C207.585 445.976 206.241 446.264 204.993 446.264C204.729 446.264 204.465 446.24 204.225 446.216C199.833 445.736 197.169 441.368 197.577 437.048C198.009 432.728 200.577 428.888 205.281 428.888C207.009 428.888 208.545 429.392 209.385 430.04C210.417 430.856 211.257 432.608 210.273 433.688C209.913 434.096 209.529 434.288 209.097 434.288C208.785 434.288 208.473 434.192 208.161 434ZM215.726 439.712C215.246 441.608 215.39 443.192 218.198 443.528C220.19 443.768 221.846 442.736 221.51 441.032C221.222 439.664 220.046 439.232 218.678 439.232C217.694 439.232 216.614 439.448 215.726 439.712ZM212.942 440.192C213.038 437.912 212.654 435.896 212.438 433.616C212.222 431.432 212.726 428.96 215.246 428.96C216.374 428.96 217.502 429.8 217.502 431C217.502 433.28 215.726 433.856 215.942 435.92C216.014 436.448 216.374 436.592 216.926 436.592C217.646 436.592 218.654 436.328 219.59 436.328C222.83 436.328 224.75 438.704 224.75 441.296C224.75 443.72 222.758 446 220.646 446H214.238C211.43 446 212.894 441.392 212.942 440.192ZM229.063 434.696C229.255 435.632 228.703 436.76 227.479 436.76C227.287 436.76 227.095 436.736 226.879 436.688C225.727 436.4 225.415 434.888 225.991 434.048C226.303 433.592 226.855 433.376 227.407 433.376C228.127 433.376 228.895 433.808 229.063 434.696ZM229.063 443.936C229.255 444.872 228.703 446 227.479 446C227.287 446 227.095 445.976 226.879 445.928C225.727 445.616 225.415 444.128 225.991 443.288C226.303 442.832 226.855 442.616 227.407 442.616C228.127 442.616 228.895 443.048 229.063 443.936Z" fill="#101010"/>
<path d="M172.748 272.048C172.436 271.856 172.1 271.784 171.74 271.784C170.756 271.784 169.748 272.456 169.316 273.512C169.028 274.184 168.908 275.888 170.036 276.536C170.492 276.8 170.876 276.896 171.236 276.896C172.028 276.896 172.58 276.44 173.012 276.44C173.18 276.44 173.324 276.512 173.468 276.704C173.78 277.16 173.372 277.52 172.004 278.936C170.612 280.4 172.412 281.792 173.876 281.792C174.164 281.792 174.428 281.744 174.668 281.624C176.732 280.592 175.148 277.568 175.94 277.04C176.06 276.944 176.156 276.92 176.252 276.92C176.612 276.92 176.9 277.496 177.812 278.264C178.22 278.624 178.604 278.768 178.94 278.768C180.404 278.768 181.1 276.152 179.348 275.84C177.572 275.528 176.948 275.744 176.876 275.096C176.828 274.376 179.468 273.368 179.252 271.736C179.156 271.064 178.484 270.152 177.452 270.152C177.164 270.152 176.852 270.224 176.516 270.392C174.308 271.544 176.66 274.616 174.908 274.616C174.044 274.616 174.284 273.008 172.748 272.048ZM175.076 284.24C172.196 284.24 169.532 283.016 167.948 280.544C165.908 277.424 166.532 272.912 169.1 269.648C170.444 267.968 172.724 266.96 175.028 266.96C178.7 266.96 182.42 269.48 182.444 275.72C182.468 282.872 178.556 284.24 175.076 284.24ZM186.989 277.616C186.509 279.512 186.653 281.096 189.461 281.432C191.453 281.672 193.109 280.64 192.773 278.936C192.485 277.568 191.309 277.136 189.941 277.136C188.957 277.136 187.877 277.352 186.989 277.616ZM183.917 278.12C184.685 274.952 182.141 271.736 184.397 268.76C185.501 267.296 187.805 266.936 189.725 266.936C190.949 266.936 192.029 267.08 192.557 267.176C194.069 267.44 196.157 268.064 196.013 269.888C195.893 271.304 194.813 272.048 193.613 272.048C192.965 272.048 192.293 271.832 191.717 271.424C191.093 270.968 190.445 270.176 190.037 269.96C189.797 269.84 189.557 269.792 189.341 269.792C187.637 269.792 186.101 272.72 187.373 274.616C187.589 274.928 187.853 275.048 188.189 275.048C188.813 275.048 189.677 274.64 190.781 274.64C194.021 274.64 196.205 276.608 196.205 279.2C196.205 281.624 194.117 284 192.005 284H186.149C183.341 284 183.629 279.272 183.917 278.12ZM209.027 270.656C208.979 271.304 208.715 271.736 208.379 271.952C208.139 272.072 207.827 272.168 207.491 272.168C207.203 272.168 206.915 272.12 206.627 272C205.595 271.568 205.139 270.272 203.531 270.272C202.187 270.272 201.587 270.968 201.611 272C201.683 273.584 203.747 273.944 204.995 273.944C206.315 273.944 206.531 274.808 206.507 275.432C206.459 276.272 206.003 277.04 204.779 277.04C204.611 277.04 204.419 277.016 204.227 276.992C203.867 276.944 203.507 276.896 203.195 276.896C201.779 276.896 200.891 277.496 200.963 278.744C201.035 279.92 201.827 280.88 203.435 280.88C205.595 280.88 204.923 279.344 206.891 278.912C207.059 278.864 207.227 278.864 207.371 278.864C208.691 278.864 209.435 280.16 209.387 281.12C209.291 282.68 206.843 284.192 203.771 284.24C203.723 284.24 203.651 284.24 203.603 284.24C200.027 284.24 197.483 282.752 197.171 279.848C196.931 277.76 197.915 275.528 200.459 274.736C198.827 273.944 197.939 272.744 197.819 271.232C197.627 268.76 199.355 266.912 202.643 266.912C205.571 266.912 209.171 268.448 209.027 270.656ZM230.095 279.872C232.063 281.072 230.359 285.992 228.415 287.792C227.887 288.272 227.167 288.512 226.519 288.512C225.943 288.512 225.391 288.32 225.103 287.936C224.479 287.12 224.599 285.968 225.847 285.008C226.687 284.36 227.503 283.112 227.023 283.112C226.927 283.112 226.783 283.16 226.567 283.28C225.583 283.832 225.079 283.976 223.951 283.976C222.655 283.976 220.255 283.496 219.151 283.496C217.831 283.496 215.647 284.024 214.255 284.024C213.535 284.024 212.527 283.832 211.903 283.472C209.215 281.936 211.591 276.248 211.591 273.8C211.591 272.168 210.967 271.424 210.655 269.624C210.487 268.592 210.631 267.2 212.599 267.2C215.623 267.2 215.503 271.976 214.735 274.928C214.447 276.008 213.439 280.04 215.287 280.448C215.431 280.472 215.575 280.496 215.695 280.496C217.255 280.496 217.543 278.408 217.279 276.056C217.111 274.52 216.391 271.304 216.871 269.072C217.039 268.232 217.615 267.2 218.935 267.2C220.351 267.2 220.975 268.208 220.807 269.336C220.519 271.112 220.231 272.456 220.495 273.68C220.855 275.432 220.879 276.032 220.735 278.792C220.687 279.92 221.407 280.616 222.151 280.616C222.775 280.616 223.423 280.064 223.519 278.816C223.687 276.248 222.583 274.208 222.655 270.368C222.679 268.64 223.183 267.2 225.199 267.2C226.735 267.2 227.407 268.448 226.879 270.032C225.751 273.296 227.575 276.008 227.215 278.744C227.191 278.984 227.095 279.512 227.167 279.848C227.215 280.088 227.311 280.208 227.407 280.28C227.839 280.52 228.559 279.68 229.423 279.68C229.639 279.68 229.855 279.728 230.095 279.872ZM238.408 270.92C239.976 270.92 241.136 271.264 241.888 271.952C242.64 272.64 243.016 273.736 243.016 275.24V284H241.48L241.072 282.176H240.976C240.608 282.64 240.224 283.032 239.824 283.352C239.44 283.656 238.992 283.88 238.48 284.024C237.984 284.168 237.376 284.24 236.656 284.24C235.888 284.24 235.192 284.104 234.568 283.832C233.96 283.56 233.48 283.144 233.128 282.584C232.776 282.008 232.6 281.288 232.6 280.424C232.6 279.144 233.104 278.16 234.112 277.472C235.12 276.768 236.672 276.384 238.768 276.32L240.952 276.248V275.48C240.952 274.408 240.72 273.664 240.256 273.248C239.792 272.832 239.136 272.624 238.288 272.624C237.616 272.624 236.976 272.728 236.368 272.936C235.76 273.128 235.192 273.352 234.664 273.608L234.016 272.024C234.576 271.72 235.24 271.464 236.008 271.256C236.776 271.032 237.576 270.92 238.408 270.92ZM239.032 277.784C237.432 277.848 236.32 278.104 235.696 278.552C235.088 279 234.784 279.632 234.784 280.448C234.784 281.168 235 281.696 235.432 282.032C235.88 282.368 236.448 282.536 237.136 282.536C238.224 282.536 239.128 282.24 239.848 281.648C240.568 281.04 240.928 280.112 240.928 278.864V277.712L239.032 277.784ZM261.893 272.504C262.301 271.16 261.197 269.528 259.613 269.744C256.301 270.2 257.981 273.632 258.341 274.952C258.365 275.048 258.293 275.096 258.149 275.096C257.789 275.096 257.021 274.88 256.253 274.88C255.989 274.88 255.701 274.904 255.461 274.976C253.301 275.624 253.781 277.904 254.573 278.96C255.293 279.92 256.325 280.352 257.189 280.352C258.725 280.352 259.277 279.008 259.277 277.664C259.301 277.28 259.445 277.088 259.685 277.088C259.805 277.088 259.973 277.16 260.141 277.256C260.957 277.76 261.725 279.272 263.045 279.272C263.189 279.272 263.357 279.248 263.525 279.2C264.461 278.96 265.589 276.584 264.461 275.312C264.005 274.808 263.525 274.64 263.069 274.64C262.301 274.64 261.581 275.096 261.125 275.144C259.973 275.264 261.629 273.464 261.893 272.504ZM259.781 284.024C257.045 284.024 254.549 282.968 253.085 280.544C252.341 279.32 252.701 279.92 251.957 278.288C251.861 278.048 251.549 277.952 251.189 277.952C250.661 277.952 250.037 278.168 249.821 278.384C250.253 280.568 251.837 284 249.365 284H246.797C243.653 284 247.037 280.712 246.365 275.024C246.005 272 245.645 271.376 245.813 269.48C246.005 267.512 247.709 266.984 248.573 266.984C249.821 266.984 251.309 267.872 251.045 270.008C250.757 272.288 249.077 272.456 249.533 275.288C249.557 275.456 249.773 275.528 250.085 275.528C250.733 275.528 251.789 275.12 251.981 274.112C252.461 271.568 253.277 270.224 254.549 268.976C255.773 267.776 257.717 266.984 259.685 266.984C263.093 266.984 266.549 269.312 266.573 275.72C266.597 282.8 263.021 284.024 259.781 284.024ZM274.581 275.168C274.677 272.84 273.669 271.112 274.029 269.096C274.221 267.896 274.845 267.2 276.069 267.2C277.437 267.2 279.429 267.752 280.581 267.752C281.997 267.752 282.453 267.176 283.605 267.176C285.453 267.176 286.053 268.328 286.125 270.032C286.197 271.808 285.333 273.152 285.717 275.552C286.605 281.048 287.157 284 284.661 284H283.293C280.989 284 281.661 279.272 282.189 277.04C282.573 275.384 283.821 271.088 280.341 271.16C277.341 271.232 277.725 273.464 278.301 276.728C278.997 280.616 279.717 284 276.741 284H275.421C272.445 284 274.437 278.072 274.581 275.168ZM290.909 272.984C290.837 273.92 291.077 275.072 291.293 275.36C292.013 275.504 292.853 275.624 293.669 275.624C295.205 275.624 296.621 275.144 296.813 273.2C297.005 271.232 295.445 270.248 293.573 270.248C291.701 270.248 291.005 271.04 290.909 272.984ZM288.029 273.2C288.029 271.976 287.645 270.704 287.837 269.552C288.149 267.8 289.997 266.936 293.405 266.936C297.773 266.936 300.173 268.784 300.173 272.264C300.173 275.504 298.205 278.552 295.229 278.552C293.453 278.552 292.085 278.048 291.677 278.048C291.389 278.048 291.245 278.192 291.245 278.84C291.245 280.544 292.997 282.128 292.997 283.304C292.997 283.784 292.757 284 292.229 284H288.605C287.549 284 287.573 282.056 287.573 281.456C287.573 278.672 288.029 275.96 288.029 273.2ZM300.835 269.696C300.835 268.232 301.867 267.2 303.379 267.2C305.467 267.2 306.595 269.336 306.595 272.648C306.595 274.088 306.115 275.504 305.515 277.304C305.467 277.448 305.419 277.568 305.419 277.664C305.419 277.784 305.491 277.856 305.659 277.856C305.899 277.856 306.235 277.712 306.643 277.448C308.227 276.392 309.259 274.568 309.259 272.84C309.259 272.072 309.067 271.16 309.067 270.152C309.067 268.064 309.907 267.008 311.587 267.008C313.195 267.008 314.395 267.92 314.395 269.24C314.395 270.872 312.955 271.88 312.955 273.968C312.955 276.464 314.923 279.728 314.923 282.416C314.923 283.496 314.539 284 313.747 284H310.795C310.243 284 310.003 283.688 310.003 283.04C310.003 281.816 310.891 280.568 310.891 279.344C310.891 278.744 310.675 278.408 310.315 278.408C308.923 278.408 305.875 284 303.283 284C301.939 284 300.859 284.12 300.859 282.536C300.859 280.232 302.803 277.28 302.803 274.784C302.803 272.264 300.835 272.048 300.835 269.696ZM315.882 269.696C315.882 268.232 316.914 267.2 318.426 267.2C320.514 267.2 321.642 269.336 321.642 272.648C321.642 274.088 321.162 275.504 320.562 277.304C320.514 277.448 320.466 277.568 320.466 277.664C320.466 277.784 320.538 277.856 320.706 277.856C320.946 277.856 321.282 277.712 321.69 277.448C323.274 276.392 324.306 274.568 324.306 272.84C324.306 272.072 324.114 271.16 324.114 270.152C324.114 268.064 324.954 267.008 326.634 267.008C328.242 267.008 329.442 267.92 329.442 269.24C329.442 270.872 328.002 271.88 328.002 273.968C328.002 276.464 329.97 279.728 329.97 282.416C329.97 283.496 329.586 284 328.794 284H325.842C325.29 284 325.05 283.688 325.05 283.04C325.05 281.816 325.938 280.568 325.938 279.344C325.938 278.744 325.722 278.408 325.362 278.408C323.97 278.408 320.922 284 318.33 284C316.986 284 315.906 284.12 315.906 282.536C315.906 280.232 317.85 277.28 317.85 274.784C317.85 272.264 315.882 272.048 315.882 269.696ZM320.25 264.584C320.154 263.456 321.018 262.952 322.026 262.952C322.914 262.952 323.898 263.36 324.33 264.056C325.026 265.208 323.97 266.696 323.034 267.08C322.842 267.152 322.674 267.2 322.482 267.2C321.33 267.2 320.322 265.688 320.25 264.584ZM334.793 284H332.273C330.161 284 331.937 279.104 331.937 276.584C331.937 274.16 330.929 272.36 331.073 270.416C331.193 268.472 332.369 267.2 334.097 267.2C335.153 267.2 337.577 267.704 338.873 267.704C340.121 267.704 342.161 267.2 343.481 267.2C344.513 267.2 345.953 267.392 346.649 267.824C349.313 269.456 347.489 275.12 347.489 277.856C347.489 279.2 347.897 280.808 347.897 282.176C347.897 283.016 347.753 284 346.793 284H344.585C343.457 284 343.289 282.968 343.289 281.96C343.289 280.736 343.865 277.616 344.249 275.528C344.825 272.504 344.417 270.872 343.001 270.8C342.977 270.8 342.929 270.8 342.905 270.8C341.681 270.8 341.057 272.048 341.153 274.16C341.321 277.76 343.169 283.976 340.073 283.976H338.537C337.001 283.976 338.177 281.648 338.057 279.584C337.961 278.288 337.529 276.656 338.081 273.632C338.369 271.88 338.009 270.992 337.121 270.704C336.929 270.632 336.713 270.608 336.521 270.608C335.609 270.608 334.817 271.304 334.793 272.888C334.769 274.448 337.457 284 334.793 284ZM349.117 269.696C349.117 268.232 350.149 267.2 351.661 267.2C353.749 267.2 354.877 269.336 354.877 272.648C354.877 274.088 354.397 275.504 353.797 277.304C353.749 277.448 353.701 277.568 353.701 277.664C353.701 277.784 353.773 277.856 353.941 277.856C354.181 277.856 354.517 277.712 354.925 277.448C356.509 276.392 357.541 274.568 357.541 272.84C357.541 272.072 357.349 271.16 357.349 270.152C357.349 268.064 358.189 267.008 359.869 267.008C361.477 267.008 362.677 267.92 362.677 269.24C362.677 270.872 361.237 271.88 361.237 273.968C361.237 276.464 363.205 279.728 363.205 282.416C363.205 283.496 362.821 284 362.029 284H359.077C358.525 284 358.285 283.688 358.285 283.04C358.285 281.816 359.173 280.568 359.173 279.344C359.173 278.744 358.957 278.408 358.597 278.408C357.205 278.408 354.157 284 351.565 284C350.221 284 349.141 284.12 349.141 282.536C349.141 280.232 351.085 277.28 351.085 274.784C351.085 272.264 349.117 272.048 349.117 269.696Z" fill="#101010"/>
<path d="M160.088 218.12C160.136 216.512 159.416 215.792 157.832 215.792C156.224 215.792 154.88 216.464 154.976 218.144C155.096 219.872 156.536 220.28 158.024 220.28C158.672 220.28 159.296 220.208 159.848 220.136C159.92 219.872 160.064 218.912 160.088 218.12ZM162.392 230.144H159.464C157.664 230.144 158.48 228.008 159.08 226.016C159.464 224.768 158.984 224.216 158.24 224.216C157.568 224.216 156.68 224.696 156.056 225.56C154.52 227.696 156.32 230.144 154.376 230.144H152C150.368 230.144 150.2 226.376 151.568 224.528C152.84 222.8 154.496 222.272 156.392 222.08C152.84 222.032 150.416 218.792 151.928 215.648C153.032 213.344 156.128 212.864 158.48 212.984C160.592 213.104 163.136 213.008 163.016 214.808C162.752 218.72 162.8 220.064 162.8 221.24C162.824 226.184 164.6 230.144 162.392 230.144ZM168.063 230.192C167.847 231.608 166.527 232.328 165.471 232.328C164.919 232.328 164.439 232.136 164.223 231.776C163.695 230.888 165.423 230.24 165.039 228.632C164.847 227.792 165.207 227.432 165.735 227.432C166.719 227.432 168.303 228.632 168.063 230.192ZM176.084 221.288C176.084 219.584 175.436 217.952 175.436 216.248C175.436 214.904 175.94 212.936 177.98 212.96C179.924 212.984 182.132 215.912 183.116 218.288C184.124 215.864 185.636 212.96 188.468 212.984C191.948 213.008 189.98 220.184 189.98 221.648C189.98 223.568 190.46 225.608 190.46 227.648C190.46 228.536 190.34 230 188.948 230H186.212C185.444 230 185.348 229.256 185.348 228.752C185.348 225.8 185.972 225.032 187.244 222.08C187.508 221.528 187.772 220.064 186.86 219.704C186.668 219.632 186.5 219.584 186.308 219.584C185.588 219.584 185.036 220.208 184.796 220.784C183.884 222.704 184.412 226.04 182.972 226.088C180.356 226.184 182.924 219.488 180.404 218.984C179.18 218.744 178.916 219.968 178.916 220.856C178.916 221.216 178.964 221.576 179.06 221.96C179.588 224.12 181.508 230 179.3 230H176.276C175.244 230 175.148 227.912 175.148 227.336C175.148 225.968 175.436 224.552 175.844 223.208C176.036 222.56 176.084 221.936 176.084 221.288ZM191.507 215.696C191.507 214.232 192.539 213.2 194.051 213.2C196.139 213.2 197.267 215.336 197.267 218.648C197.267 220.088 196.787 221.504 196.187 223.304C196.139 223.448 196.091 223.568 196.091 223.664C196.091 223.784 196.163 223.856 196.331 223.856C196.571 223.856 196.907 223.712 197.315 223.448C198.899 222.392 199.931 220.568 199.931 218.84C199.931 218.072 199.739 217.16 199.739 216.152C199.739 214.064 200.579 213.008 202.259 213.008C203.867 213.008 205.067 213.92 205.067 215.24C205.067 216.872 203.627 217.88 203.627 219.968C203.627 222.464 205.595 225.728 205.595 228.416C205.595 229.496 205.211 230 204.419 230H201.467C200.915 230 200.675 229.688 200.675 229.04C200.675 227.816 201.563 226.568 201.563 225.344C201.563 224.744 201.347 224.408 200.987 224.408C199.595 224.408 196.547 230 193.955 230C192.611 230 191.531 230.12 191.531 228.536C191.531 226.232 193.475 223.28 193.475 220.784C193.475 218.264 191.507 218.048 191.507 215.696ZM210.01 218.984C209.938 219.92 210.178 221.072 210.394 221.36C211.114 221.504 211.954 221.624 212.77 221.624C214.306 221.624 215.722 221.144 215.914 219.2C216.106 217.232 214.546 216.248 212.674 216.248C210.802 216.248 210.106 217.04 210.01 218.984ZM207.13 219.2C207.13 217.976 206.746 216.704 206.938 215.552C207.25 213.8 209.098 212.936 212.506 212.936C216.874 212.936 219.274 214.784 219.274 218.264C219.274 221.504 217.306 224.552 214.33 224.552C212.554 224.552 211.186 224.048 210.778 224.048C210.49 224.048 210.346 224.192 210.346 224.84C210.346 226.544 212.098 228.128 212.098 229.304C212.098 229.784 211.858 230 211.33 230H207.706C206.65 230 206.674 228.056 206.674 227.456C206.674 224.672 207.13 221.96 207.13 219.2ZM225.889 218.048C225.577 217.856 225.241 217.784 224.881 217.784C223.897 217.784 222.889 218.456 222.457 219.512C222.169 220.184 222.049 221.888 223.177 222.536C223.633 222.8 224.017 222.896 224.377 222.896C225.169 222.896 225.721 222.44 226.153 222.44C226.321 222.44 226.465 222.512 226.609 222.704C226.921 223.16 226.513 223.52 225.145 224.936C223.753 226.4 225.553 227.792 227.017 227.792C227.305 227.792 227.569 227.744 227.809 227.624C229.873 226.592 228.289 223.568 229.081 223.04C229.201 222.944 229.297 222.92 229.393 222.92C229.753 222.92 230.041 223.496 230.953 224.264C231.361 224.624 231.745 224.768 232.081 224.768C233.545 224.768 234.241 222.152 232.489 221.84C230.713 221.528 230.089 221.744 230.017 221.096C229.969 220.376 232.609 219.368 232.393 217.736C232.297 217.064 231.625 216.152 230.593 216.152C230.305 216.152 229.993 216.224 229.657 216.392C227.449 217.544 229.801 220.616 228.049 220.616C227.185 220.616 227.425 219.008 225.889 218.048ZM228.217 230.24C225.337 230.24 222.673 229.016 221.089 226.544C219.049 223.424 219.673 218.912 222.241 215.648C223.585 213.968 225.865 212.96 228.169 212.96C231.841 212.96 235.561 215.48 235.585 221.72C235.609 228.872 231.697 230.24 228.217 230.24ZM236.578 216.272C236.554 214.448 237.61 212.984 239.338 212.984C240.946 212.984 242.482 214.064 242.266 216.128C242.074 217.904 239.506 221.648 241.162 222.2C241.282 222.224 241.402 222.248 241.546 222.248C242.554 222.248 244.354 221.552 244.882 220.712C245.794 219.272 244.138 217.856 243.922 216.152C243.634 214.16 244.834 213.032 246.61 212.984C248.482 212.936 249.202 214.4 248.986 216.176C248.746 218.096 247.834 219.32 247.882 221.552C247.906 223.616 248.698 225.992 248.746 228.344C248.77 229.664 248.338 230 247.618 230H245.242C243.13 230 245.434 226.544 244.57 224.816C244.354 224.408 243.106 224.12 242.146 224.12C241.738 224.12 241.402 224.168 241.21 224.288C239.89 225.2 242.578 230 240.634 230H238.018C237.25 230 237.034 229.448 237.01 228.272C236.962 225.992 238.21 223.712 238.162 221.48C238.138 219.464 236.602 218.024 236.578 216.272ZM255.866 218.048C255.554 217.856 255.218 217.784 254.858 217.784C253.874 217.784 252.866 218.456 252.434 219.512C252.146 220.184 252.026 221.888 253.154 222.536C253.61 222.8 253.994 222.896 254.354 222.896C255.146 222.896 255.698 222.44 256.13 222.44C256.298 222.44 256.442 222.512 256.586 222.704C256.898 223.16 256.49 223.52 255.122 224.936C253.73 226.4 255.53 227.792 256.994 227.792C257.282 227.792 257.546 227.744 257.786 227.624C259.85 226.592 258.266 223.568 259.058 223.04C259.178 222.944 259.274 222.92 259.37 222.92C259.73 222.92 260.018 223.496 260.93 224.264C261.338 224.624 261.722 224.768 262.058 224.768C263.522 224.768 264.218 222.152 262.466 221.84C260.69 221.528 260.066 221.744 259.994 221.096C259.946 220.376 262.586 219.368 262.37 217.736C262.274 217.064 261.602 216.152 260.57 216.152C260.282 216.152 259.97 216.224 259.634 216.392C257.426 217.544 259.778 220.616 258.026 220.616C257.162 220.616 257.402 219.008 255.866 218.048ZM258.194 230.24C255.314 230.24 252.65 229.016 251.066 226.544C249.026 223.424 249.65 218.912 252.218 215.648C253.562 213.968 255.842 212.96 258.146 212.96C261.818 212.96 265.538 215.48 265.562 221.72C265.586 228.872 261.674 230.24 258.194 230.24ZM270.106 223.616C269.626 225.512 269.77 227.096 272.578 227.432C274.57 227.672 276.226 226.64 275.89 224.936C275.602 223.568 274.426 223.136 273.058 223.136C272.074 223.136 270.994 223.352 270.106 223.616ZM270.034 220.568C273.394 220.136 273.97 219.152 273.922 217.712C273.898 216.584 272.818 215.672 271.666 215.672C271.162 215.672 270.634 215.864 270.202 216.296C268.978 217.52 269.626 219.008 270.034 220.568ZM266.818 218.552C266.554 216.056 266.65 214.688 268.234 213.704C269.026 213.2 270.178 212.96 271.378 212.96C273.418 212.96 275.602 213.656 276.466 214.928C277.546 216.536 277.282 218.528 275.938 220.328C275.698 220.664 275.386 220.976 275.05 221.24C277.066 221.48 279.082 222.536 279.49 225.296C279.85 227.768 277.906 230 275.77 230H268.21C265.81 230 267.442 224.696 266.818 218.552ZM286.932 216.92C288.5 216.92 289.66 217.264 290.412 217.952C291.164 218.64 291.54 219.736 291.54 221.24V230H290.004L289.596 228.176H289.5C289.132 228.64 288.748 229.032 288.348 229.352C287.964 229.656 287.516 229.88 287.004 230.024C286.508 230.168 285.9 230.24 285.18 230.24C284.412 230.24 283.716 230.104 283.092 229.832C282.484 229.56 282.004 229.144 281.652 228.584C281.3 228.008 281.124 227.288 281.124 226.424C281.124 225.144 281.628 224.16 282.636 223.472C283.644 222.768 285.196 222.384 287.292 222.32L289.476 222.248V221.48C289.476 220.408 289.244 219.664 288.78 219.248C288.316 218.832 287.66 218.624 286.812 218.624C286.14 218.624 285.5 218.728 284.892 218.936C284.284 219.128 283.716 219.352 283.188 219.608L282.54 218.024C283.1 217.72 283.764 217.464 284.532 217.256C285.3 217.032 286.1 216.92 286.932 216.92ZM287.556 223.784C285.956 223.848 284.844 224.104 284.22 224.552C283.612 225 283.308 225.632 283.308 226.448C283.308 227.168 283.524 227.696 283.956 228.032C284.404 228.368 284.972 228.536 285.66 228.536C286.748 228.536 287.652 228.24 288.372 227.648C289.092 227.04 289.452 226.112 289.452 224.864V223.712L287.556 223.784ZM306.139 218.048C305.827 217.856 305.491 217.784 305.131 217.784C304.147 217.784 303.139 218.456 302.707 219.512C302.419 220.184 302.299 221.888 303.427 222.536C303.883 222.8 304.267 222.896 304.627 222.896C305.419 222.896 305.971 222.44 306.403 222.44C306.571 222.44 306.715 222.512 306.859 222.704C307.171 223.16 306.763 223.52 305.395 224.936C304.003 226.4 305.803 227.792 307.267 227.792C307.555 227.792 307.819 227.744 308.059 227.624C310.123 226.592 308.539 223.568 309.331 223.04C309.451 222.944 309.547 222.92 309.643 222.92C310.003 222.92 310.291 223.496 311.203 224.264C311.611 224.624 311.995 224.768 312.331 224.768C313.795 224.768 314.491 222.152 312.739 221.84C310.963 221.528 310.339 221.744 310.267 221.096C310.219 220.376 312.859 219.368 312.643 217.736C312.547 217.064 311.875 216.152 310.843 216.152C310.555 216.152 310.243 216.224 309.907 216.392C307.699 217.544 310.051 220.616 308.299 220.616C307.435 220.616 307.675 219.008 306.139 218.048ZM308.467 230.24C305.587 230.24 302.923 229.016 301.339 226.544C299.299 223.424 299.923 218.912 302.491 215.648C303.835 213.968 306.115 212.96 308.419 212.96C312.091 212.96 315.811 215.48 315.835 221.72C315.859 228.872 311.947 230.24 308.467 230.24ZM318.987 215.744C319.923 213.992 322.131 212.96 324.267 212.96C325.995 212.96 327.699 213.656 328.659 215.24C329.451 216.584 329.187 219.44 329.163 222.992C329.139 226.664 330.411 230 327.915 230H326.091C322.323 230 324.771 223.208 325.539 221.408C326.331 219.536 326.571 217.184 324.531 217.112C324.507 217.112 324.459 217.112 324.435 217.112C323.067 217.112 322.155 218.072 322.155 221.072C322.155 223.04 322.899 230 320.091 230H317.787C316.611 230 316.395 228.512 317.115 226.544C317.715 224.888 318.075 224.024 318.291 223.424C319.371 220.448 317.595 218.432 318.987 215.744ZM333.781 223.712C333.301 225.608 333.445 227.192 336.253 227.528C338.245 227.768 339.901 226.736 339.565 225.032C339.277 223.664 338.101 223.232 336.733 223.232C335.749 223.232 334.669 223.448 333.781 223.712ZM330.997 224.192C331.093 221.912 330.709 219.896 330.493 217.616C330.277 215.432 330.781 212.96 333.301 212.96C334.429 212.96 335.557 213.8 335.557 215C335.557 217.28 333.781 217.856 333.997 219.92C334.069 220.448 334.429 220.592 334.981 220.592C335.701 220.592 336.709 220.328 337.645 220.328C340.885 220.328 342.805 222.704 342.805 225.296C342.805 227.72 340.813 230 338.701 230H332.293C329.485 230 330.949 225.392 330.997 224.192ZM343.709 215.264C343.925 213.92 344.933 212.984 346.301 212.984C347.357 212.984 347.957 213.656 349.325 213.656C349.925 213.656 350.669 213.512 351.653 213.176C352.037 213.032 352.445 212.96 352.829 212.96C354.221 212.96 355.397 213.848 355.397 215.12C355.397 216.776 354.437 217.4 353.141 217.4C352.829 217.4 352.493 217.376 352.157 217.304C351.125 217.088 349.925 216.8 349.013 216.8C348.125 216.8 347.501 217.064 347.477 217.904C347.381 220.544 351.269 230.096 346.997 230.024L345.293 230C342.533 229.952 344.885 225.128 344.693 222.104C344.573 220.184 343.397 217.208 343.709 215.264ZM362.307 216.92C363.875 216.92 365.035 217.264 365.787 217.952C366.539 218.64 366.915 219.736 366.915 221.24V230H365.379L364.971 228.176H364.875C364.507 228.64 364.123 229.032 363.723 229.352C363.339 229.656 362.891 229.88 362.379 230.024C361.883 230.168 361.275 230.24 360.555 230.24C359.787 230.24 359.091 230.104 358.467 229.832C357.859 229.56 357.379 229.144 357.027 228.584C356.675 228.008 356.499 227.288 356.499 226.424C356.499 225.144 357.003 224.16 358.011 223.472C359.019 222.768 360.571 222.384 362.667 222.32L364.851 222.248V221.48C364.851 220.408 364.619 219.664 364.155 219.248C363.691 218.832 363.035 218.624 362.187 218.624C361.515 218.624 360.875 218.728 360.267 218.936C359.659 219.128 359.091 219.352 358.563 219.608L357.915 218.024C358.475 217.72 359.139 217.464 359.907 217.256C360.675 217.032 361.475 216.92 362.307 216.92ZM362.931 223.784C361.331 223.848 360.219 224.104 359.595 224.552C358.987 225 358.683 225.632 358.683 226.448C358.683 227.168 358.899 227.696 359.331 228.032C359.779 228.368 360.347 228.536 361.035 228.536C362.123 228.536 363.027 228.24 363.747 227.648C364.467 227.04 364.827 226.112 364.827 224.864V223.712L362.931 223.784Z" fill="#101010"/>
</svg>
