<svg width="216" height="55" viewBox="0 0 216 55" fill="none" xmlns="http://www.w3.org/2000/svg">
<path d="M216 0H0V55C0 46.5252 2.47594 28.3302 12.3797 23.3491C22.2835 18.3679 24.0716 28.5377 23.7278 34.2453C23.8997 39.6069 28.6796 49.8113 46.4239 47.7358C68.6042 45.1415 34.0442 34.2453 61.3827 23.3491C83.2535 14.6321 93.8794 26.9811 96.4585 34.2453C98.9946 38.7421 106.749 48.2547 117.478 50.3302C128.207 52.4057 137.423 42.5472 140.69 37.3585C147.74 26.4623 165.14 9.65094 178.345 29.5755C191.55 49.5 208.95 40.9906 216 34.2453V0Z" fill="#E900FF"/>
</svg>
