<svg width="143" height="30" viewBox="0 0 143 30" fill="none" xmlns="http://www.w3.org/2000/svg">
<path d="M143 0H0V28.4202C3.81673 29.8348 6.71744 3.31788 9.66904 16.0748C12.6206 28.8317 19.7197 27.4772 22.9004 25.2053C28.371 21.4759 32.6966 4.11518 36.1317 18.261C39.606 32.5685 53.1894 28.0768 57.5053 18.261C64.6299 2.05762 63.1032 22.6333 70.1005 28.2916C77.0979 33.9499 82.0596 24.4336 84.7313 16.0748C86.6955 9.92943 95.1637 2.7006 94.9092 12.6027C94.7057 20.5243 105.935 25.1624 110.431 25.2053C119.972 25.2962 119.947 4.37238 124.425 12.6027C128.904 20.8329 138.674 22.719 143 22.6333V0Z" fill="#E900FF"/>
</svg>
