<svg width="82" height="22" viewBox="0 0 82 22" fill="none" xmlns="http://www.w3.org/2000/svg">
<path d="M82 0H0V13.3862C0.546667 15.2673 -0.252308 21.7854 3.28 21.7854C7.69538 21.7854 6.51191 5.3908 11.2277 7.34929C15.9435 9.30778 11.2277 21.6542 16.7785 21.7854C21.2191 21.8904 20.9415 13.3862 21.6985 8.00311C21.6985 4.06715 28.4351 5.51197 27.6277 13.3862C26.6185 23.229 34.9424 22.1239 36.3323 21.7854C43.9015 19.9422 34.3138 15.0923 38.0985 9.71157C41.1262 5.40698 44.1538 10.3678 45.2892 13.3862C47.2656 17.0171 50.0831 20.8606 54.8769 21.7854C58.7421 22.5311 65.5981 17.4494 60.1754 9.71157C55.76 3.41116 66.0037 5.30199 70.1415 13.3862C74.2794 21.4704 79.6872 18.9807 82 16.6622V0Z" fill="#E900FF"/>
</svg>
