<svg width="5" height="35" viewBox="0 0 5 35" fill="none" xmlns="http://www.w3.org/2000/svg">
<rect x="1" y="8.5" width="3.6125" height="25.5" fill="white"/>
<path d="M1.2124 8.71252L4.3999 10.2" stroke="#2301FF" stroke-width="0.5" stroke-linecap="round"/>
<path d="M1.2124 10.2L4.3999 11.6875" stroke="#2301FF" stroke-width="0.5" stroke-linecap="round"/>
<path d="M1.2124 11.6875L4.3999 13.175" stroke="#2301FF" stroke-width="0.5" stroke-linecap="round"/>
<path d="M1.2124 13.175L4.3999 14.6625" stroke="#2301FF" stroke-width="0.5" stroke-linecap="round"/>
<path d="M1.2124 14.6625L4.3999 16.15" stroke="#2301FF" stroke-width="0.5" stroke-linecap="round"/>
<path d="M1.2124 16.15L4.3999 17.6375" stroke="#2301FF" stroke-width="0.5" stroke-linecap="round"/>
<path d="M1.2124 17.6375L4.3999 19.125" stroke="#2301FF" stroke-width="0.5" stroke-linecap="round"/>
<path d="M1.2124 19.125L4.3999 20.6125" stroke="#2301FF" stroke-width="0.5" stroke-linecap="round"/>
<path d="M1.2124 20.6125L4.3999 22.1" stroke="#2301FF" stroke-width="0.5" stroke-linecap="round"/>
<path d="M1.2124 22.1L4.3999 23.5875" stroke="#2301FF" stroke-width="0.5" stroke-linecap="round"/>
<path d="M1.2124 23.5875L4.3999 25.075" stroke="#2301FF" stroke-width="0.5" stroke-linecap="round"/>
<path d="M1.2124 25.075L4.3999 26.5625" stroke="#2301FF" stroke-width="0.5" stroke-linecap="round"/>
<path d="M1.2124 26.5625L4.3999 28.05" stroke="#2301FF" stroke-width="0.5" stroke-linecap="round"/>
<path d="M1.2124 28.05L4.3999 29.5375" stroke="#2301FF" stroke-width="0.5" stroke-linecap="round"/>
<path d="M1.2124 29.5375L4.3999 31.025" stroke="#2301FF" stroke-width="0.5" stroke-linecap="round"/>
<path d="M1.2124 31.025L4.3999 32.5125" stroke="#2301FF" stroke-width="0.5" stroke-linecap="round"/>
<path d="M1.2124 32.3L4.3999 33.7875" stroke="#2301FF" stroke-width="0.5" stroke-linecap="round"/>
<path d="M3.1675 5.84375C4.43187 6.69375 2.35469 7.4375 4.6125 8.5H1L2.20416 7.4375C2.445 7.225 2.79913 6.68146 2.35469 6.26875C1.57928 5.5487 2.37388 4.90112 2.30728 4.22655C2.29508 4.10301 2.29499 3.97446 2.34923 3.8628L2.3614 3.83774C2.53528 3.47976 2.62562 3.08697 2.62562 2.68898C2.62562 2.52857 2.66965 2.37124 2.75289 2.23413L2.94032 1.92542C3.02369 1.78811 3.01923 1.61476 2.9289 1.48193C2.79014 1.27787 2.71594 1.0368 2.71594 0.790027V0C3.0247 0.734568 3.79969 1.59375 3.50096 2.2037L3.48432 2.24249C3.13559 3.05534 3.28364 4.13979 2.94288 4.95602C2.81229 5.26884 2.75723 5.56794 3.1675 5.84375Z" fill="#FEFF01"/>
</svg>
